<svg id="Layer_1" data-name="Layer 1" xmlns="http://www.w3.org/2000/svg" viewBox="0 0 416 480"><defs><style>.cls-1{fill:#0070b9;}</style></defs><title>1</title><path class="cls-1" d="M456,320H426.13l37.66-158.15a8,8,0,0,0-5.84-9.6l-32-8a8,8,0,0,0-9.66,5.66L369.89,320h-18.1A39.58,39.58,0,0,0,360,296V272H336a40,40,0,0,0-39.3,33.1,39.55,39.55,0,0,0-55-10.1q-1.06.73-2.06,1.53C256,226.47,256,225.6,256,224a32,32,0,0,0-32-32q-1.4,0-2.8.12a47.83,47.83,0,0,0-90.4,0,32,32,0,0,0-34.66,29.09Q96,222.61,96,224c0,2.17,0,5.79,13.6,48.56A40,40,0,0,0,104,272H80v24a39.58,39.58,0,0,0,8.21,24H56a8,8,0,0,0-8,8c0,74.46,69.81,121.6,88,132.6V488a8,8,0,0,0,8,8H368a8,8,0,0,0,8-8V460.6c18.19-11,88-58.14,88-132.6a8,8,0,0,0-8-8h0ZM429.66,161.66l16.73,4.18L409.68,320h-23.2ZM312,312a24,24,0,0,1,24-24h8v8a24,24,0,0,1-24,24h-8v-8Zm-48-8a24,24,0,0,1,22.63,16H241.37A24,24,0,0,1,264,304h0Zm-41.37,16H177.37a24,24,0,0,1,45.26,0h0ZM112,224a15.72,15.72,0,0,1,21.78-14.85,8,8,0,0,0,10.75-6.21,31.84,31.84,0,0,1,62.93,0,8,8,0,0,0,10.75,6.21A15.72,15.72,0,0,1,240,223.46c-1.07,5.67-10.45,45.9-16.61,72.24A39.63,39.63,0,0,0,200,288a40.07,40.07,0,0,0-39.2,32H144v-8a39.77,39.77,0,0,0-14.9-30.89C114.23,234.77,112.17,225.5,112,224h0ZM96,296v-8h8a24,24,0,0,1,24,24v8h-8A24,24,0,0,1,96,296ZM365.84,448H328v16h32v16H152V464H256V448H146.16c-9-5.33-54.78-34.31-73.79-80H160V352H67.08a99.3,99.3,0,0,1-2.75-16H447.67a99.3,99.3,0,0,1-2.75,16H272v16H439.63c-19,45.69-64.78,74.67-73.79,80h0Z" transform="translate(-48 -16)"/><path class="cls-1" d="M176,352h16v16H176V352Z" transform="translate(-48 -16)"/><path class="cls-1" d="M208,352h16v16H208V352Z" transform="translate(-48 -16)"/><path class="cls-1" d="M240,352h16v16H240V352Z" transform="translate(-48 -16)"/><path class="cls-1" d="M243.93,138.83a23.53,23.53,0,0,0-1.36,14.67c3.45,16.16,22.1,32.59,43.38,38.23A249.76,249.76,0,0,0,335.71,200H336a8,8,0,0,0,6.5-12.66c-0.09-.13-9-12.58-24.16-32.22-6.71-8.73-24.54-29.28-45-31.71a29.42,29.42,0,0,0-18,3.54A26,26,0,0,1,240,104H224A40.36,40.36,0,0,0,243.93,138.83Zm25.52,0.34a15.26,15.26,0,0,1,2,.13c9.88,1.17,23,11,34.24,25.6,5.13,6.67,9.54,12.5,13.13,17.28a260.17,260.17,0,0,1-28.74-5.9c-16.66-4.41-29.9-17-31.83-26.1a7.29,7.29,0,0,1,2.81-7.94,12.9,12.9,0,0,1,8.42-3v0Z" transform="translate(-48 -16)"/><path class="cls-1" d="M144,240h16v16H144V240Z" transform="translate(-48 -16)"/><path class="cls-1" d="M184,256h16v16H184V256Z" transform="translate(-48 -16)"/><path class="cls-1" d="M87.56,144c2.1,0.11,9.67.48,19.69,0.48,19.93,0,49.5-1.47,64.49-9.4a45.15,45.15,0,0,0,20.55-26.36,42.33,42.33,0,0,0-1.22-32.45c-9.86-18.67-39.72-21.44-58.81-11.34C109.46,77,83.72,126.74,80.86,132.38A8,8,0,0,0,87.56,144Zm46.63-44.2L109.81,114c3.75-5.93,7.86-11.89,12-17.31ZM144,112.59v13.69a251.78,251.78,0,0,1-26.9,2Zm33.07-8.8A29.67,29.67,0,0,1,164.27,121a34.18,34.18,0,0,1-4.26,1.74V103.26l18.82-11a34.87,34.87,0,0,1-1.76,11.49v0Zm-6-25.46L154,88.28l-20-5a32.54,32.54,0,0,1,5.75-4.18A36.54,36.54,0,0,1,171,78.3v0Z" transform="translate(-48 -16)"/><path class="cls-1" d="M360,80h16a8,8,0,0,0,8-8,56.06,56.06,0,0,0-56-56H312a8,8,0,0,0-8,8A56.06,56.06,0,0,0,360,80ZM328,32a40.06,40.06,0,0,1,39.2,32H360a40.06,40.06,0,0,1-39.2-32H328Z" transform="translate(-48 -16)"/><path class="cls-1" d="M264,80a24,24,0,1,0-24-24A24,24,0,0,0,264,80Zm0-32a8,8,0,1,1-8,8A8,8,0,0,1,264,48Z" transform="translate(-48 -16)"/><path class="cls-1" d="M352,128a24,24,0,1,0,24-24A24,24,0,0,0,352,128Zm32,0a8,8,0,1,1-8-8A8,8,0,0,1,384,128Z" transform="translate(-48 -16)"/><path class="cls-1" d="M296,232h16v16H296V232Z" transform="translate(-48 -16)"/><path class="cls-1" d="M320,96h16v16H320V96Z" transform="translate(-48 -16)"/><path class="cls-1" d="M192,24h16V40H192V24Z" transform="translate(-48 -16)"/><path class="cls-1" d="M360,200h16v16H360V200Z" transform="translate(-48 -16)"/></svg>