<svg id="Capa_1" data-name="Capa 1" xmlns="http://www.w3.org/2000/svg" viewBox="0 0 512 511.03"><defs><style>.cls-1{fill:#0070b9;}</style></defs><title>12</title><path class="cls-1" d="M508.13,333.5c-13.86-10.76-35.8-16.7-65.22-17.66a324.52,324.52,0,0,0-66.16,5.28c-9.08-24.54-26.16-44-48.76-55.23-25.43-12.68-54.95-13.68-83.11-2.83a10,10,0,0,0-6.15,11.56c0.06,0.24.12,0.48,0.18,0.73a106.17,106.17,0,0,0-58,5.73,10,10,0,0,0-6.15,11.56c0.06,0.24.12,0.48,0.18,0.73a106.27,106.27,0,0,0-58,5.73,10,10,0,0,0-6.15,11.57c0.06,0.24.12,0.48,0.18,0.72a106.14,106.14,0,0,0-58,5.73,10,10,0,0,0-6.15,11.56,108.67,108.67,0,0,0,18.47,40.65C37.51,379.4,14.59,400.74,1,429.73A10,10,0,0,0,4.5,442.33c20.2,13.31,42.66,20.13,64.92,20.13a107.63,107.63,0,0,0,21.37-2.16,108.68,108.68,0,0,0,5.4,44.38,10,10,0,0,0,11.29,6.66A106.36,106.36,0,0,0,160,485.94c0.08,0.24.15,0.49,0.23,0.73a10,10,0,0,0,11.29,6.66,106.27,106.27,0,0,0,52.46-25.4c0.08,0.24.15,0.48,0.23,0.72a10,10,0,0,0,11.29,6.67,106.29,106.29,0,0,0,52.49-25.4c0.08,0.24.15,0.48,0.23,0.72a10,10,0,0,0,11.29,6.67c28.89-5.3,53.12-20.82,68.23-43.69,14-21.22,19-47,14.36-73.12,43-7.57,93.44-7,113.81,8.81a10,10,0,1,0,12.26-15.79h0Zm-389.19.75c9.8,20.4,25.4,36.43,44.61,46.12l-28.16,7.93c-31.11-3.18-56.42-24.42-66.71-55.37C85.78,328.15,103.24,328.59,118.94,334.25ZM95.23,438.58c-23.44,7.23-49,4.24-72-8.31,13.09-22.74,33.38-38.66,57.13-44.7a95.52,95.52,0,0,0,34.44,18.92A95.7,95.7,0,0,0,95.23,438.58Zm59.67,23.65c-10.43,13-25.1,22.52-42.21,27.39-7.33-31.78,3.22-63.11,28.12-82.07L169,399.62a99.24,99.24,0,0,0-14.05,62.61h0ZM132.66,314.91c17.12-4.78,34.58-4.33,50.27,1.32,9.79,20.4,25.39,36.44,44.61,46.12l-28.16,7.93c-31.1-3.18-56.41-24.42-66.73-55.37h0Zm86.24,129.3c-10.41,13-25.08,22.52-42.2,27.4-7.33-31.79,3.22-63.12,28.12-82.08L233,381.6A99.31,99.31,0,0,0,218.89,444.21ZM196.65,296.89c17.11-4.78,34.57-4.34,50.28,1.32,9.79,20.4,25.39,36.43,44.61,46.12l-28.16,7.93c-31.12-3.19-56.44-24.42-66.73-55.37h0Zm86.24,129.3c-10.41,13-25.09,22.53-42.22,27.4-7.31-31.79,3.25-63.13,28.15-82.08L297,363.58A99.31,99.31,0,0,0,282.9,426.19ZM260.66,278.87c20.15-5.63,40.6-4,58.41,4.92,17.3,8.63,30.57,23.38,38.07,42.07l-29.75,8.38c-31.11-3.19-56.43-24.42-66.72-55.37h0ZM351,402.58c-10.53,15.94-26.77,27.45-46.32,33-7.32-31.8,3.25-63.14,28.15-82.09l29.71-8.36C366,365.76,362,386,351,402.58Z" transform="translate(0 -0.48)"/><path class="cls-1" d="M16.14,94.19C36.54,78.34,87,77.78,129.94,85.38a104.74,104.74,0,0,0-1.27,28.35,10,10,0,1,0,19.91-1.87A84.57,84.57,0,0,1,149.45,90l29.74,8.37c24.9,19,35.45,50.29,28.12,82.07a89.21,89.21,0,0,1-17.62-7.06,10,10,0,1,0-9.4,17.65,111.67,111.67,0,0,0,32.22,11.14,10.05,10.05,0,0,0,7.29-1.46,10.67,10.67,0,0,0,4.24-5.93,106.35,106.35,0,0,0,52.48,25.41,10.05,10.05,0,0,0,7.28-1.47,10.67,10.67,0,0,0,4.24-5.93,106.31,106.31,0,0,0,52.48,25.41,10.05,10.05,0,0,0,7.28-1.47,10.67,10.67,0,0,0,4.24-5.93,106.3,106.3,0,0,0,52.48,25.41,10.1,10.1,0,0,0,11.29-6.67,108.84,108.84,0,0,0,5.38-44.38,107.46,107.46,0,0,0,21.34,2.16c22.25,0,44.73-6.82,65-20.12A10,10,0,0,0,511,174.61c-13.66-29-36.59-50.32-64.28-60.4a108.61,108.61,0,0,0,18.49-40.67A10,10,0,0,0,459.11,62c-19.21-7.39-39.23-9.28-58-5.71,0.06-.25.13-0.49,0.18-0.74A10,10,0,0,0,395.1,44c-19.2-7.39-39.23-9.28-58-5.71,0.06-.25.13-0.49,0.18-0.74a10,10,0,0,0-6.16-11.56c-19.2-7.39-39.22-9.28-58-5.71,0.06-.24.12-0.47,0.17-0.71A10,10,0,0,0,267.1,7.95C238.95-2.9,209.44-1.9,184,10.76,161.41,22,144.32,41.45,135.22,66a323.59,323.59,0,0,0-66.14-5.28c-29.41,1-51.35,6.91-65.21,17.68a10,10,0,1,0,12.27,15.8h0ZM271.3,198.47c-17.11-4.87-31.78-14.37-42.21-27.39a99.23,99.23,0,0,0-14-62.61l28.11,7.91C268.07,135.35,278.64,166.68,271.3,198.47Zm64,18c-17.11-4.87-31.78-14.37-42.21-27.39A99.2,99.2,0,0,0,279,126.49l28.13,7.92c24.91,19,35.48,50.28,28.15,82.08h0Zm64,18c-17.11-4.87-31.78-14.37-42.21-27.39A99.24,99.24,0,0,0,343,144.51l28.13,7.92C396.06,171.37,406.62,202.7,399.3,234.51Zm89.48-59.35c-23,12.55-48.64,15.54-72,8.31a95.66,95.66,0,0,0-19.55-34.1,95.66,95.66,0,0,0,34.44-18.91c23.73,6,44,22,57.15,44.7h0ZM443.33,77.79C433,108.74,407.71,130,376.58,133.18l-28.17-7.93A99.18,99.18,0,0,0,393,79.14C408.7,73.46,426.17,73,443.33,77.79Zm-64-18C369,90.72,343.71,112,312.58,115.16l-28.17-7.93A99.18,99.18,0,0,0,329,61.12C344.69,55.44,362.16,55,379.32,59.77Zm-64-18C305,72.7,279.71,93.94,248.59,97.15l-28.17-7.93A99.17,99.17,0,0,0,265,43.1C280.7,37.43,298.16,37,315.32,41.76ZM192.93,28.67c17.8-8.86,38.24-10.53,58.38-4.91C241,54.69,215.71,75.92,184.59,79.13l-29.76-8.38C162.34,52,175.62,37.29,192.93,28.67Z" transform="translate(0 -0.48)"/><path class="cls-1" d="M148.7,144.82a10,10,0,0,0-4.47,13.42l0,0.06A10,10,0,1,0,148.7,144.82Z" transform="translate(0 -0.48)"/></svg>