<svg id="Layer_1" data-name="Layer 1" xmlns="http://www.w3.org/2000/svg" viewBox="0 0 511.98 512"><defs><style>.cls-1{fill:#0070b9;}</style></defs><title>3</title><path class="cls-1" d="M484,128h-5.06l-2.19-15.3A47.64,47.64,0,0,0,429.81,72a31.52,31.52,0,0,1-19.62-6.88L391.78,50.4A47.58,47.58,0,0,0,362.17,40H338.94a31.25,31.25,0,0,1-24.52-11.78,74.56,74.56,0,0,0-116.83,0A31.25,31.25,0,0,1,173.06,40H149.83A47.58,47.58,0,0,0,120.22,50.4L101.8,65.13A31.52,31.52,0,0,1,82.19,72a47.64,47.64,0,0,0-46.93,40.7L33.07,128H28A28,28,0,0,0,0,156v24a28,28,0,0,0,23.2,27.58c-4,39.53-7.2,67.79-7.2,114.5a290.42,290.42,0,0,0,14.93,92,63.94,63.94,0,0,1-3.49,49.14C24.6,468.92,24,473.74,24,479.43c0,26.07,29.17,41.39,50.62,27.09a47,47,0,0,1,33.32-7.37C155.81,506.51,196.15,512,256,512c57.67,0,98.49-5.21,148.05-12.84a47,47,0,0,1,33.32,7.37C458,520.27,488,507.23,488,477.79a32.72,32.72,0,0,0-3.44-14.56,63.94,63.94,0,0,1-3.49-49.14c21.64-64.94,16.06-123.2,7.73-206.5A28,28,0,0,0,512,180V156a28,28,0,0,0-28-28h0ZM51.1,115A31.56,31.56,0,0,1,82.19,88,47.58,47.58,0,0,0,111.8,77.62l18.41-14.73A31.52,31.52,0,0,1,149.83,56h23.24a47.17,47.17,0,0,0,37-17.79,58.55,58.55,0,0,1,91.84,0,47.17,47.17,0,0,0,37,17.79h23.24a31.52,31.52,0,0,1,19.62,6.88L400.2,77.62A47.58,47.58,0,0,0,429.81,88a31.56,31.56,0,0,1,31.09,27l1.86,13H49.23ZM465.88,409a79.85,79.85,0,0,0,4.36,61.36,18,18,0,0,1,1.75,9,16.59,16.59,0,0,1-25.75,13.78,63,63,0,0,0-35-10.61c-19.45,0-126.84,27.51-281.29,3.75l-19.59-3a63,63,0,0,0-44.62,9.87A16.59,16.59,0,0,1,40,479.43c0-2.9,0-5.54,1.75-9A79.84,79.84,0,0,0,46.12,409,274.46,274.46,0,0,1,32,322.08c0-47.54,3.7-78.65,7.24-114.08h433.5c4,40.07,7.24,67.79,7.24,114.08A274.44,274.44,0,0,1,465.88,409h0ZM496,180a12,12,0,0,1-12,12H28a12,12,0,0,1-12-12V156a12,12,0,0,1,12-12H484a12,12,0,0,1,12,12v24Z" transform="translate(-0.01 0)"/><path class="cls-1" d="M368,272H336a88.11,88.11,0,0,0-80,51.36A88.11,88.11,0,0,0,176,272H144a8,8,0,0,0-8,8v24a88.1,88.1,0,0,0,88,88h24v32a8,8,0,0,0,16,0V392h24a88.1,88.1,0,0,0,88-88V280A8,8,0,0,0,368,272ZM152,304V288h24a72.08,72.08,0,0,1,72,72v6.37L197.27,322a8,8,0,1,0-10.53,12l48,42H224a72.08,72.08,0,0,1-72-72h0Zm208,0a72.08,72.08,0,0,1-72,72H277.29l48-42a8,8,0,1,0-10.53-12L264,366.36V360a72.08,72.08,0,0,1,72-72h24v16h0Z" transform="translate(-0.01 0)"/><path class="cls-1" d="M239.39,100.95C236,92.82,224,95.42,224,104A8,8,0,1,0,239.39,100.95Z" transform="translate(-0.01 0)"/><path class="cls-1" d="M247.39,68.95A8,8,0,1,0,236.94,79.4,8,8,0,0,0,247.39,68.95Z" transform="translate(-0.01 0)"/><path class="cls-1" d="M207.39,76.95A8,8,0,1,0,200,88a8,8,0,0,0,7.39-11.06h0Z" transform="translate(-0.01 0)"/><path class="cls-1" d="M183.39,100.95a8,8,0,1,0-10.45,10.45A8,8,0,0,0,183.39,100.95Z" transform="translate(-0.01 0)"/><path class="cls-1" d="M135.4,100.95a8,8,0,1,0-5.83,10.9A8,8,0,0,0,135.4,100.95Z" transform="translate(-0.01 0)"/><path class="cls-1" d="M167.84,78.45a8,8,0,0,0-10.9-5.83C149,75.94,151.24,88,160,88a8,8,0,0,0,7.84-9.56h0Z" transform="translate(-0.01 0)"/><path class="cls-1" d="M287.39,100.95a8,8,0,1,0-2.95,9.71,8,8,0,0,0,2.95-9.71h0Z" transform="translate(-0.01 0)"/><path class="cls-1" d="M279.84,70.45a8,8,0,1,0-12.28,8.21C273.43,82.61,281.33,77.36,279.84,70.45Z" transform="translate(-0.01 0)"/><path class="cls-1" d="M319.39,76.95A8,8,0,1,0,312,88,8,8,0,0,0,319.39,76.95Z" transform="translate(-0.01 0)"/><path class="cls-1" d="M343.39,100.95a8,8,0,1,0-10.45,10.45A8,8,0,0,0,343.39,100.95Z" transform="translate(-0.01 0)"/><path class="cls-1" d="M391.38,100.95a8,8,0,1,0-10.45,10.45A8,8,0,0,0,391.38,100.95Z" transform="translate(-0.01 0)"/><path class="cls-1" d="M359.39,76.95a8,8,0,1,0-11.83,9.71C354.09,91.05,362.42,84.23,359.39,76.95Z" transform="translate(-0.01 0)"/></svg>