<svg id="Capa_1" data-name="Capa 1" xmlns="http://www.w3.org/2000/svg" viewBox="0 0 415.02 512"><defs><style>.cls-1{fill:#0070b9;}</style></defs><title>4</title><path class="cls-1" d="M296,232a10,10,0,1,0,10,10A10,10,0,0,0,296,232Z" transform="translate(-48.49)"/><path class="cls-1" d="M256,172a10,10,0,1,0,10,10A10,10,0,0,0,256,172Z" transform="translate(-48.49)"/><path class="cls-1" d="M136,432a10,10,0,1,0,10,10A10,10,0,0,0,136,432Z" transform="translate(-48.49)"/><path class="cls-1" d="M454.42,407.68L326,179.38V58.29A30,30,0,0,0,316,0H196a30,30,0,0,0-10,58.29V179.38L57.58,407.68a70,70,0,0,0,61,104.32H393.41A70,70,0,0,0,454.42,407.68ZM204.72,186.9A10,10,0,0,0,206,182V60h10a10,10,0,0,0,0-20H196a10,10,0,0,1,0-20H316a10,10,0,0,1,0,20H296a10,10,0,0,0,0,20h10V182a10,10,0,0,0,1.28,4.9l58.94,104.79A192.82,192.82,0,0,0,261.4,313.12C219,335,171.88,338.9,127.4,324.35ZM436.57,467.24A49.52,49.52,0,0,1,393.41,492H118.59A50,50,0,0,1,75,417.48l42.41-75.39a191.64,191.64,0,0,0,63.44,10.81q4.8,0,9.61-.24a194.15,194.15,0,0,0,80.12-21.78c33.79-17.5,71-23.54,107.78-17.58L437,417.48A49.53,49.53,0,0,1,436.57,467.24Z" transform="translate(-48.49)"/><path class="cls-1" d="M216,232a30,30,0,1,0,30,30A30,30,0,0,0,216,232Zm0,40a10,10,0,1,1,10-10A10,10,0,0,1,216,272Z" transform="translate(-48.49)"/><path class="cls-1" d="M376,432H176a10,10,0,0,0,0,20H376A10,10,0,0,0,376,432Z" transform="translate(-48.49)"/></svg>