<svg id="Layer_1" data-name="Layer 1" xmlns="http://www.w3.org/2000/svg" viewBox="0 0 512 512"><defs><style>.cls-1{fill:#0070b9;}</style></defs><title>5</title><path class="cls-1" d="M103.67,172a10,10,0,1,0,7.07,2.93A10,10,0,0,0,103.67,172Z" transform="translate(0 0)"/><path class="cls-1" d="M64.8,118.4A102.59,102.59,0,0,1,8.4,147.29,10,10,0,1,0,11.61,167a122.48,122.48,0,0,0,67.33-34.49,63.51,63.51,0,0,1,14.73-11V142a10,10,0,0,0,20,0V10a10,10,0,0,0-20,0V57.72A122.57,122.57,0,0,0,36.51,90.11a63.26,63.26,0,0,1-29,16.54,10,10,0,1,0,5,19.37,83.25,83.25,0,0,0,38.17-21.77,102.67,102.67,0,0,1,43-25.8V99.59A83.52,83.52,0,0,0,64.8,118.4Z" transform="translate(0 0)"/><path class="cls-1" d="M503.61,436.81a102.58,102.58,0,0,1-56.4-28.89A83.46,83.46,0,0,0,418,389V367.88a102.68,102.68,0,0,1,43.35,25.9,83.3,83.3,0,0,0,38.17,21.77,10,10,0,0,0,5-19.37,63.24,63.24,0,0,1-29-16.54A122.56,122.56,0,0,0,418,347.17V309.78a122.72,122.72,0,0,0,57.49-32.48,63.25,63.25,0,0,1,29-16.54,10,10,0,0,0-5-19.37,83.26,83.26,0,0,0-38.17,21.77,103.59,103.59,0,0,1-146.32,0,83.6,83.6,0,0,0-29-18.86V223.19A102.79,102.79,0,0,1,329.16,249a83.56,83.56,0,0,0,118,0,102.58,102.58,0,0,1,56.4-28.89,10,10,0,0,0-3.21-19.74,122.48,122.48,0,0,0-67.33,34.49A63.23,63.23,0,0,1,418,246V121.4a63.29,63.29,0,0,1,15.06,11.14A122.48,122.48,0,0,0,500.39,167a10,10,0,1,0,3.21-19.74,102.59,102.59,0,0,1-56.4-28.89A83.46,83.46,0,0,0,418,99.47V78.35a102.68,102.68,0,0,1,43.35,25.9A83.3,83.3,0,0,0,499.51,126a10,10,0,0,0,5-19.37,63.26,63.26,0,0,1-29-16.54A122.53,122.53,0,0,0,418,57.64V10a10,10,0,1,0-20,0V252.66a64,64,0,0,1-20-.07V66.29c0-.31,0-0.62,0-0.93V10a10,10,0,1,0-20,0V57.74a122.57,122.57,0,0,0-57.12,32.38A63.48,63.48,0,0,1,286,101.18V10a10,10,0,1,0-20,0v97.88a64.07,64.07,0,0,1-20,0V10a10,10,0,1,0-20,0v91.18a63.46,63.46,0,0,1-14.88-11.07,122.52,122.52,0,0,0-57.45-32.46V10a10,10,0,1,0-20,0V252.66a64,64,0,0,1-20-.05V222a10,10,0,0,0-20,0v23.84a63.25,63.25,0,0,1-14.73-11,122.48,122.48,0,0,0-67.33-34.49A10,10,0,1,0,8.4,220.13,102.62,102.62,0,0,1,64.8,249a83.55,83.55,0,0,0,118,0A102.7,102.7,0,0,1,226,223.17V244.3a83.53,83.53,0,0,0-29,18.86,103.58,103.58,0,0,1-146.32,0,83.3,83.3,0,0,0-38.17-21.77,10,10,0,1,0-5,19.37,63.26,63.26,0,0,1,29,16.54,122.72,122.72,0,0,0,57.16,32.39v37.56a122.59,122.59,0,0,0-57.16,32.39,63.26,63.26,0,0,1-29,16.54,10,10,0,1,0,5,19.38,83.32,83.32,0,0,0,38.17-21.77,102.68,102.68,0,0,1,43-25.8v21.14a83.51,83.51,0,0,0-28.87,18.8A102.59,102.59,0,0,1,8.4,436.81,10,10,0,0,0,10,456.68a10.37,10.37,0,0,0,1.62-.13,122.48,122.48,0,0,0,67.33-34.49,63.4,63.4,0,0,1,14.73-11V502a10,10,0,0,0,20,0V313q5.06,0.42,10.15.42,4.93,0,9.85-.4V502a10,10,0,0,0,20,0V410.95a63.49,63.49,0,0,1,15,11.12A122.5,122.5,0,0,0,226,454.54V502a10,10,0,1,0,20,0V457.77c3.31,0.26,6.64.4,10,.4s6.69-.14,10-0.4V502a10,10,0,1,0,20,0V454.54a122.53,122.53,0,0,0,57.3-32.47A63.45,63.45,0,0,1,358,411.13V502a10,10,0,1,0,20,0V355.82c0-.31,0-0.62,0-0.93V313c3.39,0.28,6.79.43,10.18,0.43s6.55-.14,9.82-0.39V462a10,10,0,0,0,20,0V410.93a63.49,63.49,0,0,1,15.07,11.14,122.48,122.48,0,0,0,67.33,34.49,10.33,10.33,0,0,0,1.62.13A10,10,0,0,0,503.61,436.81ZM256,398.19a64.35,64.35,0,0,1-10-.79V168.23q5,0.4,10,.41t10-.41V397.41A64.27,64.27,0,0,1,256,398.19Zm87.3-163.32A122.76,122.76,0,0,0,286,202.45V165a122.72,122.72,0,0,0,57.3-32.43A63.45,63.45,0,0,1,358,121.6V245.82A63.28,63.28,0,0,1,343.3,234.87ZM197,104.25a82.89,82.89,0,0,0,59,24.41h0a82.91,82.91,0,0,0,59-24.41,102.61,102.61,0,0,1,43-25.79V99.61a83.52,83.52,0,0,0-28.84,18.78,103.58,103.58,0,0,1-146.32,0,83.47,83.47,0,0,0-29.17-18.92V78.36A102.68,102.68,0,0,1,197,104.25ZM168.7,234.88a63.44,63.44,0,0,1-15,11.13V121.41a63.62,63.62,0,0,1,15,11.13A122.68,122.68,0,0,0,226,165v37.48A122.55,122.55,0,0,0,168.7,234.88Zm42.42,42.43a63.47,63.47,0,0,1,14.88-11V390.71a63.56,63.56,0,0,1-14.88-11.07,122.51,122.51,0,0,0-57.45-32.46V309.77A122.72,122.72,0,0,0,211.12,277.3Zm118,130.62a103.58,103.58,0,0,1-146.32,0A83.45,83.45,0,0,0,153.67,389V367.89A102.69,102.69,0,0,1,197,393.78a83.55,83.55,0,0,0,118,0A102.74,102.74,0,0,1,358,368v21.14A83.57,83.57,0,0,0,329.16,407.92ZM358,347.26a122.54,122.54,0,0,0-57.12,32.38A63.58,63.58,0,0,1,286,390.71V266.26a63.59,63.59,0,0,1,14.88,11A122.65,122.65,0,0,0,358,309.68v37.58Z" transform="translate(0 0)"/></svg>