<svg id="Capa_1" data-name="Capa 1" xmlns="http://www.w3.org/2000/svg" viewBox="0 0 508.22 512"><defs><style>.cls-1{fill:#0070b9;}</style></defs><title>7</title><path class="cls-1" d="M174.82,275.11a7.5,7.5,0,1,0,0-15H141V237.62a7.5,7.5,0,0,0-15,0v22.49H99.6V173.5a9.7,9.7,0,0,0-9.76-9.84H12.94c-6.19,0-11,5.36-11,12.21V499.79c0,6.85,4.85,12.21,11,12.21H171.27c6.09,0,11-5.48,11-12.21V422a7.5,7.5,0,0,0-15,0v75H16.89V178.66H84.6v18.87H59.27a7.5,7.5,0,0,0,0,15H84.6v27.23H61.87a7.5,7.5,0,1,0,0,15H84.6V321a7.5,7.5,0,0,0,7.5,7.5h75.21v58.62a7.5,7.5,0,0,0,15,0V323.38a10,10,0,0,0-10.07-9.84H141V275.11h33.86ZM126,313.54H99.6V275.11H126v38.42h0Z" transform="translate(-1.89 0)"/><path class="cls-1" d="M430.57,346.89V242h0V137.09h0V92.14h14.61a12.37,12.37,0,0,0,12.36-12.35V79.09H496.4a14.53,14.53,0,0,0,8.74-2.86,7.53,7.53,0,0,0,1.21-1l0.24-.27a11.72,11.72,0,0,0,3.51-8.26V25.45C510.11,18.61,504,13,496.4,13H457.54V12.35A12.37,12.37,0,0,0,445.18,0H349.8a12.37,12.37,0,0,0-12.36,12.35V13H126.2c-7.57,0-13.73,5.57-13.73,12.41V66.68c0,6.84,6.16,12.41,13.73,12.41h35.69v25.86l-27.74,29.49h-6.85a11.91,11.91,0,0,0-11.9,11.9V181.4a11.93,11.93,0,0,0,11.9,11.92h84.17a11.94,11.94,0,0,0,11.93-11.92V146.33a11.93,11.93,0,0,0-11.93-11.9h-6.83l-27.75-29.49V79.09H337.44v0.69A12.37,12.37,0,0,0,349.8,92.14H364.4v299.7H340.9A18.86,18.86,0,0,0,322,410.67v48.92h-8.23a26.27,26.27,0,0,0-26.26,26.22v13.67A12.56,12.56,0,0,0,300.12,512H497.23a12.54,12.54,0,0,0,12.53-12.52V485.81a26.26,26.26,0,0,0-26.23-26.22H475.3V410.67a18.88,18.88,0,0,0-18.88-18.83H430.57V346.89h0ZM495.11,28v25.8L468.53,28h26.58ZM457.54,38.28l26.59,25.82H457.54V38.28ZM127.46,64.09V28h4.16l37.12,36H127.46Zm80.93,85.35v28.89h-78V149.44h78Zm-24.35-15h-29.3l14.65-15.57ZM153.15,28h68.16l-34.08,33.1Zm80.41,36.05H205.72L239.8,31l34.08,33.1H233.56ZM258.29,28h68.16l-34.08,33.1Zm65,36.05h-12.4l26.58-25.81V64.09H323.25ZM456.42,406.84a3.86,3.86,0,0,1,3.88,3.83v48.92H416.64a7.5,7.5,0,0,0,0,15h66.9a11.24,11.24,0,0,1,11.23,11.22V497H302.55V485.81a11.25,11.25,0,0,1,11.26-11.22h66.5a7.5,7.5,0,0,0,0-15H337V410.67a3.89,3.89,0,0,1,3.85-3.83H456.42ZM412.59,137.09l-33.19,34v-68Zm-22.9-45h25.87v26.52Zm25.87,63.38v68l-33.19-34Zm-3,86.47L379.4,276V208Zm3,18.43v68l-33.19-34Zm-3,86.47-33.19,34v-68Zm3,18.43v26.52H389.7Zm7.5-288.18H352.43V15h90.11V77.14H423.07Z" transform="translate(-1.89 0)"/><path class="cls-1" d="M149.34,362.16a11.21,11.21,0,0,0-11.19-11.21H46.06a11.23,11.23,0,0,0-11.22,11.21v30.59A11.23,11.23,0,0,0,46.06,404h92.09a11.21,11.21,0,0,0,11.19-11.21V362.16ZM84.6,389H49.84v-23H84.61v23h0Zm49.74,0H99.6v-23h34.74v23h0Z" transform="translate(-1.89 0)"/><path class="cls-1" d="M138.15,426.37H46.06a11.23,11.23,0,0,0-11.22,11.21v30.59a11.23,11.23,0,0,0,11.22,11.21h92.09a11.21,11.21,0,0,0,11.19-11.21V437.58a11.21,11.21,0,0,0-11.19-11.21h0Zm-53.55,38H49.84v-23H84.61v23h0Zm49.74,0H99.6v-23h34.74v23h0Z" transform="translate(-1.89 0)"/></svg>