<svg width="65" height="65" viewBox="0 0 65 65" fill="none" xmlns="http://www.w3.org/2000/svg">
<path d="M48.0618 45.4763C47.483 45.0874 46.6979 45.2415 46.3086 45.8204C45.6504 46.8003 44.9257 47.7201 44.1455 48.5792C42.0703 46.8958 39.745 45.5385 37.2485 44.5342C37.3482 44.0949 37.4445 43.6499 37.534 43.1941C37.6684 42.5095 37.2224 41.8454 36.5378 41.711C35.8531 41.5767 35.1891 42.0227 35.0547 42.7071C34.9892 43.041 34.9194 43.3688 34.8478 43.6935C32.1731 42.8912 29.3431 42.473 26.4424 42.473C23.5509 42.473 20.7174 42.8938 18.0356 43.7001C17.3624 40.6481 16.9699 37.2779 16.8942 33.7632H31.0208C31.7187 33.7632 32.2841 33.1977 32.2841 32.4999C32.2841 31.802 31.7187 31.2365 31.0208 31.2365H16.8942C16.9756 27.4508 17.4243 23.8323 18.1965 20.5993C21.0042 21.4935 23.9914 21.9596 27.0572 21.9596C29.6984 21.9596 32.2909 21.6079 34.7639 20.9329C34.865 21.3727 34.9615 21.8201 35.0515 22.2771C35.1864 22.9615 35.8494 23.4068 36.5351 23.2728C37.2195 23.138 37.6654 22.4738 37.5308 21.7891C37.4211 21.2323 37.303 20.689 37.1784 20.1569C39.67 19.2302 42.0046 17.9591 44.0997 16.371C44.8742 17.2186 45.5943 18.1257 46.2495 19.0917C46.6413 19.6693 47.4269 19.8192 48.0042 19.4281C48.5816 19.0364 48.7322 18.2508 48.3406 17.6734C43.4065 10.3996 35.2203 6.05713 26.4424 6.05713C11.862 6.0573 0 17.9195 0 32.4999C0 47.0802 11.862 58.9424 26.4424 58.9424C35.2674 58.9424 43.478 54.5638 48.4059 47.2293C48.795 46.6502 48.6411 45.8654 48.0618 45.4763ZM42.3376 50.3699C39.4911 52.9033 36.083 54.7184 32.3945 55.6645C34.0956 53.6161 35.5421 50.6677 36.6111 47.0032C38.6735 47.8645 40.6 48.9937 42.3376 50.3699ZM26.4424 44.9996C29.1333 44.9996 31.7551 45.3928 34.227 46.1459C32.4216 52.4089 29.4616 56.4158 26.4424 56.4158C24.1216 56.4158 21.7545 54.0062 19.9483 49.8053C19.4623 48.6752 19.0308 47.4508 18.6551 46.1513C21.1341 45.3945 23.76 44.9996 26.4424 44.9996ZM17.6271 50.8035C18.4692 52.7618 19.4328 54.3915 20.4881 55.6656C16.7474 54.7036 13.3586 52.8558 10.5575 50.3616C12.2907 48.9927 14.2169 47.8687 16.2761 47.0091C16.6704 48.3538 17.1208 49.6254 17.6271 50.8035ZM27.0574 19.4331C24.2176 19.4331 21.4545 18.996 18.8638 18.1592C19.1888 17.1152 19.5496 16.1221 19.9484 15.1944C21.7547 10.9935 24.1216 8.58393 26.4426 8.58393C29.4023 8.58393 32.3064 12.4365 34.1203 18.4904C31.8565 19.1102 29.4803 19.4331 27.0574 19.4331ZM16.4976 17.2617C14.5954 16.429 12.8134 15.3661 11.195 14.089C13.867 11.8723 17.0272 10.2246 20.4883 9.33434C19.4328 10.6084 18.4692 12.2381 17.6273 14.1964C17.2133 15.1594 16.8371 16.1854 16.4976 17.2617ZM32.3951 9.33687C36.0559 10.2769 39.4423 12.073 42.2766 14.5774C40.5203 15.8662 38.5844 16.9149 36.5248 17.7034C35.4652 14.1754 34.0504 11.3304 32.3951 9.33687ZM9.31789 15.8236C11.2806 17.4216 13.4675 18.7287 15.8127 19.7191C14.9508 23.2216 14.4518 27.1439 14.3671 31.2367H2.55998C2.87278 25.257 5.39285 19.8531 9.31789 15.8236ZM2.55998 33.7632H14.3671C14.4459 37.5691 14.8817 41.2294 15.6353 44.5405C13.142 45.5434 10.8187 46.8988 8.74889 48.5741C5.14962 44.6159 2.85745 39.4493 2.55998 33.7632Z" fill="white"/>
<path d="M46.2657 25.2866C42.0644 25.2866 38.6462 28.7048 38.6462 32.9061C38.6462 33.6039 39.2117 34.1694 39.9096 34.1694C40.6074 34.1694 41.1729 33.6039 41.1729 32.9061C41.1729 30.0978 43.4574 27.8133 46.2657 27.8133C46.9636 27.8133 47.529 27.2478 47.529 26.5499C47.529 25.8521 46.9636 25.2866 46.2657 25.2866Z" fill="white"/>
<path d="M64.6299 46.282L59.0235 40.6756C58.5299 40.1824 57.7302 40.1824 57.2368 40.6756C56.7434 41.1691 56.7434 41.9689 57.2368 42.4622L61.95 47.1752L60.5346 48.5907L53.5575 41.6135C53.8119 41.3997 54.0597 41.1758 54.2975 40.938C56.4428 38.7927 57.6242 35.9402 57.6242 32.9062C57.6242 29.8722 56.4428 27.0198 54.2975 24.8743C52.1522 22.7289 49.2996 21.5476 46.2657 21.5476C43.2317 21.5476 40.3793 22.7291 38.2338 24.8743C36.0884 27.0196 34.9071 29.8722 34.9071 32.9062C34.9071 35.9402 36.0886 38.7926 38.2338 40.938C40.3791 43.0834 43.2317 44.2647 46.2657 44.2647C48.0828 44.2647 49.8336 43.8379 51.4077 43.037L59.6413 51.2706C59.8881 51.5172 60.2115 51.6405 60.5347 51.6405C60.858 51.6405 61.1814 51.5172 61.4282 51.2706L64.6302 48.0685C65.1233 47.5753 65.1233 46.7754 64.6299 46.282ZM40.0207 39.1515C38.3526 37.4834 37.4339 35.2655 37.4339 32.9065C37.4339 30.5475 38.3526 28.3296 40.0207 26.6615C41.6888 24.9934 43.9066 24.0747 46.2657 24.0747C48.6247 24.0747 50.8426 24.9934 52.5107 26.6615C54.1787 28.3296 55.0974 30.5475 55.0974 32.9065C55.0974 35.2655 54.1787 37.4834 52.5107 39.1515C50.8426 40.8196 48.6247 41.7383 46.2657 41.7383C43.9066 41.7383 41.6888 40.8196 40.0207 39.1515Z" fill="white"/>
</svg>
