<svg width="65" height="65" viewBox="0 0 65 65" fill="none" xmlns="http://www.w3.org/2000/svg">
<g clip-path="url(#clip0)">
<path d="M32.5 20.4693C38.1434 20.4693 42.7346 15.8781 42.7346 10.2346C42.7346 4.59121 38.1434 0 32.5 0C26.8566 0 22.2654 4.59121 22.2654 10.2346C22.2654 15.8781 26.8566 20.4693 32.5 20.4693ZM32.5 2.07447C36.9995 2.07447 40.6601 5.73507 40.6601 10.2346C40.6601 14.7341 36.9995 18.3949 32.5 18.3949C28.0005 18.3949 24.3399 14.7341 24.3399 10.2346C24.3399 5.73507 28.0005 2.07447 32.5 2.07447Z" fill="white"/>
<path d="M32.5 24.6182C40.7719 24.6182 47.5637 31.0753 48.099 39.214H24.1274C23.5546 39.214 23.0902 39.6783 23.0902 40.2512C23.0902 40.8242 23.5546 41.2885 24.1274 41.2885H49.1704C49.7432 41.2885 50.2076 40.8242 50.2076 40.2512C50.2076 30.4873 42.2641 22.5437 32.5 22.5437C22.7359 22.5437 14.7923 30.4873 14.7923 40.2512C14.7923 40.8242 15.2567 41.2885 15.8296 41.2885H19.9785C20.5513 41.2885 21.0157 40.8242 21.0157 40.2512C21.0157 39.6783 20.5513 39.214 19.9785 39.214H16.9008C17.4363 31.0753 24.2283 24.6182 32.5 24.6182Z" fill="white"/>
<path d="M19.4181 52.2368L13.7281 51.2819L11.0616 46.1656C10.8829 45.8227 10.5285 45.6077 10.1418 45.6077C9.75512 45.6077 9.40067 45.8227 9.22199 46.1656L6.55546 51.2819L0.865475 52.2368C0.484188 52.3009 0.170114 52.5715 0.0506242 52.9393C-0.0688652 53.3068 0.0261455 53.7105 0.296933 53.9863L4.33896 58.1034L3.48885 63.81C3.43187 64.1926 3.59229 64.5748 3.90512 64.802C4.21768 65.0294 4.63105 65.0637 4.97707 64.8914L10.1417 62.3195L15.3063 64.8914C15.4526 64.9641 15.6109 65.0001 15.7685 65.0001C15.9838 65.0001 16.1977 64.9331 16.3782 64.8019C16.691 64.5747 16.8515 64.1924 16.7945 63.8099L15.9444 58.1033L19.9864 53.9862C20.2572 53.7104 20.3522 53.3067 20.2327 52.9391C20.1135 52.5715 19.7994 52.3009 19.4181 52.2368ZM14.1024 57.0188C13.8746 57.2508 13.7687 57.5764 13.8167 57.8982L14.4496 62.1471L10.6043 60.2321C10.3132 60.087 9.97073 60.087 9.67947 60.2321L5.83396 62.1471L6.46695 57.8982C6.51494 57.5764 6.40915 57.2507 6.18123 57.0188L3.17159 53.9533L7.40821 53.2421C7.72906 53.1882 8.00607 52.987 8.1564 52.6985L10.1418 48.8889L12.1272 52.6985C12.2775 52.987 12.5545 53.1882 12.8754 53.2421L17.112 53.9533L14.1024 57.0188Z" fill="white"/>
<path d="M41.7763 52.2368L36.0864 51.2819L33.4198 46.1656C33.2411 45.8227 32.8867 45.6077 32.5 45.6077C32.1133 45.6077 31.7589 45.8227 31.5802 46.1656L28.9137 51.2819L23.2237 52.2368C22.8424 52.3009 22.5283 52.5715 22.4088 52.9393C22.2893 53.3068 22.3843 53.7105 22.6551 53.9863L26.6972 58.1034L25.8472 63.81C25.7902 64.1926 25.9506 64.5748 26.2635 64.802C26.576 65.0294 26.9894 65.0637 27.3354 64.8914L32.5 62.3195L37.6646 64.8914C37.8109 64.9641 37.9693 65.0001 38.1268 65.0001C38.3421 65.0001 38.5561 64.9331 38.7366 64.8019C39.0494 64.5747 39.2098 64.1924 39.1528 63.8099L38.3029 58.1033L42.3449 53.9862C42.6157 53.7104 42.7107 53.3067 42.5912 52.9391C42.4717 52.5715 42.1576 52.3009 41.7763 52.2368ZM36.4606 57.0188C36.2328 57.2508 36.1269 57.5764 36.1749 57.8982L36.8077 62.1471L32.9623 60.2321C32.8167 60.1596 32.6584 60.1234 32.5 60.1234C32.3417 60.1234 32.1832 60.1596 32.0377 60.2321L28.1923 62.1471L28.8252 57.8982C28.8731 57.5764 28.7673 57.2507 28.5394 57.0188L25.5298 53.9533L29.7664 53.2421C30.0873 53.1882 30.3643 52.987 30.5146 52.6985L32.5 48.8891L34.4854 52.6986C34.6357 52.9871 34.9128 53.1883 35.2336 53.2423L39.4702 53.9534L36.4606 57.0188Z" fill="white"/>
<path d="M64.9492 52.9393C64.8297 52.5715 64.5158 52.3009 64.1344 52.2368L58.4444 51.2819L55.7779 46.1656C55.5992 45.8227 55.2447 45.6077 54.858 45.6077C54.4714 45.6077 54.1169 45.8227 53.9382 46.1656L51.2717 51.2819L45.5817 52.2368C45.2004 52.3009 44.8864 52.5715 44.7669 52.9393C44.6474 53.3068 44.7424 53.7105 45.0132 53.9863L49.0552 58.1034L48.2051 63.81C48.1481 64.1926 48.3085 64.5748 48.6214 64.802C48.9339 65.0294 49.3473 65.0637 49.6933 64.8914L54.8579 62.3195L60.0225 64.8914C60.1688 64.9641 60.3272 65.0001 60.4847 65.0001C60.7 65.0001 60.914 64.9331 61.0944 64.8019C61.4073 64.5747 61.5677 64.1924 61.5107 63.8099L60.6606 58.1033L64.7026 53.9862C64.9737 53.7105 65.0687 53.3068 64.9492 52.9393ZM58.8188 57.0188C58.591 57.2508 58.485 57.5764 58.533 57.8982L59.166 62.1471L55.3205 60.2321C55.1749 60.1596 55.0165 60.1234 54.8582 60.1234C54.6997 60.1234 54.5413 60.1596 54.3959 60.2321L50.5505 62.1471L51.1835 57.8982C51.2315 57.5764 51.1257 57.2507 50.8978 57.0188L47.8881 53.9533L52.1247 53.2421C52.4456 53.1882 52.7226 52.987 52.8729 52.6985L54.8583 48.8889L56.8437 52.6985C56.9941 52.987 57.2711 53.1882 57.5919 53.2421L61.8285 53.9533L58.8188 57.0188Z" fill="white"/>
<path d="M32.5 14.9375C33.8596 14.9375 35.1531 14.3467 36.0487 13.3165C36.4245 12.8842 36.3788 12.229 35.9465 11.8531C35.5141 11.4773 34.8589 11.523 34.4832 11.9553C33.9819 12.5322 33.2588 12.863 32.5 12.863C31.7412 12.863 31.0183 12.5322 30.5168 11.9553C30.1409 11.523 29.4858 11.4774 29.0535 11.8531C28.6212 12.229 28.5754 12.8842 28.9513 13.3165C29.8469 14.3465 31.1404 14.9375 32.5 14.9375Z" fill="white"/>
</g>
<defs>
<clipPath id="clip0">
<rect width="65" height="65" fill="white"/>
</clipPath>
</defs>
</svg>
