<svg width="65" height="65" viewBox="0 0 65 65" fill="none" xmlns="http://www.w3.org/2000/svg">
<path d="M34.3976 38.4586C33.0568 36.5615 30.9033 35.4023 28.5942 35.3146C28.5454 35.3091 28.4958 35.3061 28.4456 35.3061C25.5085 35.3061 23.0816 33.0864 22.7506 30.2368C23.5962 29.621 24.3765 28.8395 25.068 27.9033C26.4664 26.0101 27.3741 23.6444 27.7106 21.0862C27.8137 20.9741 27.9006 20.8436 27.9629 20.6951C28.555 19.2851 28.8552 17.7798 28.8552 16.221C28.8552 10.2261 24.3228 5.34912 18.7518 5.34912C17.311 5.34912 15.9132 5.67641 14.5918 6.32222C14.0979 6.36386 13.6138 6.45272 13.149 6.58729C8.49162 7.93287 5.85926 13.5642 7.28126 19.1404C7.42433 19.7014 7.60626 20.2531 7.82233 20.7801C7.88124 20.9241 7.96375 21.0505 8.061 21.161C8.59738 25.0993 10.4614 28.3761 13.0108 30.2297C12.6831 33.0829 10.2544 35.3063 7.31477 35.3063C7.26958 35.3063 7.22489 35.3087 7.18071 35.313C3.19731 35.4538 0 38.736 0 42.753V50.7688C0 51.5167 0.6062 52.1229 1.35408 52.1229H25.2785C26.0262 52.1229 26.6326 51.5167 26.6326 50.7688C26.6326 50.0209 26.0262 49.4147 25.2785 49.4147H2.70803V42.7529C2.70803 40.1395 4.83398 38.0137 7.44718 38.0137C7.49238 38.0137 7.53707 38.0113 7.58125 38.007C8.55662 37.9765 9.49062 37.7803 10.3562 37.4447L16.7669 46.6974C17.0198 47.0624 17.4357 47.2804 17.8799 47.2804C18.3241 47.2804 18.74 47.0625 18.9929 46.6974L25.4038 37.4447C26.2695 37.7803 27.2033 37.9765 28.1787 38.007C28.2229 38.0113 28.2676 38.0137 28.3128 38.0137C29.8495 38.0137 31.2976 38.7643 32.1861 40.0215C32.4499 40.3947 32.8681 40.594 33.293 40.594C33.5632 40.594 33.836 40.5133 34.0734 40.3456C34.6842 39.9142 34.8291 39.0692 34.3976 38.4586ZM13.9003 9.18843C14.2555 9.08585 14.6312 9.02492 15.017 9.00752C15.2158 8.99864 15.4098 8.94608 15.586 8.85353C16.5922 8.3249 17.6571 8.05677 18.7513 8.05677C22.7465 8.05677 26.0097 11.5726 26.1405 15.9484C25.3262 15.3327 24.3133 14.9667 23.2161 14.9667H16.1348C15.7821 14.9667 15.4472 14.856 15.1668 14.6466C14.9267 14.4675 14.7414 14.2271 14.6306 13.9507C14.3747 13.3141 13.7419 12.9165 13.0585 12.9597C12.3709 13.0037 11.7924 13.4816 11.6191 14.1481C11.2737 15.4751 10.6287 16.711 9.75189 17.7605C9.04958 13.8344 10.818 10.079 13.9003 9.18843ZM10.7249 20.6558C11.9075 19.5717 12.8646 18.2577 13.5329 16.8066C13.5375 16.81 13.5422 16.8135 13.5469 16.8169C14.2991 17.3783 15.1938 17.6749 16.1347 17.6749H23.216C24.0666 17.6749 24.8013 18.1725 25.15 18.8907C25.141 21.7036 24.3395 24.3311 22.8895 26.2939C21.5221 28.1449 19.743 29.1643 17.8797 29.1643C16.1553 29.1643 14.4764 28.2735 13.1524 26.6561C11.8679 25.0871 11.018 22.9751 10.7249 20.6558ZM17.8798 43.5487L12.698 36.0697C14.0881 34.9162 15.1014 33.3255 15.5299 31.5111C16.2844 31.7472 17.0712 31.8726 17.8797 31.8726C18.6838 31.8726 19.4713 31.7506 20.2308 31.515C20.6598 33.3276 21.6728 34.9168 23.0619 36.0696L17.8798 43.5487Z" fill="white"/>
<path d="M57.8196 42.8408C57.7754 42.8365 57.7307 42.8341 57.6855 42.8341C54.7444 42.8341 52.3148 40.6085 51.989 37.7531C53.6473 36.5455 55.0145 34.7349 55.9158 32.5329C56.0448 32.9549 56.375 33.2956 56.8094 33.4303C56.9414 33.4712 57.0765 33.4911 57.2102 33.4911C57.6205 33.4911 58.0176 33.3041 58.2788 32.9689C60.1679 30.5425 61.1499 27.3847 61.0443 24.0769C60.9405 20.832 59.7998 17.7858 57.832 15.4996C55.8174 13.1589 53.1577 11.8562 50.3403 11.8293C50.1908 11.8232 49.8193 11.836 49.7592 11.8397C48.3117 11.1831 46.7822 10.8764 45.2069 10.9264C41.9538 11.0304 38.9613 12.6518 36.7812 15.492C34.6626 18.2521 33.5623 21.8521 33.683 25.6292C33.7035 26.2692 33.754 26.8585 33.8358 27.4196C34.0563 29.0293 34.4997 30.5708 35.1537 32.0015C35.3617 32.4569 35.8042 32.7603 36.3038 32.7902C36.8019 32.8203 37.279 32.5721 37.5402 32.1449C37.6492 31.9668 37.7892 31.7448 37.9437 31.5272C38.5474 33.361 39.4702 35.0086 40.6418 36.3094C41.1416 36.8643 41.6814 37.347 42.2499 37.7587C41.9216 40.6112 39.4932 42.8339 36.5541 42.8339C36.5089 42.8339 36.4642 42.8363 36.42 42.8406C32.437 42.9818 29.2398 46.2641 29.2398 50.2809V58.2967C29.2398 59.0446 29.8461 59.6508 30.5939 59.6508H63.6456C64.3933 59.6508 64.9996 59.0446 64.9996 58.2967V50.2809C64.9999 46.2644 61.8026 42.9821 57.8196 42.8408ZM36.8306 28.6437C36.697 28.1222 36.5924 27.5873 36.5174 27.0408C36.4488 26.57 36.4072 26.08 36.39 25.5429C36.2892 22.3897 37.1911 19.4058 38.9296 17.1411C40.6064 14.9565 42.8664 13.7109 45.2935 13.6333C45.3746 13.6306 47.12 13.5324 48.9016 14.4302C49.1008 14.5305 49.3304 14.5771 49.5539 14.5707C49.5796 14.57 50.2746 14.5371 50.2948 14.5373C52.3286 14.5508 54.2763 15.5201 55.7796 17.2664C57.345 19.0854 58.2535 21.5348 58.3375 24.1637C58.3831 25.5915 58.1825 26.9795 57.7577 28.2565C57.6298 27.9155 57.4871 27.5797 57.33 27.2495C56.0227 24.468 53.8219 22.3134 51.1332 21.1827C50.7926 21.0395 50.4084 21.0416 50.0696 21.1886C49.7306 21.3355 49.4666 21.6146 49.3385 21.9611C49.1582 22.4481 48.9398 22.9226 48.689 23.3711C47.9801 24.6388 46.5508 25.3931 44.9615 25.3375C44.723 25.3293 44.4809 25.329 44.2422 25.3366C43.0713 25.374 41.9295 25.5972 40.8424 26.0021C39.7686 26.4073 37.9641 27.4241 36.8306 28.6437ZM40.1617 29.3807C40.6751 29.0367 41.2214 28.7535 41.7934 28.5373C42.5988 28.2374 43.4518 28.0711 44.3287 28.0431C44.5077 28.0372 44.689 28.0375 44.8677 28.0437C47.4822 28.1332 49.8464 26.8497 51.0526 24.6927C51.1267 24.56 51.1988 24.4253 51.2685 24.2893C52.5035 25.0502 53.5592 26.1225 54.3529 27.4241C54.346 27.4642 54.3402 27.5044 54.3369 27.5458C54.1292 30.115 53.2429 32.4727 51.8412 34.1848C50.5172 35.8023 48.8384 36.693 47.114 36.693C43.9262 36.6928 41.0904 33.6625 40.1617 29.3807ZM44.7705 39.0369C45.5326 39.2751 46.3185 39.4008 47.114 39.4008C47.9245 39.4008 48.7132 39.2746 49.4696 39.0372C50.0135 41.343 51.5045 43.2858 53.509 44.4321C52.7271 47.2574 50.1286 49.289 47.1202 49.289C44.1116 49.289 41.5132 47.2573 40.7315 44.4318C42.7357 43.2858 44.2267 41.3429 44.7705 39.0369ZM62.2919 56.943H31.9482V50.2812C31.9482 47.6681 34.0742 45.542 36.6874 45.542C36.7326 45.542 36.7773 45.5396 36.8214 45.5353C37.2877 45.5207 37.7449 45.4694 38.1894 45.3818C39.3656 49.2432 42.9644 51.9973 47.1201 51.9973C51.2758 51.9973 54.8745 49.2432 56.051 45.3819C56.4953 45.4695 56.9525 45.5208 57.4186 45.5353C57.4628 45.5396 57.5075 45.542 57.5527 45.542C60.1659 45.542 62.2919 47.668 62.2919 50.2812V56.943Z" fill="white"/>
</svg>
