<svg width="64" height="64" viewBox="0 0 64 64" fill="none" xmlns="http://www.w3.org/2000/svg">
<path d="M45.7813 30.0464C43.0587 30.0464 40.8511 27.8392 40.8511 25.1162C40.8511 22.3936 43.0587 20.186 45.7813 20.186C48.5043 20.186 50.7115 22.3936 50.7115 25.1162C50.7084 27.8381 48.5031 30.0433 45.7813 30.0464ZM45.7813 22.1583C44.1478 22.1583 42.8233 23.4827 42.8233 25.1162C42.8233 26.7505 44.1478 28.0742 45.7813 28.0742C47.4155 28.0742 48.7392 26.7505 48.7392 25.1162C48.7392 23.4827 47.4155 22.1583 45.7813 22.1583Z" fill="white"/>
<path d="M18.1728 30.0464C15.4502 30.0464 13.2427 27.8392 13.2427 25.1162C13.2427 22.3936 15.4502 20.186 18.1728 20.186C20.8958 20.186 23.103 22.3936 23.103 25.1162C23.0999 27.8381 20.8947 30.0433 18.1728 30.0464ZM18.1728 22.1583C16.5394 22.1583 15.2149 23.4827 15.2149 25.1162C15.2149 26.7505 16.5394 28.0742 18.1728 28.0742C19.8071 28.0742 21.1308 26.7505 21.1308 25.1162C21.1308 23.4827 19.8071 22.1583 18.1728 22.1583Z" fill="white"/>
<path d="M51.6976 36.3987L61.0973 27.8539C62.1968 26.8304 62.274 25.1139 61.2701 23.9963C60.2663 22.8786 58.5518 22.7709 57.4167 23.7547L50.3368 30.0464H40.3843L32.963 39.1178V14.2702H42.8233V18.2142H59.0699L56.7038 12.2979L59.0699 6.38205H47.7535V2.43799H30.9912V39.1178L23.5706 30.0464H13.6181L6.53819 23.7536C5.40239 22.7679 3.68595 22.8747 2.68132 23.9932C1.67592 25.112 1.75347 26.8296 2.8557 27.8539L12.257 36.3987V59.6267H2.3966V61.5989H61.5575V59.6267H51.6976V36.3987ZM47.7535 8.35389H56.1571L54.5799 12.2979L56.1571 16.242H44.7952V14.2702H47.7535V8.35389ZM32.963 4.40983H45.7813V12.2979H32.963V4.40983ZM22.1169 59.6267H19.159V45.8227H17.1867V59.6267H14.2288V35.5267L4.18325 26.3983C3.90046 26.1351 3.8503 25.7057 4.06404 25.3836C4.18904 25.1961 4.38889 25.0719 4.61227 25.0429C4.83565 25.0136 5.06095 25.0827 5.22955 25.232L12.8684 32.0183H22.6358L29.9676 40.9797C30.252 41.3192 30.2072 41.8246 29.8681 42.1093C29.5282 42.3933 29.0224 42.3485 28.7384 42.009L22.1169 34.2864V59.6267ZM39.8654 59.6267H24.0891V39.6109L27.2446 43.2887C28.1594 44.3543 29.7253 44.5684 30.8924 43.7876C30.929 43.7629 30.9607 43.7316 30.9966 43.7046V51.7386H32.9684V43.7065C33.0054 43.7347 33.0382 43.7679 33.0776 43.7937C34.2439 44.5692 35.8052 44.3543 36.718 43.2918L39.8654 39.6109V59.6267ZM49.7254 59.6267H46.7674V45.8227H44.7952V59.6267H41.8372V34.2864L35.2165 42.0121C34.9514 42.3192 34.4985 42.3798 34.1625 42.1529C33.9742 42.0291 33.8476 41.8304 33.8152 41.6074C33.7813 41.384 33.8434 41.1568 33.9869 40.9824L41.3187 32.0183H51.0865L58.7238 25.2289C58.8913 25.0773 59.1177 25.0074 59.3411 25.0387C59.568 25.0672 59.7701 25.1942 59.8943 25.3859C60.1065 25.7065 60.0545 26.134 59.7709 26.3944L49.7254 35.5267V59.6267Z" fill="white"/>
</svg>
