<svg width="60" height="60" viewBox="0 0 60 60" fill="none" xmlns="http://www.w3.org/2000/svg">
<g clip-path="url(#clip0)">
<path d="M13.9275 46.184C13.2803 46.184 12.7523 45.6593 12.7523 45.0121C12.7523 44.3649 13.2737 43.8402 13.9209 43.8402H13.9276C14.5748 43.8402 15.0995 44.3649 15.0995 45.0121C15.0995 45.6593 14.5747 46.184 13.9275 46.184Z" fill="white"/>
<path d="M58.2229 40.5547V30.437C58.2229 30.2918 58.1947 30.143 58.1415 30.0078L52.2819 15.118C52.1055 14.6699 51.673 14.3753 51.1914 14.3753H39.9596V9.45538C39.9596 8.80816 39.4349 8.28351 38.7878 8.28351H24.1918C23.5446 8.28351 23.02 8.80816 23.02 9.45538C23.02 10.1026 23.5446 10.6273 24.1918 10.6273H37.6159V14.3754H34.2768C33.6296 14.3754 33.1049 14.9 33.1049 15.5473V40.3104H18.6659C17.4573 39.0751 15.7784 38.3076 13.9242 38.3076C12.0701 38.3076 10.3913 39.0752 9.18258 40.3104H4.1209V23.4506H19.5587V25.3933C19.5587 25.8319 19.8035 26.2336 20.1932 26.4348C20.3625 26.5222 20.5468 26.5652 20.7305 26.5652C20.9695 26.5652 21.2074 26.4921 21.4096 26.3484L29.0696 20.9028C29.3789 20.683 29.5625 20.3271 29.5625 19.9478C29.5625 19.5684 29.3789 19.2125 29.0696 18.9927L21.4096 13.5471C21.0523 13.2932 20.5829 13.2598 20.1932 13.4609C19.8035 13.6619 19.5587 14.0638 19.5587 14.5023V16.445H4.1209V10.6273H13.6684C14.3156 10.6273 14.8403 10.1026 14.8403 9.45538C14.8403 8.80816 14.3156 8.28351 13.6684 8.28351H2.94902C2.3018 8.28351 1.77715 8.80816 1.77715 9.45538V40.5547C0.732539 41.0107 0 42.0561 0 43.2705V44.5163C0 46.1504 1.32293 47.4799 2.94902 47.4799H7.73426C8.71277 49.9586 11.1177 51.7165 13.9242 51.7165C16.7307 51.7165 19.1357 49.9586 20.1142 47.4799H38.2017C39.1802 49.9586 41.585 51.7165 44.3917 51.7165C47.1983 51.7165 49.603 49.9586 50.5816 47.4799H57.0511C58.6772 47.4799 60.0001 46.1504 60.0001 44.5163V43.2705C60 42.0561 59.2675 41.0107 58.2229 40.5547ZM4.1209 18.7888H20.7306C21.3778 18.7888 21.9025 18.2641 21.9025 17.6169V16.7732L26.3681 19.9478L21.9025 23.1224V22.2786C21.9025 21.6314 21.3778 21.1067 20.7306 21.1067H4.1209V18.7888ZM7.26785 45.1363H2.94902C2.6209 45.1363 2.34375 44.8524 2.34375 44.5165V43.2706C2.34375 42.9364 2.6209 42.6541 2.94902 42.6541H7.69113C7.41621 43.3881 7.2648 44.1825 7.2648 45.0122C7.2648 45.0537 7.26715 45.0948 7.26785 45.1363ZM13.9242 49.3727C11.5445 49.3727 9.60855 47.4165 9.60855 45.0121C9.60855 42.6076 11.5446 40.6513 13.9242 40.6513C16.3038 40.6513 18.24 42.6075 18.24 45.0121C18.24 47.4166 16.3038 49.3727 13.9242 49.3727ZM55.3304 29.2651H43.4475V21.6823H52.3464L55.3304 29.2651ZM35.4486 16.719H50.3931L51.424 19.3386H42.2756C41.6285 19.3386 41.1038 19.8633 41.1038 20.5105V30.4371C41.1038 31.0843 41.6285 31.609 42.2756 31.609H55.8791V34.7878H54.1543C53.5072 34.7878 52.9825 35.3124 52.9825 35.9597C52.9825 36.6069 53.5072 37.1315 54.1543 37.1315H55.8791V40.3104H49.1333C47.9248 39.0751 46.2458 38.3076 44.3917 38.3076C42.5375 38.3076 40.8586 39.0752 39.65 40.3104H35.4486V16.719ZM20.5806 45.1363C20.5813 45.0948 20.5837 45.0538 20.5837 45.0121C20.5837 44.1825 20.4322 43.3881 20.1574 42.654H38.1586C37.8838 43.3879 37.7323 44.1824 37.7323 45.0121C37.7323 45.0537 37.7346 45.0948 37.7354 45.1363H20.5806ZM44.3917 49.3727C42.012 49.3727 40.076 47.4165 40.076 45.0121C40.076 42.6076 42.0121 40.6513 44.3917 40.6513C46.7713 40.6513 48.7073 42.6075 48.7073 45.0121C48.7073 47.4166 46.7713 49.3727 44.3917 49.3727ZM57.6562 44.5165C57.6562 44.8524 57.3791 45.1363 57.051 45.1363H51.0479C51.0486 45.0948 51.0511 45.0538 51.0511 45.0121C51.0511 44.1825 50.8996 43.3881 50.6248 42.654H57.0511C57.3792 42.654 57.6564 42.9363 57.6564 43.2705V44.5165H57.6562Z" fill="white"/>
<path d="M44.395 43.8402H44.3883C43.7412 43.8402 43.2197 44.3649 43.2197 45.0121C43.2197 45.6593 43.7477 46.184 44.3949 46.184C45.042 46.184 45.5667 45.6593 45.5667 45.0121C45.5667 44.3649 45.0421 43.8402 44.395 43.8402Z" fill="white"/>
<path d="M8.26056 33.6022C7.61333 33.6022 7.08868 34.1269 7.08868 34.7741C7.08868 35.4213 7.61333 35.946 8.26056 35.946H14.0206C14.6678 35.946 15.1924 35.4213 15.1924 34.7741C15.1924 34.1269 14.6678 33.6022 14.0206 33.6022H8.26056Z" fill="white"/>
<path d="M18.7069 30.0317C18.7069 29.3845 18.1822 28.8599 17.535 28.8599H8.26056C7.61333 28.8599 7.08868 29.3845 7.08868 30.0317C7.08868 30.679 7.61333 31.2036 8.26056 31.2036H17.535C18.1822 31.2036 18.7069 30.679 18.7069 30.0317Z" fill="white"/>
<path d="M18.9301 10.6273H18.9334C19.5806 10.6273 20.1036 10.1026 20.1036 9.45538C20.1036 8.80816 19.5773 8.28351 18.9301 8.28351C18.2829 8.28351 17.7582 8.80816 17.7582 9.45538C17.7582 10.1026 18.2829 10.6273 18.9301 10.6273Z" fill="white"/>
</g>
<defs>
<clipPath id="clip0">
<rect width="60" height="60" fill="white"/>
</clipPath>
</defs>
</svg>
