<svg width="60" height="60" viewBox="0 0 60 60" fill="none" xmlns="http://www.w3.org/2000/svg">
<path d="M34.5046 42.2576C34.6993 41.8044 34.8076 41.3055 34.8076 40.7818C34.8076 38.7138 33.1252 37.0312 31.057 37.0312H29.4605H25.6815L27.4724 34.0186C27.9995 33.1319 28.1336 32.0563 27.8404 31.0673C27.547 30.0785 26.8481 29.2499 25.9232 28.7941C24.8821 28.2811 23.6423 28.2879 22.6069 28.8119C19.6398 30.3142 16.9398 32.3676 14.6845 34.819C14.4839 34.4611 14.1015 34.2187 13.6621 34.2187H3.34957C2.70246 34.2187 2.1777 34.7435 2.1777 35.3906V41.8359C2.1777 42.483 2.70246 43.0078 3.34957 43.0078C3.99668 43.0078 4.52145 42.483 4.52145 41.8359V36.5625H12.4902V57.6562H4.52145V52.3828C4.52145 51.7357 3.99668 51.2109 3.34957 51.2109C2.70246 51.2109 2.1777 51.7357 2.1777 52.3828V58.8281C2.1777 59.4752 2.70246 60 3.34957 60H13.6621C14.3092 60 14.8339 59.4752 14.8339 58.8281V58.786C16.2278 59.5699 17.8154 60 19.4277 60H30.2441C32.3109 60 33.9922 58.3185 33.9922 56.2517C33.9922 55.7552 33.8944 55.2814 33.7182 54.8474H33.7912C35.8594 54.8474 37.542 53.1649 37.542 51.0968C37.542 50.0985 37.1491 49.1908 36.5109 48.5181C37.1491 47.8453 37.542 46.9376 37.542 45.9392C37.5418 44.1151 36.2326 42.5917 34.5046 42.2576ZM33.7911 52.5035H26.1445C25.4974 52.5035 24.9727 53.0283 24.9727 53.6754C24.9727 54.3225 25.4974 54.8472 26.1445 54.8472H30.2439C31.0182 54.8472 31.6482 55.4772 31.6482 56.2516C31.6482 57.026 31.0184 57.6562 30.244 57.6562H19.4276C17.7463 57.6562 16.1003 57.034 14.8338 55.9373V38.2915L14.9139 38.1865C17.2304 35.1473 20.2567 32.6289 23.6657 30.903C24.0469 30.7099 24.5033 30.7073 24.8871 30.8965C25.2329 31.0667 25.4837 31.3642 25.5933 31.7338C25.703 32.1034 25.6547 32.4894 25.4578 32.8208L22.6143 37.6043C22.3989 37.9664 22.3946 38.4163 22.6029 38.7825C22.8113 39.1488 23.2002 39.375 23.6215 39.375H31.0569C31.8326 39.375 32.4637 40.0062 32.4637 40.7818C32.4637 41.5575 31.8326 42.1887 31.0569 42.1887H26.1445C25.4974 42.1887 24.9727 42.7134 24.9727 43.3605C24.9727 44.0076 25.4974 44.5324 26.1445 44.5324H33.7911C34.5669 44.5324 35.1981 45.1636 35.1981 45.9392C35.1981 46.715 34.5669 47.3462 33.7911 47.3462H26.1445C25.4974 47.3462 24.9727 47.871 24.9727 48.5181C24.9727 49.1652 25.4974 49.6899 26.1445 49.6899H33.7911C34.5669 49.6899 35.1981 50.3211 35.1981 51.0968C35.1981 51.8724 34.567 52.5035 33.7911 52.5035Z" fill="white"/>
<path d="M40.5049 14.5003L35.477 13.7699L33.2284 9.21363C33.0309 8.81367 32.6236 8.56042 32.1775 8.56042C31.7313 8.56042 31.324 8.81367 31.1265 9.21363L28.8779 13.7699L23.85 14.5003C23.4084 14.5645 23.0419 14.8738 22.9039 15.298C22.7661 15.7222 22.8811 16.1879 23.2004 16.4993L26.8387 20.0457L25.9799 25.0534C25.9044 25.4931 26.0852 25.9373 26.4462 26.1995C26.8071 26.4616 27.2856 26.4961 27.6803 26.2888L32.1775 23.9244L36.6746 26.2888C36.8461 26.379 37.0334 26.4233 37.2198 26.4233C37.4627 26.4233 37.7046 26.3477 37.9088 26.1995C38.2696 25.9373 38.4504 25.4931 38.375 25.0534L37.5162 20.0457L41.1545 16.4993C41.4739 16.1879 41.5888 15.7222 41.451 15.298C41.3132 14.8738 40.9465 14.5645 40.5049 14.5003ZM35.439 18.7973C35.1629 19.0666 35.0368 19.4544 35.102 19.8347L35.6637 23.1092L32.7228 21.5632C32.5522 21.4734 32.3648 21.4287 32.1776 21.4287C31.9903 21.4287 31.8029 21.4735 31.6323 21.5632L28.6915 23.1092L29.2532 19.8347C29.3183 19.4545 29.1922 19.0666 28.9161 18.7973L26.537 16.4783L29.8248 16.0007C30.2066 15.9451 30.5365 15.7053 30.7072 15.3595L32.1776 12.3801L33.6479 15.3595C33.8187 15.7053 34.1486 15.9451 34.5304 16.0007L37.8182 16.4783L35.439 18.7973Z" fill="white"/>
<path d="M57.7651 17.2985C57.6272 16.8743 57.2605 16.565 56.8191 16.5008L52.967 15.9412L51.2443 12.4504C51.0469 12.0505 50.6395 11.7972 50.1934 11.7972C49.7473 11.7972 49.3399 12.0505 49.1425 12.4504L47.4198 15.9412L43.5677 16.5008C43.1262 16.565 42.7596 16.8743 42.6217 17.2985C42.4839 17.7227 42.5988 18.1884 42.9182 18.4998L45.7056 21.2169L45.0476 25.0534C44.9721 25.4931 45.1529 25.9373 45.5139 26.1995C45.8748 26.4619 46.3533 26.4961 46.748 26.2888L50.1934 24.4774L53.6388 26.2888C53.8103 26.3789 53.9975 26.4233 54.184 26.4233C54.4269 26.4233 54.6688 26.3477 54.8729 26.1995C55.2337 25.9373 55.4146 25.4931 55.3392 25.0534L54.6812 21.2169L57.4686 18.4998C57.788 18.1884 57.9028 17.7227 57.7651 17.2985ZM52.6039 19.9685C52.3278 20.2378 52.2018 20.6256 52.2669 21.0058L52.6277 23.1092L50.7387 22.1161C50.5679 22.0263 50.3807 21.9815 50.1934 21.9815C50.0061 21.9815 49.8189 22.0264 49.6481 22.1161L47.7591 23.1092L48.1199 21.0058C48.185 20.6257 48.0589 20.2378 47.7828 19.9685L46.2545 18.4788L48.3664 18.172C48.7482 18.1165 49.0781 17.8767 49.2489 17.5309L50.1934 15.617L51.1379 17.5309C51.3087 17.8767 51.6386 18.1165 52.0203 18.172L54.1323 18.4788L52.6039 19.9685Z" fill="white"/>
<path d="M9.67406 21.2169L9.01605 25.0534C8.94058 25.4931 9.12141 25.9373 9.48234 26.1995C9.84328 26.4619 10.3216 26.4961 10.7164 26.2888L14.1619 24.4774L17.6073 26.2888C17.7787 26.3789 17.966 26.4233 18.1525 26.4233C18.3954 26.4233 18.6373 26.3477 18.8414 26.1995C19.2022 25.9373 19.383 25.4931 19.3077 25.0534L18.6497 21.2169L21.4371 18.4998C21.7566 18.1884 21.8714 17.7227 21.7336 17.2985C21.5957 16.8743 21.229 16.565 20.7875 16.5008L16.9355 15.9412L15.2128 12.4504C15.0153 12.0505 14.608 11.7972 14.1619 11.7972C13.7157 11.7972 13.3084 12.0505 13.1109 12.4504L11.3883 15.9412L7.53621 16.5008C7.09465 16.565 6.72809 16.8743 6.59016 17.2985C6.45234 17.7227 6.5673 18.1884 6.88664 18.4998L9.67406 21.2169ZM12.3349 18.172C12.7167 18.1165 13.0466 17.8767 13.2173 17.5309L14.1619 15.617L15.1064 17.5309C15.2771 17.8767 15.607 18.1165 15.9888 18.172L18.1008 18.4788L16.5724 19.9685C16.2963 20.2378 16.1702 20.6256 16.2354 21.0058L16.5962 23.1092L14.7071 22.1161C14.5364 22.0263 14.3491 21.9815 14.1619 21.9815C13.9746 21.9815 13.7873 22.0264 13.6166 22.1161L11.7275 23.1092L12.0884 21.0058C12.1535 20.6257 12.0274 20.2378 11.7513 19.9685L10.223 18.4788L12.3349 18.172Z" fill="white"/>
<path d="M32.1652 5.80301C32.8123 5.80301 33.337 5.27824 33.337 4.63113V1.17188C33.337 0.524766 32.8123 0 32.1652 0C31.518 0 30.9933 0.524766 30.9933 1.17188V4.63113C30.9933 5.27824 31.518 5.80301 32.1652 5.80301Z" fill="white"/>
<path d="M23.5208 8.32865C23.7497 8.5574 24.0496 8.67189 24.3495 8.67189C24.6493 8.67189 24.9492 8.5574 25.1781 8.32865C25.6357 7.87103 25.6357 7.129 25.1781 6.67127L23.1482 4.64134C22.6904 4.18384 21.9486 4.18384 21.4908 4.64134C21.0332 5.09896 21.0332 5.84099 21.4908 6.29873L23.5208 8.32865Z" fill="white"/>
<path d="M40.0057 8.67191C40.3056 8.67191 40.6055 8.55741 40.8343 8.32866L42.8644 6.29874C43.322 5.84113 43.322 5.09921 42.8644 4.64136C42.4067 4.18398 41.665 4.18386 41.207 4.64136L39.1769 6.6714C38.7193 7.12902 38.7193 7.87093 39.1769 8.32878C39.4059 8.55741 39.7057 8.67191 40.0057 8.67191Z" fill="white"/>
<path d="M4.17844 47.9378C4.39641 47.7199 4.5218 47.4176 4.5218 47.1094C4.5218 46.8012 4.39652 46.4988 4.17844 46.2809C3.9593 46.0629 3.65812 45.9375 3.34992 45.9375C3.04172 45.9375 2.73938 46.0628 2.52023 46.2809C2.30238 46.4988 2.17805 46.8012 2.17805 47.1094C2.17805 47.4176 2.30238 47.7199 2.52023 47.9378C2.73938 48.1557 3.04055 48.2812 3.34992 48.2812C3.65812 48.2812 3.96047 48.1559 4.17844 47.9378Z" fill="white"/>
</svg>
