<svg xmlns="http://www.w3.org/2000/svg" xmlns:xlink="http://www.w3.org/1999/xlink" width="500" zoomAndPan="magnify" viewBox="0 0 375 374.999991" height="500" preserveAspectRatio="xMidYMid meet" version="1.0"><defs><g/><clipPath id="821ff44253"><path d="M 19 22 L 249.800781 22 L 249.800781 304.5 L 19 304.5 Z M 19 22 " clip-rule="nonzero"/></clipPath></defs><g clip-path="url(#821ff44253)"><path fill="#ffffff" d="M 184.007812 137.949219 L 199.804688 137.949219 L 199.804688 159.101562 L 184.007812 159.101562 Z M 110.15625 142.015625 L 113.964844 162.820312 L 127.613281 160.316406 L 123.804688 139.511719 Z M 262.214844 319.324219 C 258.40625 325.816406 250.699219 328.671875 243.730469 330.257812 C 233.898438 332.503906 219.699219 331.59375 209.652344 331.5 C 200.566406 331.414062 191.496094 330.863281 182.441406 330.226562 C 176.230469 329.789062 169.230469 330.292969 163 330.398438 C 156.445312 330.511719 149.875 331.535156 143.378906 332.324219 C 133.949219 333.460938 124.527344 334.597656 115.066406 335.402344 C 105.453125 336.210938 95.765625 336.757812 86.109375 336.324219 C 78.515625 335.984375 70.523438 335.207031 63.5 332.113281 C 61.6875 331.316406 59.515625 330.265625 58.003906 328.804688 C 57.664062 328.652344 57.367188 328.367188 57.148438 327.894531 C 57.121094 327.839844 57.09375 327.792969 57.074219 327.742188 C 55.941406 326.101562 55.144531 324.246094 53.921875 322.632812 C 53.433594 321.980469 52.921875 321.363281 52.390625 320.785156 C 52.332031 320.71875 52.269531 320.652344 52.207031 320.585938 C 47.449219 315.445312 41.296875 313.078125 34.542969 314.628906 C 34.503906 314.632812 34.460938 314.648438 34.421875 314.65625 C 34.164062 314.714844 33.90625 314.78125 33.644531 314.855469 C 33.328125 314.941406 33.015625 315.039062 32.699219 315.144531 C 32.578125 315.1875 32.457031 315.226562 32.339844 315.273438 C 31.953125 315.40625 31.570312 315.550781 31.183594 315.710938 C 30.347656 316.054688 29.378906 315.457031 28.933594 314.792969 C 25.84375 310.203125 23.914062 304.554688 22.425781 299.28125 C 13.734375 268.402344 23.363281 235.394531 38.570312 208.242188 C 42.140625 201.871094 45.027344 195.839844 46.613281 188.578125 C 50.472656 170.898438 47.925781 152.382812 42.84375 135.238281 C 42.484375 134.023438 43.480469 132.671875 44.761719 132.714844 C 53 132.960938 61.339844 130.542969 69.023438 127.832031 C 69.050781 127.816406 69.085938 127.804688 69.113281 127.789062 C 74.0625 126.015625 79.03125 124.34375 84.035156 123.027344 C 82.191406 111.054688 72.34375 42.65625 86.746094 34.984375 C 102.53125 26.578125 138.808594 15.148438 150.898438 29.941406 C 162.269531 43.851562 173.335938 54.507812 173.21875 131.1875 C 176.753906 131.265625 180.230469 131.3125 183.5625 131.34375 C 192.3125 131.425781 201.714844 131.589844 210.210938 129.160156 C 220.746094 126.148438 236.863281 125.339844 247.425781 128.914062 C 248.230469 129.1875 248.9375 129.929688 248.886719 130.832031 C 248.347656 140.167969 247.957031 149.507812 247.644531 158.855469 C 247.160156 173.402344 245.832031 187.003906 246.339844 201.558594 C 246.523438 206.925781 246.714844 212.386719 247.683594 217.683594 C 248.660156 222.984375 251.175781 229.1875 252.582031 234.382812 C 256.753906 249.796875 261.054688 265.226562 263.6875 280.992188 C 265.671875 292.890625 268.308594 308.136719 262.214844 319.324219 Z M 97.625 120.550781 C 103.460938 120.039062 109.386719 120.304688 115.425781 121.765625 C 120.695312 123.035156 123.851562 125.5 129.167969 126.636719 C 134.476562 127.769531 139.835938 128.640625 145.21875 129.34375 C 148.015625 129.710938 150.9375 130.011719 153.910156 130.25 C 153.871094 113.828125 153.472656 89.378906 151.554688 77.6875 C 148.535156 59.191406 143.160156 36.140625 131.742188 37.746094 C 120.320312 39.347656 95.796875 39.6875 95.128906 49.777344 C 94.664062 56.8125 96.488281 96.945312 97.625 120.550781 Z M 55.742188 318.46875 C 54.195312 306.324219 53 294.125 52.410156 281.894531 C 50.949219 251.554688 53.359375 221.25 65.699219 193.214844 C 70.902344 181.097656 70.742188 166.679688 70.121094 153.746094 C 69.773438 146.613281 69.15625 139.429688 68.050781 132.363281 C 61.449219 134.59375 54.386719 136.453125 47.386719 136.679688 C 52.332031 154.378906 54.429688 173.390625 50.023438 191.414062 C 48.277344 198.550781 45.191406 204.488281 41.683594 210.804688 C 32.265625 227.765625 23.992188 247.25 22.320312 266.703125 C 21.3125 278.441406 23.441406 289.640625 27.058594 300.890625 C 28.199219 304.429688 29.546875 308.105469 31.464844 311.351562 C 39.292969 308.65625 47.042969 310.503906 53.054688 315.851562 C 54.003906 316.648438 54.898438 317.53125 55.742188 318.46875 Z M 261.640625 297.78125 C 261.226562 289.011719 259.695312 280.320312 257.882812 271.746094 C 254.796875 257.089844 250.570312 242.71875 246.816406 228.230469 C 244.046875 217.554688 243.332031 206.960938 243.160156 195.953125 C 242.820312 174.734375 243.605469 153.453125 244.8125 132.269531 C 240.832031 131.121094 231.933594 130.628906 227.832031 130.519531 C 222.902344 130.394531 218 130.953125 213.269531 132.355469 C 211.363281 132.917969 209.507812 133.484375 207.546875 133.835938 C 198.039062 135.558594 188.152344 135.492188 178.53125 135.21875 C 167.007812 134.894531 155.488281 133.929688 144.070312 132.328125 C 138.648438 131.570312 133.242188 130.652344 127.90625 129.425781 C 122.53125 128.183594 117.363281 126.117188 111.949219 125.082031 C 98.027344 122.417969 84.816406 126.414062 71.84375 131.019531 C 73.085938 138.800781 73.789062 146.703125 74.132812 154.558594 C 74.730469 168.042969 73.617188 181.921875 68.210938 194.515625 C 65.894531 199.769531 64.773438 205.835938 63.085938 211.332031 C 51.828125 247.976562 55.464844 288.40625 60.691406 325.753906 C 62.019531 327.203125 64.328125 328.21875 66.246094 328.964844 C 73.648438 331.839844 81.949219 332.3125 89.808594 332.453125 C 99.574219 332.632812 109.347656 331.964844 119.0625 331.058594 C 128.066406 330.214844 137.035156 329.097656 146.019531 328.019531 C 151.964844 327.308594 157.996094 326.386719 163.996094 326.414062 C 179.628906 326.472656 195.199219 328.71875 210.859375 328.746094 C 219.710938 328.757812 233.367188 328.445312 242.046875 326.550781 C 248.136719 325.222656 255.414062 323.042969 258.777344 317.304688 C 261.945312 311.492188 261.945312 304.222656 261.640625 297.78125 Z M 261.640625 297.78125 " fill-opacity="1" fill-rule="nonzero"/></g><path fill="#ffffff" d="M 191.796875 146.703125 C 190.914062 145.210938 190.03125 143.714844 189.15625 142.226562 C 191.171875 142.21875 193.191406 142.21875 195.207031 142.214844 C 194.066406 143.707031 192.929688 145.210938 191.796875 146.703125 Z M 118.476562 151.40625 C 117.527344 150.339844 116.578125 149.277344 115.632812 148.207031 C 115.84375 150.777344 116.054688 153.355469 116.269531 155.925781 C 117.003906 154.425781 117.742188 152.914062 118.476562 151.40625 Z M 188.226562 144 C 188.082031 145.308594 187.933594 146.613281 187.789062 147.921875 C 187.644531 149.222656 186.972656 151.441406 187.105469 152.894531 C 188.300781 151.320312 189.496094 149.746094 190.6875 148.171875 C 189.867188 146.777344 189.042969 145.390625 188.226562 144 Z M 121.390625 145.460938 C 119.640625 145.8125 117.878906 146.160156 116.128906 146.511719 C 117.152344 147.660156 118.171875 148.804688 119.195312 149.953125 C 119.925781 148.453125 120.652344 146.957031 121.390625 145.460938 Z M 188.027344 154.457031 C 189.59375 155.519531 192.839844 155.652344 195.046875 155.554688 C 193.898438 153.613281 192.757812 151.671875 191.609375 149.734375 C 190.417969 151.308594 189.222656 152.882812 188.027344 154.457031 Z M 117.296875 157.246094 C 119.378906 157.625 121.464844 157.574219 123.535156 157.089844 C 122.207031 155.601562 120.878906 154.113281 119.558594 152.625 C 118.800781 154.164062 118.054688 155.707031 117.296875 157.246094 Z M 123.8125 155.136719 C 123.335938 152.371094 122.863281 149.609375 122.386719 146.84375 C 121.683594 148.285156 120.980469 149.71875 120.277344 151.164062 C 121.449219 152.492188 122.632812 153.8125 123.8125 155.136719 Z M 201.273438 159.753906 C 197.574219 164.792969 181.453125 160.089844 181.453125 160.089844 C 181.453125 160.089844 189.515625 49.785156 177.425781 30.28125 C 165.335938 10.777344 130.402344 24.226562 120.320312 30.28125 C 110.242188 36.332031 129.898438 162.949219 129.898438 162.949219 C 123.347656 166.480469 110.753906 162.949219 110.753906 162.949219 C 110.753906 162.949219 103.195312 34.652344 106.554688 20.867188 C 109.910156 7.082031 156.601562 0.0117188 182.128906 13.132812 C 207.65625 26.253906 201.273438 159.753906 201.273438 159.753906 Z M 114.496094 145.304688 C 114.199219 145.363281 113.917969 145.722656 113.945312 146.027344 C 114.265625 149.898438 114.589844 153.78125 114.90625 157.652344 C 114.933594 157.984375 115.121094 158.285156 115.457031 158.375 C 115.632812 158.421875 115.808594 158.464844 115.984375 158.503906 C 116.054688 158.535156 116.128906 158.550781 116.207031 158.554688 C 119.199219 159.246094 122.21875 159.132812 125.171875 158.203125 C 125.589844 158.070312 125.769531 157.691406 125.695312 157.273438 C 124.945312 152.921875 124.195312 148.570312 123.453125 144.21875 C 123.386719 143.835938 123.117188 143.675781 122.824219 143.675781 C 122.671875 143.636719 122.511719 143.648438 122.371094 143.722656 C 119.75 144.253906 117.125 144.777344 114.496094 145.304688 Z M 197.640625 140.90625 C 197.589844 140.824219 197.523438 140.753906 197.449219 140.699219 C 197.316406 140.585938 197.136719 140.507812 196.914062 140.507812 C 193.832031 140.511719 190.753906 140.519531 187.667969 140.519531 C 187.171875 140.519531 186.875 140.910156 186.820312 141.371094 C 186.328125 145.726562 185.839844 150.085938 185.355469 154.449219 C 185.320312 154.722656 185.53125 155.0625 185.773438 155.1875 C 189.164062 156.890625 192.773438 157.566406 196.554688 157.148438 C 197.019531 157.09375 197.390625 156.800781 197.402344 156.296875 C 197.523438 151.394531 197.636719 146.492188 197.753906 141.597656 C 197.859375 141.335938 197.800781 141.089844 197.640625 140.90625 Z M 195.769531 153.441406 C 195.84375 150.277344 195.921875 147.117188 195.996094 143.960938 C 194.902344 145.402344 193.8125 146.835938 192.71875 148.277344 C 193.742188 149.992188 194.757812 151.71875 195.769531 153.441406 Z M 195.769531 153.441406 " fill-opacity="1" fill-rule="nonzero"/><g fill="#ffffff" fill-opacity="1"><g transform="translate(77.59396, 246.460061)"><g><path d="M 31.742188 -46.429688 C 29.90625 -46.429688 28.066406 -46.300781 26.296875 -46.300781 C 24.65625 -46.300781 23.085938 -46.234375 21.445312 -46.429688 C 20.722656 -46.496094 20 -46.363281 19.347656 -46.300781 C 18.296875 -43.9375 17.640625 -41.578125 16.65625 -39.347656 C 15.609375 -36.921875 15.019531 -34.363281 13.773438 -32.003906 C 12.855469 -30.296875 12.589844 -28.332031 11.871094 -26.558594 C 11.34375 -25.378906 11.082031 -24.066406 10.558594 -22.953125 C 9.378906 -20.527344 8.394531 -17.96875 7.34375 -15.476562 C 6.820312 -14.230469 6.492188 -12.984375 5.902344 -11.804688 C 4.984375 -10.097656 4.394531 -8.261719 3.804688 -6.492188 C 3.277344 -4.789062 2.425781 -3.214844 1.769531 -1.574219 C 1.507812 -0.851562 1.640625 -0.460938 1.902344 0 C 3.933594 -0.0664062 5.902344 -0.195312 8.199219 -0.132812 C 8.851562 -1.179688 9.179688 -2.753906 9.835938 -4.132812 C 10.558594 -5.640625 11.082031 -7.148438 11.738281 -8.789062 C 17.378906 -8.460938 23.019531 -9.246094 28.722656 -8.722656 C 29.773438 -5.769531 31.019531 -2.820312 32.003906 0.132812 C 32.59375 0.394531 33.117188 0 33.578125 0.0664062 C 36.59375 0.132812 39.609375 0.0664062 42.628906 -0.132812 C 44.527344 -0.261719 46.429688 0 48.332031 -0.328125 C 48.921875 -0.460938 49.710938 -0.0664062 50.167969 -0.917969 C 43.871094 -15.804688 38.890625 -31.214844 32.460938 -46.167969 C 32.332031 -46.234375 32.003906 -46.429688 31.742188 -46.429688 Z M 20.59375 -31.675781 C 22.625 -26.296875 24.332031 -20.789062 26.363281 -15.347656 C 22.230469 -15.214844 18.230469 -14.953125 14.230469 -15.214844 C 16.460938 -20.59375 18.035156 -26.296875 20.59375 -31.675781 Z M 20.59375 -31.675781 "/></g></g></g><g fill="#ffffff" fill-opacity="1"><g transform="translate(129.531766, 246.460061)"><g><path d="M 29.511719 -46.757812 C 28.265625 -46.757812 27.019531 -46.496094 25.773438 -46.429688 C 23.871094 -46.300781 21.96875 -45.773438 20.132812 -45.183594 C 17.3125 -44.398438 14.691406 -43.085938 12.261719 -41.511719 C 11.609375 -41.054688 10.886719 -40.726562 10.425781 -40.136719 C 9.507812 -39.085938 8.527344 -38.167969 7.738281 -36.988281 C 6.558594 -35.28125 5.378906 -33.578125 4.523438 -31.609375 C 4.261719 -31.019531 3.933594 -30.363281 3.804688 -29.707031 C 3.671875 -28.660156 3.410156 -27.609375 3.214844 -26.558594 C 2.949219 -25.25 2.949219 -23.9375 2.949219 -22.625 C 2.949219 -21.511719 3.214844 -20.460938 3.277344 -19.347656 C 3.34375 -18.035156 4.851562 -12.855469 5.179688 -12.199219 C 6.164062 -10.035156 8.789062 -5.96875 10.097656 -5.246094 C 11.082031 -4.65625 11.9375 -3.871094 12.917969 -3.34375 C 15.410156 -1.96875 17.902344 -0.785156 20.65625 -0.132812 C 22.953125 0.394531 25.3125 0.917969 27.804688 0.851562 C 29.640625 0.851562 31.476562 1.113281 33.316406 0.984375 C 35.808594 0.722656 38.234375 0.394531 40.59375 -0.394531 C 42.953125 -1.179688 45.25 -2.230469 47.480469 -3.277344 C 48.726562 -3.871094 49.773438 -4.65625 50.957031 -5.3125 C 52.003906 -5.902344 52.070312 -6.753906 51.414062 -7.671875 C 50.757812 -8.460938 50.234375 -9.3125 49.578125 -10.035156 C 49.121094 -10.625 48.792969 -11.28125 48.332031 -11.804688 C 48.003906 -11.871094 47.675781 -11.738281 47.28125 -11.542969 C 46.234375 -10.691406 45.183594 -9.835938 43.9375 -9.246094 C 41.707031 -8.132812 39.347656 -7.34375 36.988281 -6.820312 C 36.199219 -6.625 35.347656 -6.558594 34.691406 -6.625 C 33.316406 -6.820312 31.9375 -6.820312 30.558594 -7.214844 C 28.921875 -7.671875 27.542969 -8.460938 26.101562 -9.3125 C 25.640625 -9.574219 25.183594 -9.902344 24.855469 -10.363281 C 23.28125 -12.328125 22.035156 -14.101562 21.445312 -16.984375 C 21.183594 -18.296875 20.527344 -19.476562 20.921875 -25.3125 C 21.183594 -27.28125 21.839844 -29.511719 22.558594 -31.347656 C 23.148438 -32.722656 23.9375 -33.96875 24.921875 -35.085938 C 25.707031 -35.9375 26.230469 -36.988281 27.28125 -37.644531 C 28.199219 -38.234375 29.183594 -38.757812 30.230469 -39.085938 C 31.28125 -39.414062 32.132812 -39.675781 33.445312 -39.675781 C 34.886719 -39.675781 36.199219 -39.21875 37.578125 -38.824219 C 39.808594 -38.234375 41.316406 -36.988281 42.167969 -34.824219 C 42.691406 -33.511719 42.757812 -33.445312 44.136719 -33.511719 C 44.398438 -33.578125 45.054688 -33.578125 45.25 -33.578125 C 46.628906 -33.578125 47.609375 -33.378906 48.988281 -33.445312 C 49.511719 -33.445312 50.300781 -33.316406 50.496094 -33.445312 C 50.757812 -33.578125 50.367188 -34.5625 50.300781 -34.953125 C 50.101562 -36.132812 49.578125 -37.117188 49.183594 -38.167969 C 48.988281 -38.757812 48.660156 -39.21875 48.332031 -39.742188 C 46.691406 -42.035156 44.265625 -43.347656 41.839844 -44.59375 C 38.691406 -46.167969 35.214844 -46.5625 31.675781 -46.628906 C 30.953125 -46.691406 30.230469 -46.757812 29.511719 -46.757812 Z M 29.511719 -46.757812 "/></g></g></g><g fill="#ffffff" fill-opacity="1"><g transform="translate(184.289429, 246.460061)"><g><path d="M 42.167969 -45.90625 L 41.644531 -45.90625 C 39.542969 -45.90625 37.445312 -46.039062 35.414062 -45.839844 C 33.316406 -45.644531 31.214844 -45.90625 29.183594 -45.773438 C 27.085938 -45.578125 24.921875 -45.839844 22.820312 -45.710938 C 21.378906 -45.644531 19.871094 -45.710938 18.429688 -45.644531 C 14.296875 -45.445312 10.164062 -45.773438 6.035156 -45.578125 C 5.441406 -45.578125 5.117188 -45.710938 4.523438 -45.511719 C 4.394531 -45.316406 4.066406 -45.25 3.933594 -45.117188 C 4 -44.265625 4.261719 -39.414062 4.132812 -33.25 C 4 -31.414062 4 -29.578125 3.933594 -27.742188 C 3.933594 -25.902344 4 -24.003906 4 -22.167969 C 4 -20.394531 4.132812 -18.691406 4.261719 -16.917969 C 4.394531 -15.804688 4.328125 -14.691406 4.328125 -13.574219 C 4.328125 -12.199219 4.394531 -10.753906 4.261719 -9.445312 C 4.132812 -8.066406 4.132812 -6.820312 4.261719 -5.507812 C 4.394531 -3.671875 4.460938 -1.769531 4.328125 0.0664062 C 4.328125 0.328125 6.097656 0.0664062 6.6875 0.0664062 C 8.394531 0.0664062 10.035156 0.195312 11.671875 0.328125 C 13.117188 0.394531 18.558594 0.0664062 19.347656 0.0664062 C 23.019531 0.0664062 26.691406 0.132812 30.296875 0 C 33.117188 -0.0664062 35.9375 -0.261719 38.757812 -0.0664062 C 40.988281 0.0664062 43.152344 -0.328125 45.382812 -0.261719 C 46.300781 -0.195312 46.757812 -0.722656 46.691406 -1.640625 L 46.691406 -6.558594 C 45.316406 -7.28125 44.003906 -6.625 42.691406 -6.625 C 40.527344 -6.625 38.296875 -6.6875 36.132812 -6.425781 C 35.085938 -6.359375 33.96875 -6.558594 32.988281 -6.359375 C 31.28125 -6.097656 29.640625 -6.164062 27.9375 -6.035156 C 26.625 -5.96875 25.183594 -6.035156 23.804688 -6.097656 C 23.214844 -6.164062 22.558594 -5.902344 22.035156 -6.296875 C 21.839844 -10.820312 21.445312 -15.347656 21.773438 -19.9375 L 26.625 -19.9375 C 27.542969 -19.9375 28.460938 -19.9375 29.378906 -20 C 31.742188 -20.066406 34.035156 -20.199219 36.398438 -20.199219 C 37.644531 -20.199219 38.890625 -20.265625 40.136719 -20.265625 C 40.789062 -20.265625 41.183594 -20.789062 41.183594 -21.445312 C 41.117188 -22.886719 41.054688 -24.332031 41.117188 -25.839844 C 41.183594 -26.757812 40.660156 -27.28125 39.742188 -27.347656 C 38.625 -27.414062 37.511719 -27.347656 36.398438 -27.28125 C 34.101562 -27.214844 31.804688 -27.019531 29.511719 -27.019531 C 28.460938 -27.085938 27.414062 -27.148438 26.363281 -26.953125 C 24.855469 -26.757812 23.410156 -27.214844 21.902344 -27.019531 C 21.445312 -31.019531 21.902344 -35.347656 21.773438 -39.28125 C 29.183594 -39.9375 36.660156 -39.480469 44.070312 -39.609375 C 44.136719 -39.9375 44.265625 -40.265625 44.199219 -40.59375 C 44.070312 -41.773438 43.9375 -42.953125 44.136719 -44.199219 C 44.265625 -45.445312 43.480469 -46.039062 42.167969 -45.90625 Z M 42.167969 -45.90625 "/></g></g></g><g fill="#ffffff" fill-opacity="1"><g transform="translate(67.51545, 347.936432)"><g><path d="M 6.046875 -8.8125 L 2.03125 -8.8125 L 2.03125 -5.1875 L 5.75 -5.1875 L 5.6875 -4.359375 L 2.03125 -4.359375 L 2.03125 0 L 1.09375 0 L 1.09375 -9.640625 L 6.109375 -9.640625 Z M 6.046875 -8.8125 "/></g></g></g><g fill="#ffffff" fill-opacity="1"><g transform="translate(82.415452, 347.936432)"><g><path d="M 3.546875 0 L 0.96875 0 L 0.96875 -0.65625 L 1.796875 -0.75 L 1.796875 -8.859375 L 1.03125 -8.96875 L 1.03125 -9.640625 L 3.484375 -9.640625 L 3.484375 -8.96875 L 2.71875 -8.859375 L 2.71875 -0.75 L 3.546875 -0.65625 Z M 3.546875 0 "/></g></g></g><g fill="#ffffff" fill-opacity="1"><g transform="translate(95.442801, 347.936432)"><g><path d="M 5.109375 -5.53125 C 6.128906 -5.15625 6.640625 -4.304688 6.640625 -2.984375 C 6.640625 -2.316406 6.5625 -1.796875 6.40625 -1.421875 C 6.257812 -1.054688 6.039062 -0.769531 5.75 -0.5625 C 5.226562 -0.1875 4.410156 0 3.296875 0 L 1.03125 0 L 1.03125 -9.640625 L 3.09375 -9.640625 C 4.539062 -9.640625 5.457031 -9.269531 5.84375 -8.53125 C 5.988281 -8.28125 6.0625 -7.96875 6.0625 -7.59375 C 6.0625 -7.226562 5.96875 -6.851562 5.78125 -6.46875 C 5.59375 -6.082031 5.367188 -5.769531 5.109375 -5.53125 Z M 1.96875 -5 L 1.96875 -0.75 L 3.234375 -0.75 C 4.085938 -0.75 4.6875 -0.863281 5.03125 -1.09375 C 5.476562 -1.382812 5.703125 -1.953125 5.703125 -2.796875 C 5.703125 -3.941406 5.296875 -4.632812 4.484375 -4.875 C 4.222656 -4.957031 3.921875 -5 3.578125 -5 Z M 4.453125 -5.703125 C 4.898438 -6.285156 5.125 -6.859375 5.125 -7.421875 C 5.125 -7.992188 4.941406 -8.378906 4.578125 -8.578125 C 4.222656 -8.773438 3.707031 -8.875 3.03125 -8.875 L 1.96875 -8.875 L 1.96875 -5.75 L 3.640625 -5.75 C 3.921875 -5.75 4.191406 -5.734375 4.453125 -5.703125 Z M 4.453125 -5.703125 "/></g></g></g><g fill="#ffffff" fill-opacity="1"><g transform="translate(110.934899, 347.936432)"><g><path d="M 6.765625 -8.625 C 6.304688 -8.800781 5.816406 -8.890625 5.296875 -8.890625 C 4.265625 -8.890625 3.425781 -8.507812 2.78125 -7.75 C 2.144531 -6.988281 1.828125 -5.875 1.828125 -4.40625 C 1.828125 -2.9375 2.160156 -1.910156 2.828125 -1.328125 C 3.296875 -0.910156 3.9375 -0.703125 4.75 -0.703125 C 5.269531 -0.703125 5.789062 -0.757812 6.3125 -0.875 C 6.84375 -1 7.207031 -1.113281 7.40625 -1.21875 L 7.59375 -0.546875 C 7.195312 -0.285156 6.492188 -0.101562 5.484375 0 C 5.179688 0.0390625 4.867188 0.0625 4.546875 0.0625 C 4.222656 0.0625 3.835938 0.0078125 3.390625 -0.09375 C 2.953125 -0.207031 2.546875 -0.425781 2.171875 -0.75 C 1.316406 -1.46875 0.890625 -2.671875 0.890625 -4.359375 C 0.890625 -6.046875 1.289062 -7.347656 2.09375 -8.265625 C 2.894531 -9.191406 3.941406 -9.65625 5.234375 -9.65625 C 5.941406 -9.65625 6.554688 -9.515625 7.078125 -9.234375 C 7.265625 -9.128906 7.414062 -9.019531 7.53125 -8.90625 L 7.53125 -6.90625 L 6.84375 -6.875 Z M 6.765625 -8.625 "/></g></g></g><g fill="#ffffff" fill-opacity="1"><g transform="translate(127.322013, 347.936432)"><g/></g></g><g fill="#ffffff" fill-opacity="1"><g transform="translate(139.67465, 347.936432)"><g><path d="M 0.984375 0 L 0.984375 -9.640625 L 1.921875 -9.640625 L 5.46875 -2.59375 L 9 -9.640625 L 9.9375 -9.640625 L 9.9375 0 L 9.078125 0 L 9.078125 -8.046875 L 5.9375 -1.796875 L 5 -1.796875 L 1.859375 -8.046875 L 1.859375 0 Z M 0.984375 0 "/></g></g></g><g fill="#ffffff" fill-opacity="1"><g transform="translate(158.953377, 347.936432)"><g><path d="M 0.703125 -6.140625 C 1.703125 -6.628906 2.578125 -6.890625 3.328125 -6.921875 C 3.921875 -6.921875 4.378906 -6.84375 4.703125 -6.6875 C 5.035156 -6.539062 5.300781 -6.332031 5.5 -6.0625 C 5.707031 -5.789062 5.8125 -5.410156 5.8125 -4.921875 L 5.8125 0 L 4.921875 0 L 4.921875 -0.515625 C 3.660156 -0.128906 2.847656 0.0625 2.484375 0.0625 C 2.472656 0.0625 2.460938 0.0625 2.453125 0.0625 C 1.628906 0.0625 1.0625 -0.191406 0.75 -0.703125 C 0.644531 -0.890625 0.582031 -1.066406 0.5625 -1.234375 C 0.550781 -1.410156 0.546875 -1.554688 0.546875 -1.671875 C 0.546875 -2.003906 0.675781 -2.300781 0.9375 -2.5625 C 1.195312 -2.820312 1.503906 -3 1.859375 -3.09375 C 2.460938 -3.25 3.484375 -3.390625 4.921875 -3.515625 L 4.921875 -4.625 C 4.921875 -5.625 4.394531 -6.125 3.34375 -6.125 C 2.613281 -6.125 1.816406 -5.910156 0.953125 -5.484375 Z M 1.390625 -1.5625 C 1.390625 -0.90625 1.84375 -0.578125 2.75 -0.578125 C 3.476562 -0.578125 4.203125 -0.734375 4.921875 -1.046875 L 4.921875 -3.015625 C 3.484375 -2.816406 2.59375 -2.660156 2.25 -2.546875 C 1.675781 -2.359375 1.390625 -2.03125 1.390625 -1.5625 Z M 1.390625 -1.5625 "/></g></g></g><g fill="#ffffff" fill-opacity="1"><g transform="translate(173.550458, 347.936432)"><g><path d="M 1.71875 -6.125 C 2.40625 -6.625 3.054688 -6.890625 3.671875 -6.921875 C 4.234375 -6.921875 4.664062 -6.851562 4.96875 -6.71875 C 5.269531 -6.582031 5.519531 -6.382812 5.71875 -6.125 C 5.914062 -5.875 6.015625 -5.519531 6.015625 -5.0625 L 6.015625 0 L 5.125 0 L 5.125 -4.828125 C 5.125 -5.171875 5.050781 -5.429688 4.90625 -5.609375 C 4.601562 -5.953125 4.148438 -6.125 3.546875 -6.125 C 2.972656 -6.09375 2.363281 -5.90625 1.71875 -5.5625 L 1.71875 0 L 0.828125 0 L 0.828125 -6.875 L 1.71875 -6.953125 Z M 1.71875 -6.125 "/></g></g></g><g fill="#ffffff" fill-opacity="1"><g transform="translate(188.767162, 347.936432)"><g><path d="M 2.59375 -0.875 C 2.789062 -0.800781 3.109375 -0.765625 3.546875 -0.765625 C 3.992188 -0.765625 4.566406 -0.945312 5.265625 -1.3125 L 5.265625 -6.875 L 6.15625 -6.953125 L 6.15625 0 L 5.265625 0 L 5.265625 -0.75 C 4.578125 -0.21875 3.882812 0.046875 3.1875 0.046875 C 2.300781 0.046875 1.660156 -0.21875 1.265625 -0.75 C 1.066406 -1 0.96875 -1.351562 0.96875 -1.8125 L 0.96875 -6.875 L 1.859375 -6.953125 L 1.859375 -2.046875 C 1.859375 -1.484375 2.101562 -1.09375 2.59375 -0.875 Z M 2.59375 -0.875 "/></g></g></g><g fill="#ffffff" fill-opacity="1"><g transform="translate(204.121562, 347.936432)"><g><path d="M 1.328125 -8.5 C 1.328125 -9.75 2.015625 -10.375 3.390625 -10.375 C 3.742188 -10.375 4.0625 -10.335938 4.34375 -10.265625 L 4.203125 -9.5 C 3.890625 -9.539062 3.625 -9.5625 3.40625 -9.5625 C 3.1875 -9.5625 2.992188 -9.523438 2.828125 -9.453125 C 2.421875 -9.273438 2.21875 -8.851562 2.21875 -8.1875 L 2.21875 -6.875 L 3.921875 -6.875 L 3.921875 -6.078125 L 2.21875 -6.078125 L 2.21875 0 L 1.328125 0 L 1.328125 -6.078125 L 0.546875 -6.078125 L 0.671875 -6.875 L 1.328125 -6.875 Z M 1.328125 -8.5 "/></g></g></g><g fill="#ffffff" fill-opacity="1"><g transform="translate(216.611894, 347.936432)"><g><path d="M 0.703125 -6.140625 C 1.703125 -6.628906 2.578125 -6.890625 3.328125 -6.921875 C 3.921875 -6.921875 4.378906 -6.84375 4.703125 -6.6875 C 5.035156 -6.539062 5.300781 -6.332031 5.5 -6.0625 C 5.707031 -5.789062 5.8125 -5.410156 5.8125 -4.921875 L 5.8125 0 L 4.921875 0 L 4.921875 -0.515625 C 3.660156 -0.128906 2.847656 0.0625 2.484375 0.0625 C 2.472656 0.0625 2.460938 0.0625 2.453125 0.0625 C 1.628906 0.0625 1.0625 -0.191406 0.75 -0.703125 C 0.644531 -0.890625 0.582031 -1.066406 0.5625 -1.234375 C 0.550781 -1.410156 0.546875 -1.554688 0.546875 -1.671875 C 0.546875 -2.003906 0.675781 -2.300781 0.9375 -2.5625 C 1.195312 -2.820312 1.503906 -3 1.859375 -3.09375 C 2.460938 -3.25 3.484375 -3.390625 4.921875 -3.515625 L 4.921875 -4.625 C 4.921875 -5.625 4.394531 -6.125 3.34375 -6.125 C 2.613281 -6.125 1.816406 -5.910156 0.953125 -5.484375 Z M 1.390625 -1.5625 C 1.390625 -0.90625 1.84375 -0.578125 2.75 -0.578125 C 3.476562 -0.578125 4.203125 -0.734375 4.921875 -1.046875 L 4.921875 -3.015625 C 3.484375 -2.816406 2.59375 -2.660156 2.25 -2.546875 C 1.675781 -2.359375 1.390625 -2.03125 1.390625 -1.5625 Z M 1.390625 -1.5625 "/></g></g></g><g fill="#ffffff" fill-opacity="1"><g transform="translate(231.20897, 347.936432)"><g><path d="M 5.375 -5.953125 C 5 -6.078125 4.613281 -6.140625 4.21875 -6.140625 C 3.425781 -6.140625 2.785156 -5.878906 2.296875 -5.359375 C 1.816406 -4.847656 1.578125 -4.125 1.578125 -3.1875 C 1.578125 -1.5625 2.335938 -0.75 3.859375 -0.75 C 4.460938 -0.75 5.082031 -0.847656 5.71875 -1.046875 C 5.851562 -1.078125 5.929688 -1.101562 5.953125 -1.125 L 6.1875 -0.390625 C 5.863281 -0.191406 5.28125 -0.0507812 4.4375 0.03125 C 4.195312 0.0507812 3.941406 0.0625 3.671875 0.0625 C 2.890625 0.0625 2.25 -0.128906 1.75 -0.515625 C 1.039062 -1.054688 0.6875 -1.9375 0.6875 -3.15625 C 0.6875 -4.375 1.015625 -5.3125 1.671875 -5.96875 C 2.328125 -6.625 3.175781 -6.953125 4.21875 -6.953125 C 4.539062 -6.953125 4.890625 -6.90625 5.265625 -6.8125 C 5.640625 -6.726562 5.925781 -6.597656 6.125 -6.421875 L 6.125 -4.609375 L 5.453125 -4.515625 Z M 5.375 -5.953125 "/></g></g></g><g fill="#ffffff" fill-opacity="1"><g transform="translate(246.177819, 347.936432)"><g><path d="M 3.984375 -0.25 C 3.816406 -0.0820312 3.515625 0 3.078125 0 C 2.472656 0 2.066406 -0.15625 1.859375 -0.46875 C 1.503906 -0.8125 1.328125 -1.269531 1.328125 -1.84375 L 1.328125 -6.078125 L 0.546875 -6.078125 L 0.671875 -6.875 L 1.328125 -6.875 L 1.328125 -8.25 L 2.21875 -8.328125 L 2.21875 -6.875 L 3.8125 -6.875 L 3.8125 -6.078125 L 2.21875 -6.078125 L 2.21875 -1.625 C 2.21875 -1.09375 2.492188 -0.828125 3.046875 -0.828125 C 3.285156 -0.828125 3.539062 -0.878906 3.8125 -0.984375 Z M 3.984375 -0.25 "/></g></g></g><g fill="#ffffff" fill-opacity="1"><g transform="translate(258.984844, 347.936432)"><g><path d="M 2.59375 -0.875 C 2.789062 -0.800781 3.109375 -0.765625 3.546875 -0.765625 C 3.992188 -0.765625 4.566406 -0.945312 5.265625 -1.3125 L 5.265625 -6.875 L 6.15625 -6.953125 L 6.15625 0 L 5.265625 0 L 5.265625 -0.75 C 4.578125 -0.21875 3.882812 0.046875 3.1875 0.046875 C 2.300781 0.046875 1.660156 -0.21875 1.265625 -0.75 C 1.066406 -1 0.96875 -1.351562 0.96875 -1.8125 L 0.96875 -6.875 L 1.859375 -6.953125 L 1.859375 -2.046875 C 1.859375 -1.484375 2.101562 -1.09375 2.59375 -0.875 Z M 2.59375 -0.875 "/></g></g></g><g fill="#ffffff" fill-opacity="1"><g transform="translate(274.339244, 347.936432)"><g><path d="M 4.421875 -5.921875 C 4.273438 -6.003906 4.117188 -6.046875 3.953125 -6.046875 C 3.785156 -6.046875 3.691406 -6.039062 3.671875 -6.03125 C 3.328125 -6.03125 2.976562 -5.898438 2.625 -5.640625 C 2.269531 -5.390625 1.96875 -5.109375 1.71875 -4.796875 L 1.71875 0 L 0.828125 0 L 0.828125 -6.875 L 1.71875 -6.953125 L 1.71875 -5.40625 C 2.0625 -5.84375 2.351562 -6.144531 2.59375 -6.3125 C 3.03125 -6.644531 3.453125 -6.820312 3.859375 -6.84375 C 3.910156 -6.851562 4.007812 -6.859375 4.15625 -6.859375 C 4.300781 -6.859375 4.507812 -6.820312 4.78125 -6.75 Z M 4.421875 -5.921875 "/></g></g></g><g fill="#ffffff" fill-opacity="1"><g transform="translate(287.352823, 347.936432)"><g><path d="M 1.65625 -3.171875 C 1.65625 -1.554688 2.425781 -0.75 3.96875 -0.75 C 4.613281 -0.75 5.207031 -0.832031 5.75 -1 C 5.882812 -1.050781 5.984375 -1.085938 6.046875 -1.109375 L 6.25 -0.390625 C 5.925781 -0.191406 5.34375 -0.0507812 4.5 0.03125 C 4.257812 0.0507812 4.007812 0.0625 3.75 0.0625 C 2.976562 0.0625 2.332031 -0.128906 1.8125 -0.515625 C 1.101562 -1.046875 0.75 -1.921875 0.75 -3.140625 C 0.75 -4.359375 1.066406 -5.296875 1.703125 -5.953125 C 2.347656 -6.609375 3.125 -6.9375 4.03125 -6.9375 C 4.9375 -6.9375 5.617188 -6.644531 6.078125 -6.0625 C 6.429688 -5.59375 6.609375 -4.972656 6.609375 -4.203125 C 6.609375 -4.015625 6.597656 -3.820312 6.578125 -3.625 L 1.671875 -3.625 C 1.660156 -3.550781 1.65625 -3.472656 1.65625 -3.390625 Z M 4.09375 -6.078125 C 3.519531 -6.078125 3.03125 -5.90625 2.625 -5.5625 C 2.226562 -5.21875 1.953125 -4.773438 1.796875 -4.234375 L 5.796875 -4.234375 C 5.742188 -5.253906 5.347656 -5.847656 4.609375 -6.015625 C 4.441406 -6.054688 4.269531 -6.078125 4.09375 -6.078125 Z M 4.09375 -6.078125 "/></g></g></g><g fill="#ffffff" fill-opacity="1"><g transform="translate(302.693467, 347.936432)"><g><path d="M 4.421875 -5.921875 C 4.273438 -6.003906 4.117188 -6.046875 3.953125 -6.046875 C 3.785156 -6.046875 3.691406 -6.039062 3.671875 -6.03125 C 3.328125 -6.03125 2.976562 -5.898438 2.625 -5.640625 C 2.269531 -5.390625 1.96875 -5.109375 1.71875 -4.796875 L 1.71875 0 L 0.828125 0 L 0.828125 -6.875 L 1.71875 -6.953125 L 1.71875 -5.40625 C 2.0625 -5.84375 2.351562 -6.144531 2.59375 -6.3125 C 3.03125 -6.644531 3.453125 -6.820312 3.859375 -6.84375 C 3.910156 -6.851562 4.007812 -6.859375 4.15625 -6.859375 C 4.300781 -6.859375 4.507812 -6.820312 4.78125 -6.75 Z M 4.421875 -5.921875 "/></g></g></g><g fill="#ffffff" fill-opacity="1"><g transform="translate(77.59396, 301.569297)"><g><path d="M 4.152344 -30.644531 C 2.972656 -30.601562 2.667969 -30.339844 2.625 -29.117188 C 2.625 -26.625 2.796875 -24.132812 2.796875 -21.640625 C 2.796875 -17.925781 2.578125 -14.207031 2.753906 -10.535156 C 2.839844 -7.78125 2.839844 -4.984375 2.839844 -2.230469 C 2.839844 -1.574219 2.753906 -0.875 2.886719 -0.0859375 C 6.6875 0 10.359375 0.0429688 14.035156 0.132812 C 14.25 0.132812 14.425781 0.0429688 14.644531 -0.175781 C 14.734375 -3.148438 14.558594 -6.207031 14.777344 -9.179688 C 15.386719 -9.488281 15.914062 -9.398438 16.4375 -9.398438 C 17.835938 -9.488281 19.234375 -9.3125 20.589844 -9.398438 C 22.515625 -9.488281 24.394531 -9.488281 26.273438 -9.617188 C 28.589844 -9.792969 30.644531 -10.753906 32.4375 -12.152344 C 32.875 -12.460938 33.3125 -12.765625 33.53125 -13.289062 C 34.230469 -14.820312 35.367188 -16.21875 35.410156 -18.054688 C 35.410156 -18.710938 35.671875 -19.410156 35.671875 -20.109375 C 35.671875 -22.296875 34.84375 -24.261719 33.707031 -26.054688 C 32.4375 -27.980469 30.601562 -29.070312 28.460938 -29.640625 C 25.792969 -30.382812 23.039062 -30.601562 20.285156 -30.601562 C 19.847656 -30.601562 19.367188 -30.472656 18.929688 -30.472656 C 16.394531 -30.472656 13.859375 -30.515625 11.324219 -30.472656 C 8.960938 -30.382812 6.558594 -30.691406 4.152344 -30.644531 Z M 18.273438 -25.925781 C 18.492188 -25.878906 18.710938 -25.835938 18.929688 -25.835938 C 19.804688 -25.878906 20.503906 -25.398438 20.984375 -24.742188 C 21.507812 -24.132812 21.945312 -23.390625 22.121094 -22.558594 C 22.558594 -20.808594 22.601562 -19.015625 21.945312 -17.269531 C 21.289062 -15.433594 19.804688 -14.078125 17.53125 -14.164062 C 16.65625 -14.164062 15.738281 -14.078125 14.734375 -14.25 C 14.558594 -18.1875 14.644531 -21.988281 14.6875 -25.925781 C 15.914062 -26.097656 17.09375 -26.144531 18.273438 -25.925781 Z M 18.273438 -25.925781 "/></g></g></g><g fill="#ffffff" fill-opacity="1"><g transform="translate(115.229032, 301.569297)"><g><path d="M 17.835938 -23.476562 C 15.957031 -23.519531 14.078125 -23.476562 12.195312 -23.34375 C 9.707031 -23.125 7.300781 -22.515625 4.984375 -21.597656 C 4.546875 -21.421875 4.023438 -21.289062 3.757812 -20.632812 C 4.546875 -19.28125 5.597656 -17.007812 6.078125 -16.699219 C 6.207031 -16.570312 6.949219 -17.050781 7.386719 -17.269531 C 8.570312 -17.925781 9.355469 -18.011719 10.578125 -18.316406 C 12.285156 -18.753906 13.816406 -19.015625 15.5625 -18.40625 C 17.050781 -17.878906 17.925781 -16.742188 17.75 -15.125 C 17.441406 -15.039062 16.917969 -15.171875 16.613281 -15.125 C 15.824219 -15.082031 15.082031 -15.214844 14.296875 -15.214844 C 12.152344 -15.300781 10.011719 -15.039062 7.957031 -14.46875 C 5.902344 -13.902344 4.242188 -12.808594 3.148438 -10.972656 C 2.011719 -9.003906 1.703125 -6.949219 2.1875 -4.765625 C 2.710938 -2.449219 4.195312 -0.917969 6.339844 0 C 8.261719 0.785156 10.316406 0.742188 12.371094 0.480469 C 14.515625 0.175781 16.480469 -0.566406 18.1875 -2.011719 C 18.363281 -2.140625 18.492188 -2.316406 18.753906 -2.316406 C 19.714844 -1.835938 20.152344 -0.785156 20.984375 0.0429688 C 23.300781 0.0429688 25.617188 -0.21875 27.890625 0 C 28.152344 -0.351562 28.152344 -0.613281 28.109375 -0.917969 C 27.933594 -2.710938 27.980469 -4.679688 28.023438 -6.46875 C 28.066406 -9.222656 28.023438 -11.980469 27.980469 -14.734375 C 27.933594 -16.261719 27.5 -17.707031 26.535156 -18.972656 C 26.054688 -19.585938 25.488281 -20.109375 24.875 -20.589844 C 22.863281 -22.296875 20.546875 -23.390625 17.835938 -23.476562 Z M 17.925781 -10.929688 C 17.925781 -9.050781 17.792969 -7.300781 17.96875 -5.597656 C 17.488281 -4.984375 16.917969 -4.546875 16.261719 -4.285156 C 14.820312 -3.628906 12.851562 -4.679688 12.632812 -6.296875 C 12.371094 -8.570312 13.246094 -10.230469 15.824219 -10.796875 C 16.480469 -10.929688 17.179688 -10.929688 17.925781 -10.929688 Z M 17.925781 -10.929688 "/></g></g></g><g fill="#ffffff" fill-opacity="1"><g transform="translate(146.045211, 301.569297)"><g><path d="M 18.144531 -23.34375 C 15.914062 -23.78125 13.683594 -23.695312 11.496094 -23.257812 C 10.054688 -22.996094 8.65625 -22.558594 7.433594 -21.683594 C 5.945312 -20.589844 4.679688 -19.28125 3.714844 -17.707031 C 2.535156 -15.824219 2.140625 -13.816406 1.96875 -11.714844 C 1.835938 -9.707031 2.449219 -7.871094 2.929688 -5.988281 C 3.191406 -5.070312 3.890625 -4.460938 4.460938 -3.757812 C 5.597656 -2.449219 6.90625 -1.355469 8.523438 -0.742188 C 11.105469 0.261719 13.769531 0.960938 16.570312 0.4375 C 18.1875 0.132812 19.804688 0 21.289062 -0.566406 C 23.300781 -1.398438 24.917969 -2.839844 26.492188 -4.285156 C 26.535156 -4.328125 26.535156 -4.460938 26.625 -4.632812 C 25.707031 -5.464844 24.875 -6.46875 23.824219 -7.167969 C 23.257812 -6.949219 22.90625 -6.558594 22.515625 -6.207031 C 21.117188 -5.113281 19.585938 -4.242188 17.707031 -4.285156 C 16.65625 -4.285156 15.738281 -4.589844 14.90625 -5.160156 C 13.945312 -5.769531 13.378906 -6.734375 13.070312 -7.695312 C 12.632812 -9.136719 12.285156 -10.625 12.503906 -12.195312 C 12.632812 -13.027344 12.808594 -13.902344 12.984375 -14.777344 C 13.203125 -16.132812 13.859375 -17.269531 14.90625 -18.144531 C 15.871094 -18.929688 17.050781 -19.28125 18.273438 -18.929688 C 19.761719 -18.535156 20.898438 -17.707031 21.289062 -16.089844 C 21.335938 -15.957031 21.421875 -15.871094 21.507812 -15.78125 C 22.996094 -15.5625 24.394531 -15.957031 25.878906 -15.957031 C 25.878906 -16.175781 25.925781 -16.304688 25.878906 -16.4375 C 25.878906 -16.613281 25.878906 -16.832031 25.835938 -17.007812 C 25.355469 -19.191406 24 -20.679688 22.207031 -21.816406 C 21.160156 -22.472656 19.933594 -22.777344 18.796875 -23.214844 C 18.578125 -23.300781 18.363281 -23.300781 18.144531 -23.34375 Z M 18.144531 -23.34375 "/></g></g></g><g fill="#ffffff" fill-opacity="1"><g transform="translate(174.632128, 301.569297)"><g><path d="M 12.808594 -30.996094 C 11.148438 -31.125 9.488281 -30.996094 7.824219 -30.910156 C 6.121094 -30.777344 4.414062 -30.953125 2.625 -30.777344 C 2.625 -30.078125 2.578125 -29.507812 2.667969 -28.941406 C 2.796875 -27.761719 2.839844 -26.582031 2.839844 -25.398438 C 2.839844 -23.914062 2.753906 -22.472656 2.753906 -21.027344 C 2.796875 -18.230469 2.886719 -15.476562 2.929688 -12.679688 C 2.929688 -12.066406 2.839844 -11.410156 2.886719 -10.796875 C 3.058594 -8.65625 2.886719 -6.515625 2.929688 -4.328125 C 2.929688 -3.191406 2.839844 -2.054688 2.839844 -0.875 C 2.839844 -0.132812 3.105469 0.132812 3.757812 0.0859375 C 6.46875 -0.0429688 9.136719 -0.0859375 11.804688 0.0859375 C 12.242188 0.132812 12.679688 0.21875 13.203125 -0.0859375 C 13.332031 -2.625 13.027344 -5.246094 13.332031 -7.871094 C 13.640625 -8.261719 13.988281 -8.570312 14.46875 -8.832031 C 16.21875 -6.46875 17.355469 -4.328125 19.542969 -0.0429688 C 21.070312 0.0429688 22.515625 -0.132812 23.957031 -0.0859375 C 25.574219 -0.0429688 27.148438 -0.21875 28.722656 0 C 29.773438 0.0859375 30.863281 0.0429688 31.957031 -0.261719 C 32 -0.785156 31.78125 -1.136719 31.5625 -1.488281 C 30.515625 -3.015625 29.421875 -4.679688 28.285156 -6.207031 C 26.363281 -8.789062 24.742188 -11.542969 23.039062 -14.296875 C 22.863281 -14.601562 22.644531 -14.863281 22.601562 -15.300781 C 23.695312 -16.65625 24.960938 -17.792969 26.582031 -18.492188 C 27.628906 -18.972656 28.808594 -19.0625 30.078125 -18.667969 C 30.339844 -19.980469 30.121094 -21.289062 30.296875 -22.515625 C 30.078125 -22.820312 29.773438 -23.125 29.378906 -23.257812 C 27.980469 -23.609375 26.886719 -23.5625 25.53125 -22.996094 C 24.132812 -22.339844 22.90625 -21.421875 21.726562 -20.503906 C 19.148438 -18.578125 16.742188 -16.4375 14.078125 -14.644531 C 13.816406 -14.515625 13.640625 -14.25 13.289062 -14.25 C 13.070312 -14.6875 13.070312 -15.125 13.070312 -15.519531 C 13.246094 -17.355469 13.070312 -19.191406 13.070312 -20.984375 C 13.070312 -23.171875 13.117188 -25.355469 13.070312 -27.542969 C 13.070312 -28.679688 13.203125 -29.816406 12.808594 -30.996094 Z M 12.808594 -30.996094 "/></g></g></g><g fill="#ffffff" fill-opacity="1"><g transform="translate(207.065609, 301.569297)"><g><path d="M 17.835938 -23.476562 C 15.957031 -23.519531 14.078125 -23.476562 12.195312 -23.34375 C 9.707031 -23.125 7.300781 -22.515625 4.984375 -21.597656 C 4.546875 -21.421875 4.023438 -21.289062 3.757812 -20.632812 C 4.546875 -19.28125 5.597656 -17.007812 6.078125 -16.699219 C 6.207031 -16.570312 6.949219 -17.050781 7.386719 -17.269531 C 8.570312 -17.925781 9.355469 -18.011719 10.578125 -18.316406 C 12.285156 -18.753906 13.816406 -19.015625 15.5625 -18.40625 C 17.050781 -17.878906 17.925781 -16.742188 17.75 -15.125 C 17.441406 -15.039062 16.917969 -15.171875 16.613281 -15.125 C 15.824219 -15.082031 15.082031 -15.214844 14.296875 -15.214844 C 12.152344 -15.300781 10.011719 -15.039062 7.957031 -14.46875 C 5.902344 -13.902344 4.242188 -12.808594 3.148438 -10.972656 C 2.011719 -9.003906 1.703125 -6.949219 2.1875 -4.765625 C 2.710938 -2.449219 4.195312 -0.917969 6.339844 0 C 8.261719 0.785156 10.316406 0.742188 12.371094 0.480469 C 14.515625 0.175781 16.480469 -0.566406 18.1875 -2.011719 C 18.363281 -2.140625 18.492188 -2.316406 18.753906 -2.316406 C 19.714844 -1.835938 20.152344 -0.785156 20.984375 0.0429688 C 23.300781 0.0429688 25.617188 -0.21875 27.890625 0 C 28.152344 -0.351562 28.152344 -0.613281 28.109375 -0.917969 C 27.933594 -2.710938 27.980469 -4.679688 28.023438 -6.46875 C 28.066406 -9.222656 28.023438 -11.980469 27.980469 -14.734375 C 27.933594 -16.261719 27.5 -17.707031 26.535156 -18.972656 C 26.054688 -19.585938 25.488281 -20.109375 24.875 -20.589844 C 22.863281 -22.296875 20.546875 -23.390625 17.835938 -23.476562 Z M 17.925781 -10.929688 C 17.925781 -9.050781 17.792969 -7.300781 17.96875 -5.597656 C 17.488281 -4.984375 16.917969 -4.546875 16.261719 -4.285156 C 14.820312 -3.628906 12.851562 -4.679688 12.632812 -6.296875 C 12.371094 -8.570312 13.246094 -10.230469 15.824219 -10.796875 C 16.480469 -10.929688 17.179688 -10.929688 17.925781 -10.929688 Z M 17.925781 -10.929688 "/></g></g></g><g fill="#ffffff" fill-opacity="1"><g transform="translate(237.881788, 301.569297)"><g><path d="M 12.898438 -23.609375 C 12.066406 -23.609375 11.234375 -23.390625 10.449219 -23.171875 C 7.738281 -22.425781 6.03125 -21.421875 4.589844 -19.234375 C 3.714844 -18.011719 3.148438 -16.875 2.667969 -15.476562 C 1.96875 -13.507812 1.835938 -11.496094 2.097656 -9.441406 C 2.273438 -7.914062 2.535156 -6.339844 3.148438 -4.808594 C 3.542969 -3.933594 4.679688 -1.835938 5.464844 -1.53125 C 6.339844 -0.65625 7.34375 -0.21875 8.570312 0.0429688 C 10.011719 0.394531 11.496094 0.613281 13.027344 0.566406 C 15.214844 0.566406 17.53125 0.132812 19.410156 -1.09375 C 20.109375 -1.53125 20.546875 -1.617188 21.335938 -2.1875 C 21.335938 -1.488281 21.378906 -0.960938 21.335938 -0.394531 C 21.070312 2.316406 19.761719 3.453125 17.007812 4.109375 C 15.652344 4.414062 14.035156 4.414062 12.722656 4.285156 C 10.796875 4.023438 9.398438 3.804688 7.695312 2.886719 C 7.039062 2.535156 6.515625 2.054688 5.8125 1.878906 C 5.378906 1.96875 5.203125 2.273438 4.984375 2.535156 C 4.503906 3.148438 3.714844 4.242188 3.324219 4.894531 C 2.886719 5.597656 3.148438 5.859375 4.023438 6.558594 C 5.070312 7.257812 5.726562 7.519531 6.996094 8.042969 C 10.929688 9.660156 15.738281 9.398438 19.890625 9.050781 C 26.886719 8.175781 29.640625 5.945312 30.691406 3.714844 C 31.914062 1.53125 32 0 32.089844 -2.40625 C 32.089844 -3.496094 32.046875 -4.589844 32.046875 -5.683594 C 31.957031 -7.652344 32.308594 -9.574219 32.175781 -11.496094 C 31.957031 -14.777344 32.21875 -18.097656 32.261719 -21.378906 C 32.261719 -22.644531 32.046875 -22.953125 30.777344 -22.996094 C 29.378906 -23.039062 27.980469 -22.863281 26.625 -22.777344 C 25.925781 -22.734375 25.269531 -22.90625 24.570312 -22.734375 C 23.824219 -22.035156 23.039062 -21.289062 22.253906 -20.632812 C 21.816406 -20.765625 21.507812 -21.070312 21.203125 -21.289062 C 19.980469 -22.339844 18.492188 -22.953125 17.007812 -23.300781 C 15.695312 -23.609375 14.296875 -23.5625 12.898438 -23.609375 Z M 16.65625 -18.097656 C 18.097656 -18.625 19.496094 -18.449219 20.632812 -17.3125 C 21.117188 -16.832031 21.421875 -16.351562 21.335938 -15.605469 C 21.289062 -15.125 21.289062 -14.601562 21.289062 -14.121094 L 21.203125 -9.75 C 21.203125 -9.003906 21.289062 -8.261719 21.289062 -7.519531 C 21.289062 -6.863281 21.117188 -6.339844 20.546875 -5.902344 C 19.847656 -5.332031 19.234375 -4.722656 18.316406 -4.460938 C 17.050781 -4.152344 16.089844 -4.589844 15.300781 -5.507812 C 14.46875 -6.425781 14.078125 -7.519531 13.816406 -8.65625 C 13.332031 -10.535156 13.117188 -12.066406 13.550781 -13.988281 C 13.988281 -15.78125 14.777344 -17.398438 16.65625 -18.097656 Z M 16.65625 -18.097656 "/></g></g></g><g fill="#ffffff" fill-opacity="1"><g transform="translate(272.850501, 301.569297)"><g><path d="M 5.945312 -31.914062 C 4.589844 -31.476562 3.453125 -30.910156 2.929688 -29.464844 C 2.753906 -28.941406 2.625 -28.417969 2.753906 -27.933594 C 3.105469 -25.574219 4.765625 -24.65625 6.734375 -24.527344 C 7.433594 -24.527344 8.085938 -24.4375 8.742188 -24.480469 C 10.535156 -24.613281 12.066406 -25.226562 12.984375 -27.015625 C 13.378906 -27.804688 13.421875 -29.464844 12.679688 -30.296875 C 12.066406 -30.953125 11.367188 -31.519531 10.449219 -31.871094 C 8.917969 -32.480469 7.433594 -32.394531 5.945312 -31.914062 Z M 12.898438 -23.039062 C 9.574219 -22.953125 5.988281 -23.125 2.972656 -22.90625 C 2.667969 -22.601562 2.625 -22.339844 2.625 -22.078125 C 2.667969 -21.421875 2.667969 -20.460938 2.710938 -19.847656 C 2.886719 -18.054688 2.796875 -16.523438 2.796875 -14.777344 C 2.796875 -13.027344 2.625 -11.277344 2.625 -9.488281 C 2.667969 -7.125 2.839844 -4.808594 2.796875 -2.449219 C 2.796875 -1.660156 2.710938 -0.917969 2.839844 -0.0429688 C 6.207031 0.0429688 9.574219 0.0429688 12.898438 -0.0859375 C 13.289062 -0.480469 13.246094 -0.832031 13.203125 -1.179688 C 13.117188 -1.792969 13.070312 -2.359375 13.117188 -2.972656 C 13.117188 -5.113281 13.203125 -7.167969 13.203125 -9.269531 C 13.160156 -11.410156 13.160156 -13.550781 13.160156 -15.695312 C 13.160156 -17.574219 13.246094 -19.761719 13.246094 -21.640625 C 13.289062 -22.078125 13.246094 -22.558594 12.898438 -23.039062 Z M 12.898438 -23.039062 "/></g></g></g><g fill="#ffffff" fill-opacity="1"><g transform="translate(288.63014, 301.569297)"><g><path d="M 24.175781 -23.171875 C 21.246094 -23.871094 18.535156 -23.214844 15.824219 -22.207031 C 14.558594 -21.726562 13.464844 -21.027344 12.328125 -20.242188 C 11.542969 -20.898438 11.148438 -22.078125 10.578125 -22.820312 C 7.214844 -23.214844 5.289062 -22.863281 2.667969 -22.820312 C 2.578125 -15.257812 2.625 -7.519531 2.886719 0 L 11.847656 0 C 12.414062 0 12.984375 0.0429688 13.464844 -0.394531 C 13.507812 -2.273438 13.332031 -4.066406 13.289062 -5.902344 C 13.203125 -8.742188 13.246094 -11.542969 13.246094 -14.382812 C 13.246094 -15.039062 13.378906 -15.695312 13.550781 -16.261719 C 14.558594 -17.007812 15.433594 -17.835938 16.570312 -18.273438 C 18.363281 -18.929688 20.285156 -17.792969 20.023438 -15.78125 C 20.023438 -14.425781 19.980469 -13.289062 20.066406 -12.023438 C 20.199219 -10.230469 20.152344 -8.394531 20.152344 -6.558594 C 20.152344 -4.894531 20.199219 -3.191406 20.199219 -1.488281 C 20.199219 -1.09375 20.109375 -0.613281 20.328125 -0.175781 C 20.722656 0.21875 21.117188 0.21875 21.597656 0.21875 C 22.6875 0.132812 23.609375 0.0859375 24.699219 0.0859375 C 26.582031 0.0429688 28.460938 0.0429688 30.339844 0 C 30.558594 0 30.734375 0 30.910156 -0.21875 C 30.820312 -3.585938 30.820312 -6.996094 30.691406 -10.40625 C 30.601562 -12.460938 30.734375 -14.515625 30.601562 -16.570312 C 30.425781 -19.410156 28.855469 -21.246094 26.492188 -22.558594 C 25.75 -22.953125 24.960938 -22.996094 24.175781 -23.171875 Z M 24.175781 -23.171875 "/></g></g></g><g fill="#ffffff" fill-opacity="1"><g transform="translate(322.243816, 301.569297)"><g><path d="M 12.898438 -23.609375 C 12.066406 -23.609375 11.234375 -23.390625 10.449219 -23.171875 C 7.738281 -22.425781 6.03125 -21.421875 4.589844 -19.234375 C 3.714844 -18.011719 3.148438 -16.875 2.667969 -15.476562 C 1.96875 -13.507812 1.835938 -11.496094 2.097656 -9.441406 C 2.273438 -7.914062 2.535156 -6.339844 3.148438 -4.808594 C 3.542969 -3.933594 4.679688 -1.835938 5.464844 -1.53125 C 6.339844 -0.65625 7.34375 -0.21875 8.570312 0.0429688 C 10.011719 0.394531 11.496094 0.613281 13.027344 0.566406 C 15.214844 0.566406 17.53125 0.132812 19.410156 -1.09375 C 20.109375 -1.53125 20.546875 -1.617188 21.335938 -2.1875 C 21.335938 -1.488281 21.378906 -0.960938 21.335938 -0.394531 C 21.070312 2.316406 19.761719 3.453125 17.007812 4.109375 C 15.652344 4.414062 14.035156 4.414062 12.722656 4.285156 C 10.796875 4.023438 9.398438 3.804688 7.695312 2.886719 C 7.039062 2.535156 6.515625 2.054688 5.8125 1.878906 C 5.378906 1.96875 5.203125 2.273438 4.984375 2.535156 C 4.503906 3.148438 3.714844 4.242188 3.324219 4.894531 C 2.886719 5.597656 3.148438 5.859375 4.023438 6.558594 C 5.070312 7.257812 5.726562 7.519531 6.996094 8.042969 C 10.929688 9.660156 15.738281 9.398438 19.890625 9.050781 C 26.886719 8.175781 29.640625 5.945312 30.691406 3.714844 C 31.914062 1.53125 32 0 32.089844 -2.40625 C 32.089844 -3.496094 32.046875 -4.589844 32.046875 -5.683594 C 31.957031 -7.652344 32.308594 -9.574219 32.175781 -11.496094 C 31.957031 -14.777344 32.21875 -18.097656 32.261719 -21.378906 C 32.261719 -22.644531 32.046875 -22.953125 30.777344 -22.996094 C 29.378906 -23.039062 27.980469 -22.863281 26.625 -22.777344 C 25.925781 -22.734375 25.269531 -22.90625 24.570312 -22.734375 C 23.824219 -22.035156 23.039062 -21.289062 22.253906 -20.632812 C 21.816406 -20.765625 21.507812 -21.070312 21.203125 -21.289062 C 19.980469 -22.339844 18.492188 -22.953125 17.007812 -23.300781 C 15.695312 -23.609375 14.296875 -23.5625 12.898438 -23.609375 Z M 16.65625 -18.097656 C 18.097656 -18.625 19.496094 -18.449219 20.632812 -17.3125 C 21.117188 -16.832031 21.421875 -16.351562 21.335938 -15.605469 C 21.289062 -15.125 21.289062 -14.601562 21.289062 -14.121094 L 21.203125 -9.75 C 21.203125 -9.003906 21.289062 -8.261719 21.289062 -7.519531 C 21.289062 -6.863281 21.117188 -6.339844 20.546875 -5.902344 C 19.847656 -5.332031 19.234375 -4.722656 18.316406 -4.460938 C 17.050781 -4.152344 16.089844 -4.589844 15.300781 -5.507812 C 14.46875 -6.425781 14.078125 -7.519531 13.816406 -8.65625 C 13.332031 -10.535156 13.117188 -12.066406 13.550781 -13.988281 C 13.988281 -15.78125 14.777344 -17.398438 16.65625 -18.097656 Z M 16.65625 -18.097656 "/></g></g></g></svg>