<svg width="187" height="58" viewBox="0 0 187 58" fill="none" xmlns="http://www.w3.org/2000/svg">
<path d="M72.8408 34.5861L72.3294 32.5738H68.5369L67.9829 34.5861H65L69.3891 20.8354H71.605L75.9515 34.5861H72.926H72.8408ZM70.4118 25.0996L69.2613 29.7949H71.5624L70.4118 25.0996ZM84.1757 34.5861L83.6644 32.5738H79.8718L79.3179 34.5861H76.335L80.7241 20.8354H82.94L87.2864 34.5861H84.2609H84.1757ZM81.7468 25.0996L80.5963 29.7949H82.8973L81.7468 25.0996ZM90.7381 34.5861H88.0535V20.8354H91.5051C92.4426 20.8354 93.1244 20.8834 93.5931 21.0271C94.0619 21.1708 94.488 21.4104 94.8289 21.7937C95.7237 22.7519 96.1925 23.9976 96.1925 25.5787C96.1925 26.7286 95.9368 27.6868 95.4681 28.4534C94.9567 29.22 94.3175 29.6991 93.4653 29.8907L96.4482 34.5861H93.2522L90.6955 30.1303V34.5861H90.7381ZM90.7381 23.9497V27.7347H91.7182C92.9113 27.7347 93.5505 27.1119 93.5505 25.8182C93.5505 24.5725 92.9539 23.9497 91.7608 23.9497H90.7381ZM103.735 34.5861H97.6839V20.8354H103.735V23.9497H100.326V26.0578H103.607V29.1721H100.326V31.4718H103.735V34.5861ZM108.167 34.5861H105.397V20.8354H108.167V26.0099H111.746V20.8354H114.516V34.5861H111.746V29.1241H108.167V34.5861ZM123.294 34.5861L122.783 32.5738H118.99L118.436 34.5861H115.453L119.843 20.8354H122.058L126.405 34.5861H123.379H123.294ZM120.865 25.0996L119.715 29.7949H122.016L120.865 25.0996ZM137.356 34.5861H131.305V20.8354H137.356V23.9497H133.947V26.0578H137.228V29.1721H133.947V31.4718H137.356V34.5861ZM144.984 34.5861H138.976V20.8354H141.745V31.4718H144.984V34.5861ZM153.464 34.5861L152.953 32.5738H149.16L148.606 34.5861H145.623L150.012 20.8354H152.228L156.575 34.5861H153.549H153.464ZM151.035 25.0996L149.884 29.7949H152.186L151.035 25.0996ZM163.648 22.1291C163.904 22.5123 164.074 22.8956 164.202 23.2789C164.287 23.6622 164.373 24.1413 164.415 24.8121H161.646C161.56 23.9497 161.219 23.4706 160.665 23.4706C160.41 23.4706 160.197 23.5664 159.984 23.758C159.813 23.9497 159.685 24.1893 159.685 24.4767C159.685 25.0037 159.984 25.4829 160.623 25.8182L161.986 26.5848C162.924 27.1119 163.563 27.6868 163.947 28.2617C164.33 28.8846 164.543 29.6033 164.543 30.5136C164.543 31.8551 164.202 32.8612 163.52 33.6278C162.839 34.3465 161.901 34.7298 160.708 34.7298C159.472 34.7298 158.535 34.3465 157.81 33.532C157.086 32.7654 156.745 31.7114 156.745 30.3698V29.9386H159.557C159.557 30.5136 159.643 30.9448 159.856 31.2802C160.069 31.6155 160.325 31.8072 160.708 31.8072C161.006 31.8072 161.262 31.6635 161.475 31.4239C161.688 31.1843 161.773 30.849 161.773 30.4657C161.773 29.8907 161.39 29.3637 160.623 28.9804L159.344 28.3096C158.833 28.0222 158.364 27.6868 158.023 27.3514C157.299 26.6327 156.916 25.6745 156.916 24.5246C156.916 23.3748 157.299 22.4165 158.023 21.6499C158.748 20.8834 159.685 20.4521 160.751 20.4521C162.029 20.4521 163.009 20.9792 163.691 22.0332L163.648 22.1291ZM169.955 34.5861H167.185V23.9497H165.012V20.8354H172.128V23.9497H169.955V34.5861ZM175.963 34.5861H173.194V20.8354H175.963V34.5861ZM180.48 34.5861H177.796V20.8354H180.182L184.443 29.5074L184.315 20.8354H187V34.5861H184.571L180.352 26.2494L180.48 34.5861Z" fill="white"/>
<path d="M69.1026 44.9476C69.1026 45.0687 69.1026 45.1898 69.1026 45.2503C69.1026 45.3108 69.1026 45.3714 69.044 45.4319C69.044 45.4924 68.9854 45.4924 68.9854 45.553C68.9854 45.553 68.9268 45.6135 68.8682 45.6135H66.5238V47.6112H68.6923C68.7509 47.6112 68.7509 47.6112 68.8096 47.6112C68.8096 47.6112 68.8682 47.6717 68.8682 47.7322C68.8682 47.7928 68.9268 47.8533 68.9268 47.9138C68.9268 47.9744 68.9268 48.0954 68.9268 48.2165C68.9268 48.3376 68.9268 48.3981 68.9268 48.5192C68.9268 48.5797 68.9268 48.6403 68.8682 48.7008C68.8682 48.7613 68.8096 48.7613 68.8096 48.8219C68.8096 48.8219 68.7509 48.8824 68.6923 48.8824H66.5238V51.667C66.5238 51.7276 66.5238 51.7276 66.4652 51.7881C66.4652 51.7881 66.4066 51.8486 66.348 51.8486C66.2894 51.8486 66.2308 51.9092 66.1136 51.9092C65.9964 51.9092 65.8792 51.9092 65.7619 51.9092C65.6447 51.9092 65.5275 51.9092 65.4103 51.9092C65.2931 51.9092 65.2345 51.9092 65.1759 51.8486C65.1172 51.8486 65.0586 51.7881 65.0586 51.7881C65.0586 51.7276 65 51.7276 65 51.667V44.8871C65 44.7055 65.0586 44.5844 65.1172 44.5239C65.1759 44.4633 65.2931 44.4028 65.4103 44.4028H68.7509C68.8096 44.4028 68.8096 44.4028 68.8682 44.4633C68.8682 44.4633 68.9268 44.5239 68.9268 44.5844C68.9268 44.6449 68.9854 44.7055 68.9854 44.766C68.9854 44.8265 68.9854 44.9476 68.9854 45.0687L69.1026 44.9476ZM71.74 51.6065C71.74 51.667 71.74 51.667 71.6813 51.7276C71.6813 51.7276 71.6227 51.7881 71.5641 51.7881C71.5055 51.7881 71.4469 51.8486 71.3297 51.8486C71.2125 51.8486 71.0953 51.8486 70.9781 51.8486C70.8608 51.8486 70.7436 51.8486 70.6264 51.8486C70.5092 51.8486 70.4506 51.8486 70.392 51.7881C70.3334 51.7881 70.2748 51.7276 70.2748 51.7276C70.2748 51.667 70.2161 51.667 70.2161 51.6065V44.5239C70.2161 44.4633 70.2161 44.4633 70.2748 44.4028C70.2748 44.4028 70.3334 44.3423 70.392 44.3423C70.4506 44.3423 70.5092 44.2817 70.6264 44.2817C70.7436 44.2817 70.8608 44.2817 70.9781 44.2817C71.0953 44.2817 71.2125 44.2817 71.3297 44.2817C71.4469 44.2817 71.5055 44.2817 71.5641 44.3423C71.6227 44.3423 71.6813 44.4028 71.6813 44.4028C71.6813 44.4633 71.74 44.4633 71.74 44.5239V51.6065ZM78.4799 49.5483C78.4799 49.7904 78.4213 50.0326 78.3627 50.2747C78.3041 50.5168 78.1868 50.6985 78.0696 50.8195C77.9524 51.0011 77.7766 51.1222 77.6008 51.2433C77.4249 51.3643 77.2491 51.4854 77.0147 51.5459C76.7803 51.6065 76.6044 51.667 76.37 51.7276C76.1356 51.7881 75.9011 51.7881 75.6081 51.7881H73.7326C73.6154 51.7881 73.4982 51.7276 73.4396 51.667C73.381 51.6065 73.3224 51.4854 73.3224 51.3038V44.766C73.3224 44.5844 73.381 44.4633 73.4396 44.4028C73.4982 44.3423 73.6154 44.2817 73.7326 44.2817H75.5495C75.9597 44.2817 76.37 44.3423 76.663 44.4028C76.9561 44.4633 77.2491 44.5844 77.4249 44.766C77.6594 44.9476 77.7766 45.1292 77.8938 45.3714C78.011 45.6135 78.0696 45.9162 78.0696 46.2189C78.0696 46.4005 78.0696 46.5821 78.011 46.7031C77.9524 46.8847 77.8938 47.0058 77.8352 47.1269C77.7766 47.2479 77.6594 47.369 77.5422 47.4901C77.4249 47.6112 77.3077 47.6717 77.1319 47.7322C77.3077 47.7928 77.5422 47.8533 77.718 47.9138C77.8938 48.0349 78.011 48.156 78.1868 48.277C78.3041 48.4587 78.4213 48.5797 78.4799 48.8219C78.5385 49.0035 78.5971 49.2456 78.5971 49.4878L78.4799 49.5483ZM76.6044 46.4005C76.6044 46.2794 76.6044 46.0978 76.5458 45.9767C76.4872 45.8556 76.4286 45.7346 76.37 45.674C76.2528 45.6135 76.1942 45.553 76.0183 45.4924C75.9011 45.4319 75.7253 45.4319 75.4909 45.4319H74.7876V47.369H75.6081C75.8425 47.369 75.9597 47.369 76.1356 47.3085C76.2528 47.2479 76.37 47.1874 76.4286 47.0663C76.4872 47.0058 76.5458 46.8847 76.6044 46.7637C76.663 46.6426 76.663 46.5215 76.663 46.4005H76.6044ZM76.9561 49.6088C76.9561 49.4272 76.9561 49.3061 76.8975 49.1245C76.8389 49.0035 76.7803 48.8824 76.663 48.7613C76.5458 48.6403 76.4286 48.5797 76.2528 48.5192C76.077 48.4587 75.9011 48.4587 75.6081 48.4587H74.729V50.5774H75.7839C75.9597 50.5774 76.1356 50.5774 76.3114 50.5168C76.4286 50.4563 76.5458 50.3958 76.663 50.3352C76.7803 50.2747 76.8389 50.1536 76.8975 50.0326C76.9561 49.9115 76.9561 49.7299 76.9561 49.6088ZM84.5751 50.6379C84.5751 50.759 84.5751 50.8195 84.5751 50.8801C84.5751 50.9406 84.5751 51.0011 84.5751 51.0617C84.5751 51.1222 84.5751 51.1222 84.5165 51.1827C84.5165 51.2433 84.4579 51.2433 84.3993 51.3038C84.3407 51.3643 84.2821 51.4249 84.1649 51.4854C84.0476 51.5459 83.9304 51.6065 83.7546 51.667C83.5788 51.7276 83.403 51.7881 83.1685 51.8486C82.9341 51.9092 82.6997 51.9092 82.4652 51.9092C81.9964 51.9092 81.5275 51.8486 81.1172 51.667C80.707 51.4854 80.4139 51.2433 80.1209 50.9406C79.8279 50.6379 79.652 50.2142 79.4762 49.7904C79.359 49.3061 79.2418 48.7613 79.2418 48.156C79.2418 47.5506 79.3004 46.9453 79.4762 46.461C79.652 45.9767 79.8865 45.553 80.1795 45.2503C80.4726 44.8871 80.8242 44.6449 81.2345 44.4633C81.6447 44.2817 82.1136 44.2212 82.5824 44.2212C82.7583 44.2212 82.9927 44.2212 83.1685 44.2817C83.3444 44.3423 83.5202 44.3423 83.696 44.4028C83.8718 44.4633 83.989 44.5239 84.1063 44.5844C84.2235 44.6449 84.3407 44.7055 84.3407 44.766C84.3993 44.8265 84.3993 44.8871 84.4579 44.8871C84.4579 44.9476 84.5165 44.9476 84.5165 45.0081C84.5165 45.0687 84.5165 45.1292 84.5165 45.1898C84.5165 45.2503 84.5165 45.3714 84.5165 45.4319C84.5165 45.553 84.5165 45.674 84.5165 45.7346C84.5165 45.7951 84.5165 45.8556 84.4579 45.9162C84.4579 45.9767 84.3993 45.9767 84.3993 46.0372C84.3993 46.0372 84.3407 46.0978 84.2821 46.0978C84.2235 46.0978 84.1649 46.0372 84.0476 45.9767C83.989 45.9162 83.8718 45.8556 83.696 45.7346C83.5788 45.674 83.403 45.553 83.2271 45.4924C83.0513 45.4319 82.8169 45.3714 82.5824 45.3714C82.2894 45.3714 82.055 45.4319 81.8205 45.553C81.5861 45.674 81.4103 45.8556 81.2345 46.0978C81.0586 46.3399 80.9414 46.5821 80.8828 46.9453C80.8242 47.2479 80.7656 47.6112 80.7656 48.0349C80.7656 48.4587 80.8242 48.8824 80.8828 49.1851C80.9414 49.4878 81.1172 49.7904 81.2345 49.972C81.4103 50.1536 81.5861 50.3352 81.8205 50.4563C82.055 50.5774 82.2894 50.6379 82.5824 50.6379C82.8169 50.6379 83.0513 50.5774 83.2271 50.5168C83.403 50.4563 83.5788 50.3958 83.696 50.3352C83.8132 50.2747 83.9304 50.2142 84.0476 50.1536C84.1063 50.0931 84.2235 50.0326 84.2235 50.0326C84.2821 50.0326 84.2821 50.0326 84.2821 50.0326C84.2821 50.0326 84.3407 50.0931 84.3407 50.1536C84.3407 50.2142 84.3407 50.2747 84.3993 50.3352C84.3993 50.3958 84.3993 50.5168 84.3993 50.6985L84.5751 50.6379ZM93.0733 46.5821C93.0733 47.0058 93.0147 47.369 92.8975 47.6717C92.7803 47.9744 92.6044 48.277 92.37 48.5192C92.1356 48.7613 91.8425 48.8824 91.4909 49.0035C91.1392 49.1245 90.729 49.1851 90.2601 49.1851H89.674V51.5459C89.674 51.6065 89.674 51.6065 89.6154 51.667C89.6154 51.667 89.5568 51.7276 89.4982 51.7276C89.4396 51.7276 89.381 51.7881 89.2638 51.7881C89.1466 51.7881 89.0293 51.7881 88.9121 51.7881C88.7949 51.7881 88.6777 51.7881 88.5605 51.7881C88.4433 51.7881 88.3846 51.7881 88.326 51.7276C88.2674 51.7276 88.2088 51.667 88.2088 51.667C88.2088 51.6065 88.1502 51.6065 88.1502 51.5459V44.8265C88.1502 44.6449 88.2088 44.5239 88.2674 44.4028C88.3846 44.3423 88.5019 44.2817 88.6191 44.2817H90.3187C90.4945 44.2817 90.6704 44.2817 90.7876 44.2817C90.9634 44.2817 91.1392 44.3423 91.315 44.3423C91.5495 44.4028 91.7253 44.4633 91.9597 44.5844C92.1942 44.7055 92.37 44.8265 92.5458 45.0081C92.7216 45.1898 92.8389 45.4319 92.8975 45.674C92.9561 45.9162 93.0147 46.2189 93.0147 46.5215L93.0733 46.5821ZM91.5495 46.7031C91.5495 46.461 91.4909 46.2189 91.4323 46.0372C91.315 45.8556 91.2564 45.7346 91.0806 45.674C90.9634 45.6135 90.7876 45.553 90.6704 45.4924C90.5531 45.4924 90.3773 45.4319 90.2015 45.4319H89.5568V47.9744H90.2015C90.4359 47.9744 90.6118 47.9138 90.7876 47.8533C90.9634 47.7928 91.0806 47.6717 91.1978 47.5506C91.315 47.4296 91.3737 47.3085 91.4323 47.1269C91.4909 46.9453 91.4909 46.7637 91.4909 46.5821L91.5495 46.7031ZM97.7033 51.5459C97.7033 51.6065 97.6447 51.667 97.6447 51.7276C97.5861 51.7881 97.5861 51.7881 97.5275 51.8486C97.4689 51.8486 97.3517 51.9092 97.2345 51.9092C97.1172 51.9092 97 51.9092 96.7656 51.9092C96.5898 51.9092 96.4726 51.9092 96.4139 51.9092C96.2967 51.9092 96.2381 51.9092 96.1209 51.9092C96.0623 51.9092 96.0037 51.9092 95.9451 51.8486C95.8865 51.8486 95.8865 51.7881 95.8279 51.7881C95.7693 51.7881 95.7693 51.7276 95.7693 51.7276C95.7693 51.667 95.7107 51.667 95.7107 51.6065L93.6008 45.0081C93.5422 44.8871 93.5422 44.766 93.5422 44.7055C93.5422 44.6449 93.5422 44.5844 93.6008 44.5239C93.6594 44.4633 93.718 44.4633 93.8352 44.4633C93.9524 44.4633 94.1282 44.4633 94.3041 44.4633C94.4799 44.4633 94.5971 44.4633 94.7143 44.4633C94.8315 44.4633 94.8901 44.4633 94.9487 44.5239C95.0074 44.5239 95.066 44.5844 95.066 44.5844C95.066 44.6449 95.1246 44.6449 95.1246 44.7055L96.8828 50.4563L98.5824 44.7055C98.5824 44.6449 98.6411 44.5844 98.6411 44.5239C98.6411 44.4633 98.6997 44.4633 98.7583 44.4028C98.8169 44.4028 98.8755 44.3423 98.9927 44.3423C99.1099 44.3423 99.2271 44.3423 99.403 44.3423C99.5788 44.3423 99.696 44.3423 99.8132 44.3423C99.9304 44.3423 99.989 44.4028 99.989 44.4028C100.048 44.4633 100.048 44.5239 100.048 44.5844C100.048 44.6449 99.989 44.766 99.989 44.8871L97.8792 51.4854L97.7033 51.5459ZM105.557 44.9476C105.557 45.0687 105.557 45.1292 105.557 45.2503C105.557 45.3108 105.557 45.3714 105.498 45.4319C105.498 45.4924 105.44 45.4924 105.44 45.553C105.44 45.553 105.381 45.6135 105.322 45.6135H103.564V51.6065C103.564 51.667 103.564 51.667 103.506 51.7276C103.506 51.7276 103.447 51.7881 103.388 51.7881C103.33 51.7881 103.271 51.8486 103.154 51.8486C103.037 51.8486 102.919 51.8486 102.802 51.8486C102.685 51.8486 102.568 51.8486 102.451 51.8486C102.333 51.8486 102.275 51.8486 102.216 51.7881C102.158 51.7881 102.099 51.7276 102.099 51.7276C102.099 51.667 102.04 51.667 102.04 51.6065V45.6135H100.282C100.223 45.6135 100.223 45.6135 100.165 45.553C100.165 45.553 100.106 45.4924 100.106 45.4319C100.106 45.3714 100.048 45.3108 100.048 45.2503C100.048 45.1898 100.048 45.0687 100.048 44.9476C100.048 44.8265 100.048 44.7055 100.048 44.6449C100.048 44.5844 100.048 44.5239 100.106 44.4633C100.106 44.4028 100.165 44.4028 100.165 44.3423C100.165 44.3423 100.223 44.2817 100.282 44.2817H105.322C105.381 44.2817 105.381 44.2817 105.44 44.3423C105.44 44.3423 105.498 44.4028 105.498 44.4633C105.498 44.5239 105.557 44.5844 105.557 44.6449C105.557 44.7055 105.557 44.8265 105.557 44.9476ZM107.022 50.9406C107.022 51.3038 106.963 51.5459 106.846 51.667C106.729 51.7881 106.495 51.8486 106.201 51.8486C105.908 51.8486 105.674 51.7881 105.557 51.667C105.44 51.5459 105.381 51.3038 105.381 51.0011C105.381 50.6379 105.44 50.3958 105.557 50.2747C105.674 50.1536 105.908 50.0931 106.201 50.0931C106.495 50.0931 106.729 50.1536 106.846 50.2747C106.963 50.3958 107.022 50.6379 107.022 51.0011V50.9406ZM114.993 51.1222C114.993 51.2433 114.993 51.3643 114.993 51.4249C114.993 51.4854 114.993 51.5459 114.934 51.6065C114.934 51.667 114.875 51.667 114.875 51.7276C114.875 51.7276 114.817 51.7881 114.758 51.7881H111.476C111.359 51.7881 111.242 51.7276 111.183 51.667C111.125 51.6065 111.066 51.4854 111.066 51.3038V44.5239C111.066 44.4633 111.066 44.4633 111.125 44.4028C111.125 44.4028 111.183 44.3423 111.242 44.3423C111.3 44.3423 111.359 44.2817 111.476 44.2817C111.593 44.2817 111.711 44.2817 111.828 44.2817C111.945 44.2817 112.062 44.2817 112.18 44.2817C112.297 44.2817 112.355 44.2817 112.414 44.3423C112.473 44.3423 112.531 44.4028 112.531 44.4028C112.531 44.4633 112.59 44.4633 112.59 44.5239V50.5168H114.817C114.875 50.5168 114.875 50.5168 114.934 50.5774C114.934 50.5774 114.993 50.6379 114.993 50.6985C114.993 50.759 115.051 50.8195 115.051 50.8801C115.051 50.9406 115.051 51.0617 115.051 51.1827L114.993 51.1222ZM119.74 44.8871C119.74 45.0081 119.74 45.0687 119.74 45.1898C119.74 45.2503 119.74 45.3108 119.681 45.3714C119.681 45.4319 119.623 45.4319 119.623 45.4924C119.623 45.4924 119.564 45.553 119.506 45.553H117.747V51.5459C117.747 51.6065 117.747 51.6065 117.689 51.667C117.689 51.667 117.63 51.7276 117.571 51.7276C117.513 51.7276 117.454 51.7881 117.337 51.7881C117.22 51.7881 117.103 51.7881 116.985 51.7881C116.868 51.7881 116.751 51.7881 116.634 51.7881C116.517 51.7881 116.458 51.7881 116.399 51.7276C116.341 51.7276 116.282 51.667 116.282 51.667C116.282 51.6065 116.223 51.6065 116.223 51.5459V45.553H114.465C114.407 45.553 114.407 45.553 114.348 45.4924C114.348 45.4924 114.289 45.4319 114.289 45.3714C114.289 45.3108 114.231 45.2503 114.231 45.1898C114.231 45.1292 114.231 45.0081 114.231 44.8871C114.231 44.766 114.231 44.6449 114.231 44.5844C114.231 44.5239 114.231 44.4633 114.289 44.4028C114.289 44.3423 114.348 44.3423 114.348 44.2817C114.348 44.2817 114.407 44.2212 114.465 44.2212H119.506C119.564 44.2212 119.564 44.2212 119.623 44.2817C119.623 44.2817 119.681 44.3423 119.681 44.4028C119.681 44.4633 119.74 44.5239 119.74 44.5844C119.74 44.6449 119.74 44.766 119.74 44.8871ZM126.538 47.9138C126.538 48.5797 126.48 49.1851 126.304 49.6694C126.128 50.1536 125.894 50.5774 125.542 50.8801C125.249 51.1827 124.839 51.4249 124.37 51.5459C123.901 51.667 123.374 51.7881 122.729 51.7881H121.029C120.912 51.7881 120.795 51.7276 120.736 51.667C120.678 51.6065 120.619 51.4854 120.619 51.3038V44.766C120.619 44.5844 120.678 44.4633 120.736 44.4028C120.795 44.3423 120.912 44.2817 121.029 44.2817H122.846C123.491 44.2817 124.018 44.3423 124.487 44.5239C124.956 44.7055 125.308 44.8871 125.601 45.1898C125.894 45.4924 126.128 45.8556 126.304 46.3399C126.48 46.7637 126.538 47.3085 126.538 47.9138ZM125.015 47.9744C125.015 47.6112 124.956 47.3085 124.897 47.0058C124.839 46.7031 124.663 46.461 124.546 46.2189C124.37 45.9767 124.136 45.7951 123.901 45.674C123.608 45.553 123.256 45.4924 122.846 45.4924H122.084V50.5774H122.846C123.256 50.5774 123.608 50.5168 123.843 50.3958C124.136 50.2747 124.37 50.1536 124.546 49.9115C124.722 49.6694 124.839 49.4272 124.956 49.1245C125.073 48.8219 125.073 48.3981 125.073 47.9744H125.015ZM129 50.9406C129 51.3038 128.941 51.5459 128.824 51.667C128.707 51.7881 128.473 51.8486 128.18 51.8486C127.886 51.8486 127.652 51.7881 127.535 51.667C127.418 51.5459 127.359 51.3038 127.359 51.0011C127.359 50.6379 127.418 50.3958 127.535 50.2747C127.652 50.1536 127.886 50.0931 128.18 50.0931C128.473 50.0931 128.707 50.1536 128.824 50.2747C128.941 50.3958 129 50.6379 129 51.0011V50.9406Z" fill="white"/>
<path fill-rule="evenodd" clip-rule="evenodd" d="M10.7971 13.853L51.7477 14.127L55.2169 56.7882H18.3792C19.166 54.7921 19.4164 52.796 18.4507 50.6434H7.68556C6.25497 49.8215 5.39662 48.4125 7.68556 47.3166L24.8884 47.1601C26.0329 46.2207 26.0329 45.0466 24.8884 44.029L13.3006 43.9898C11.8343 42.894 11.7985 41.7981 13.3006 40.663L18.6296 40.6239C20.0244 39.0584 19.5595 38.3539 18.6296 37.1406L8.57968 37.1797C7.47098 36.9057 6.54109 34.9488 8.57968 34.2834L21.1689 34.0095C22.5637 33.2658 23.2432 31.4263 21.1689 30.7218L4.07333 30.6827C2.60697 29.9782 2.32085 28.1387 4.07333 27.4733L25.2818 27.1993C26.7124 26.3383 26.9628 24.6945 25.2818 23.6377L13.1933 23.7551C11.9058 23.2072 11.5124 21.5634 13.1933 20.7806L23.1002 20.7023C24.3519 20.1935 24.7811 18.3931 23.1002 17.2972L10.8329 17.219C9.54533 16.4362 9.04462 15.0272 10.8329 13.853H10.7971Z" fill="white"/>
<path fill-rule="evenodd" clip-rule="evenodd" d="M0.997622 20.8657C2.6428 20.8657 4.32375 20.8657 5.96893 20.8657C7.43528 22.1573 7.0061 23.2923 5.96893 23.8794H0.997622C0.0319726 22.8226 -0.576029 22.3138 0.997622 20.8657Z" fill="white"/>
<path fill-rule="evenodd" clip-rule="evenodd" d="M2.75021 40.7798C4.39538 40.7798 6.07632 40.7798 7.72149 40.7798C9.18784 42.0714 8.75867 43.2064 7.72149 43.7935H2.75021C1.78457 42.7367 1.17657 42.2279 2.75021 40.7798Z" fill="white"/>
<path fill-rule="evenodd" clip-rule="evenodd" d="M1.78454 53.7749C5.25373 53.7749 8.75867 53.7749 12.2279 53.7749C15.1606 55.1448 13.265 56.9451 12.2279 57.2582H1.78454C0.532777 56.4363 -0.862048 55.3013 1.78454 53.7749Z" fill="white"/>
<path d="M46.3472 20.4359C47.2755 20.4359 48.0281 19.6123 48.0281 18.5964C48.0281 17.5804 47.2755 16.7568 46.3472 16.7568C45.4188 16.7568 44.6662 17.5804 44.6662 18.5964C44.6662 19.6123 45.4188 20.4359 46.3472 20.4359Z" fill="#FFF8FD"/>
<path d="M29.073 20.389C30.0014 20.389 30.754 19.5654 30.754 18.5495C30.754 17.5335 30.0014 16.71 29.073 16.71C28.1447 16.71 27.3921 17.5335 27.3921 18.5495C27.3921 19.5654 28.1447 20.389 29.073 20.389Z" fill="#FFF8FD"/>
<path fill-rule="evenodd" clip-rule="evenodd" d="M47.1341 18.5533C46.848 18.7882 46.3473 18.8665 45.9181 18.5533C45.8108 0.236432 31.183 -5.63437 29.8955 18.3968C29.4305 18.7099 29.0014 18.749 28.4649 18.3968C27.8927 -2.69897 46.4546 -7.47389 47.1341 18.5533Z" fill="white"/>
</svg>
