<svg width="60" height="60" viewBox="0 0 60 60" fill="none" xmlns="http://www.w3.org/2000/svg">
<path d="M14.355 17.7342C14.5725 17.7341 14.7811 17.6476 14.9349 17.4938C15.0887 17.34 15.1752 17.1314 15.1753 16.9139V13.8281C15.1753 13.6106 15.0889 13.4019 14.935 13.2481C14.7812 13.0942 14.5726 13.0078 14.355 13.0078C14.1374 13.0078 13.9288 13.0942 13.7749 13.2481C13.6211 13.4019 13.5347 13.6106 13.5347 13.8281V16.9139C13.5347 17.0216 13.5559 17.1283 13.5971 17.2278C13.6384 17.3274 13.6988 17.4178 13.7749 17.494C13.8511 17.5701 13.9416 17.6306 14.0411 17.6718C14.1406 17.713 14.2473 17.7342 14.355 17.7342Z" fill="white"/>
<path d="M28.2961 37.8455C28.251 37.6685 28.1481 37.5117 28.0037 37.3999C27.8594 37.2881 27.6818 37.2276 27.4992 37.2282H6.82968C6.64705 37.2275 6.46945 37.2879 6.32508 37.3998C6.1807 37.5116 6.07783 37.6685 6.03281 37.8455C5.79756 38.7666 5.67866 39.7135 5.6789 40.6641C5.67742 42.293 6.02248 43.9037 6.69118 45.389C7.35989 46.8744 8.33692 48.2005 9.55742 49.2793C10.7779 50.3581 12.214 51.1649 13.7702 51.6462C15.3264 52.1275 16.9672 52.2722 18.5836 52.0707C20.2001 51.8693 21.7551 51.3263 23.1456 50.4777C24.5361 49.6292 25.7302 48.4945 26.6485 47.1492C27.5669 45.8038 28.1885 44.2784 28.4722 42.6743C28.7558 41.0703 28.695 39.4242 28.2937 37.8455H28.2961ZM17.1656 50.5079C14.5558 50.5049 12.0537 49.4668 10.2083 47.6214C8.36291 45.776 7.32484 43.2739 7.32187 40.6641C7.32177 40.0618 7.37747 39.4608 7.48827 38.8688H26.8434C27.1077 40.2894 27.0558 41.7507 26.6915 43.149C26.3272 44.5473 25.6595 45.8482 24.7356 46.9592C23.8118 48.0703 22.6546 48.9642 21.3463 49.5775C20.0379 50.1908 18.6106 50.5085 17.1656 50.5079Z" fill="white"/>
<path d="M56.9531 53.3204H53.8772V51.3282C53.8772 51.1106 53.7908 50.902 53.6369 50.7481C53.4831 50.5943 53.2744 50.5079 53.0569 50.5079H52.4719V14.9729H55.8403C56.0579 14.9729 56.2665 14.8864 56.4204 14.7326C56.5742 14.5788 56.6606 14.3701 56.6606 14.1525V11.34C56.6605 11.1225 56.574 10.9139 56.4202 10.7601C56.2664 10.6063 56.0578 10.5199 55.8403 10.5197H52.4719V7.12036C52.4718 6.90284 52.3853 6.69426 52.2315 6.54045C52.0777 6.38664 51.8691 6.30017 51.6516 6.30005H48.8391C48.6215 6.30017 48.413 6.38664 48.2592 6.54045C48.1053 6.69426 48.0189 6.90284 48.0188 7.12036V10.5197H44.475V6.66755C45.0545 6.63843 45.5997 6.38374 45.9939 5.95793C46.3881 5.53212 46.6001 4.96899 46.5846 4.38892C46.569 3.80886 46.3272 3.25789 45.9107 2.85382C45.4942 2.44975 44.9362 2.22463 44.3559 2.22661H34.5122C33.9304 2.22287 33.3704 2.44744 32.9524 2.8521C32.5345 3.25675 32.2919 3.8092 32.2768 4.39077C32.2617 4.97234 32.4753 5.53663 32.8717 5.96243C33.2681 6.38823 33.8157 6.64156 34.3969 6.66802V10.5197H33.1059C32.8884 10.5199 32.6798 10.6063 32.526 10.7601C32.3722 10.9139 32.2857 11.1225 32.2856 11.34V14.1525C32.2856 14.3701 32.3721 14.5788 32.5259 14.7326C32.6797 14.8864 32.8884 14.9729 33.1059 14.9729H34.3969V36.1501C34.3963 37.1465 34.6914 38.1207 35.2448 38.9494C35.7981 39.7781 36.5849 40.4241 37.5055 40.8055C38.4261 41.1869 39.4391 41.2866 40.4164 41.0921C41.3937 40.8975 42.2913 40.4174 42.9956 39.7126C43.4664 39.2467 43.8396 38.6917 44.0936 38.0801C44.3476 37.4684 44.4773 36.8123 44.475 36.1501V14.9729H48.0188V50.5079H47.4319C47.2144 50.508 47.0058 50.5945 46.852 50.7483C46.6982 50.9021 46.6117 51.1107 46.6116 51.3282V53.3204H23.8045C26.1309 52.1015 28.0763 50.2652 29.4272 48.013C30.7781 45.7608 31.4822 43.1799 31.4622 40.5537C31.4422 37.9275 30.6989 35.3576 29.3138 33.1263C27.9288 30.8949 25.9556 29.0884 23.6109 27.9052V25.2108C23.6109 25.2052 23.6109 25.2005 23.6109 25.1949C23.6109 25.1893 23.6109 25.1846 23.6109 25.179V22.0468C23.6109 22.0411 23.6109 22.0365 23.6109 22.0308C23.6109 22.0252 23.6109 22.0205 23.6109 22.0149V18.8827C23.6109 18.8771 23.6109 18.8724 23.6109 18.8668C23.6109 18.8611 23.6109 18.8565 23.6109 18.8508V15.7186C23.6109 15.713 23.6109 15.7083 23.6109 15.7027C23.6109 15.6971 23.6109 15.6924 23.6109 15.6868V12.5546C23.6109 12.549 23.6109 12.5443 23.6109 12.5386C23.6109 12.533 23.6109 12.5283 23.6109 12.5227V9.8438C24.1921 9.81734 24.7397 9.56401 25.1361 9.13821C25.5325 8.71241 25.7461 8.14812 25.731 7.56655C25.7159 6.98498 25.4733 6.43253 25.0554 6.02788C24.6374 5.62323 24.0774 5.39865 23.4956 5.40239H10.8394C10.2606 5.40282 9.70477 5.62905 9.2902 6.03296C8.87562 6.43687 8.63499 6.98658 8.61948 7.56518C8.60397 8.14378 8.8148 8.7056 9.20714 9.13114C9.59948 9.55668 10.1424 9.81236 10.7203 9.8438V27.9052C8.37571 29.0885 6.40255 30.895 5.01753 33.1264C3.63251 35.3578 2.8892 37.9277 2.86925 40.5539C2.84929 43.1801 3.55346 45.761 4.90441 48.0131C6.25536 50.2653 8.20084 52.1016 10.5272 53.3204H3.04688C2.82935 53.3205 2.62078 53.407 2.46696 53.5608C2.31315 53.7146 2.22669 53.9232 2.22656 54.1407V56.9532C2.22669 57.1707 2.31315 57.3793 2.46696 57.5331C2.62078 57.6869 2.82935 57.7734 3.04688 57.7735H56.9531C57.1706 57.7734 57.3792 57.6869 57.533 57.5331C57.6868 57.3793 57.7733 57.1707 57.7734 56.9532V54.1407C57.7733 53.9232 57.6868 53.7146 57.533 53.5608C57.3792 53.407 57.1706 53.3205 56.9531 53.3204ZM49.6594 7.94067H50.8313V10.5188H49.6594V7.94067ZM33.9263 4.45317C33.9265 4.29785 33.9883 4.14896 34.0981 4.03912C34.208 3.92929 34.3569 3.86748 34.5122 3.86723H44.3559C44.5113 3.86723 44.6604 3.92897 44.7703 4.03885C44.8801 4.14874 44.9419 4.29777 44.9419 4.45317C44.9419 4.60857 44.8801 4.75761 44.7703 4.86749C44.6604 4.97738 44.5113 5.03911 44.3559 5.03911H34.5122C34.3569 5.03886 34.208 4.97705 34.0981 4.86722C33.9883 4.75739 33.9265 4.6085 33.9263 4.45317ZM36.0356 6.67973H42.8325V10.5197H36.0375L36.0356 6.67973ZM33.9263 12.1604H55.02V13.3322H33.9263V12.1604ZM42.8325 16.4963H40.8403C40.6228 16.4963 40.4141 16.5827 40.2603 16.7366C40.1064 16.8904 40.02 17.0991 40.02 17.3166C40.02 17.5342 40.1064 17.7428 40.2603 17.8967C40.4141 18.0505 40.6228 18.1369 40.8403 18.1369H42.8344V19.6604H40.8403C40.6228 19.6604 40.4141 19.7468 40.2603 19.9006C40.1064 20.0545 40.02 20.2631 40.02 20.4807C40.02 20.6982 40.1064 20.9069 40.2603 21.0607C40.4141 21.2146 40.6228 21.301 40.8403 21.301H42.8344V22.8244H40.8403C40.6228 22.8244 40.4141 22.9108 40.2603 23.0647C40.1064 23.2185 40.02 23.4272 40.02 23.6447C40.02 23.8623 40.1064 24.0709 40.2603 24.2248C40.4141 24.3786 40.6228 24.465 40.8403 24.465H42.8344V25.9885H40.8403C40.6228 25.9885 40.4141 26.0749 40.2603 26.2288C40.1064 26.3826 40.02 26.5912 40.02 26.8088C40.02 27.0264 40.1064 27.235 40.2603 27.3888C40.4141 27.5427 40.6228 27.6291 40.8403 27.6291H42.8344V29.1525H40.8403C40.6228 29.1525 40.4141 29.239 40.2603 29.3928C40.1064 29.5466 40.02 29.7553 40.02 29.9729C40.02 30.1904 40.1064 30.3991 40.2603 30.5529C40.4141 30.7067 40.6228 30.7932 40.8403 30.7932H42.8344V36.1501C42.8326 37.0508 42.474 37.9142 41.8371 38.5512C41.2001 39.1881 40.3367 39.5468 39.4359 39.5485C38.5349 39.5475 37.6711 39.1891 37.034 38.552C36.3969 37.9149 36.0385 37.0511 36.0375 36.1501V14.9729H42.8344L42.8325 16.4963ZM49.6575 14.9729H50.8294V50.5079H49.6575V14.9729ZM48.2512 52.1485H52.2356V53.3204H48.2512V52.1485ZM10.2534 7.62895C10.2536 7.47359 10.3153 7.32463 10.4252 7.21477C10.535 7.10491 10.684 7.04314 10.8394 7.04302H23.4956C23.651 7.04302 23.8001 7.10475 23.9099 7.21463C24.0198 7.32452 24.0816 7.47355 24.0816 7.62895C24.0816 7.78435 24.0198 7.93339 23.9099 8.04327C23.8001 8.15316 23.651 8.21489 23.4956 8.21489H10.8394C10.684 8.21489 10.5349 8.15316 10.4251 8.04327C10.3152 7.93339 10.2534 7.78435 10.2534 7.62895ZM4.50937 40.6641C4.51408 38.2439 5.21078 35.8754 6.51729 33.8381C7.82381 31.8008 9.68566 30.1796 11.8833 29.1657C12.0258 29.1001 12.1466 28.9951 12.2313 28.863C12.3159 28.7309 12.3609 28.5773 12.3609 28.4204V9.85551H21.9703V11.7188H19.98C19.7624 11.7188 19.5538 11.8052 19.4 11.9591C19.2461 12.1129 19.1597 12.3215 19.1597 12.5391C19.1597 12.7567 19.2461 12.9653 19.4 13.1192C19.5538 13.273 19.7624 13.3594 19.98 13.3594H21.9703V14.8829H19.98C19.7624 14.8829 19.5538 14.9693 19.4 15.1231C19.2461 15.277 19.1597 15.4856 19.1597 15.7032C19.1597 15.9207 19.2461 16.1294 19.4 16.2832C19.5538 16.4371 19.7624 16.5235 19.98 16.5235H21.9703V18.0469H19.98C19.7624 18.0469 19.5538 18.1333 19.4 18.2872C19.2461 18.441 19.1597 18.6497 19.1597 18.8672C19.1597 19.0848 19.2461 19.2934 19.4 19.4473C19.5538 19.6011 19.7624 19.6875 19.98 19.6875H21.9703V21.211H19.98C19.7624 21.211 19.5538 21.2974 19.4 21.4512C19.2461 21.6051 19.1597 21.8137 19.1597 22.0313C19.1597 22.2489 19.2461 22.4575 19.4 22.6113C19.5538 22.7652 19.7624 22.8516 19.98 22.8516H21.9703V24.375H19.98C19.7624 24.375 19.5538 24.4615 19.4 24.6153C19.2461 24.7691 19.1597 24.9778 19.1597 25.1954C19.1597 25.4129 19.2461 25.6216 19.4 25.7754C19.5538 25.9292 19.7624 26.0157 19.98 26.0157H21.9703V28.4204C21.9704 28.5773 22.0154 28.731 22.1002 28.8631C22.1849 28.9952 22.3058 29.1002 22.4484 29.1657C24.5127 30.1139 26.2838 31.6002 27.5757 33.4687C28.8677 35.3372 29.6329 37.519 29.7911 39.7852C29.9494 42.0513 29.4947 44.3183 28.475 46.3482C27.4552 48.3781 25.9079 50.0961 23.9954 51.3219C22.0829 52.5478 19.8757 53.2363 17.6054 53.3153C15.3351 53.3942 13.0854 52.8606 11.0924 51.7705C9.09934 50.6805 7.43645 49.074 6.27817 47.1199C5.11988 45.1657 4.50892 42.9358 4.50937 40.6641ZM56.1328 56.1329H3.86719V54.961H56.1328V56.1329Z" fill="white"/>
<path d="M15.0642 42.0901C14.6239 42.0901 14.1934 42.2207 13.8272 42.4653C13.4611 42.71 13.1757 43.0577 13.0071 43.4646C12.8386 43.8714 12.7945 44.3191 12.8804 44.751C12.9664 45.1829 13.1784 45.5797 13.4898 45.8911C13.8012 46.2025 14.1979 46.4145 14.6298 46.5004C15.0618 46.5863 15.5094 46.5423 15.9163 46.3737C16.3231 46.2052 16.6709 45.9198 16.9155 45.5537C17.1602 45.1875 17.2908 44.757 17.2908 44.3167C17.2902 43.7263 17.0554 43.1603 16.638 42.7429C16.2205 42.3255 15.6546 42.0907 15.0642 42.0901ZM15.0642 44.9026C14.9483 44.9026 14.8351 44.8682 14.7387 44.8038C14.6423 44.7395 14.5672 44.6479 14.5229 44.5409C14.4785 44.4338 14.4669 44.316 14.4895 44.2023C14.5122 44.0887 14.568 43.9843 14.6499 43.9023C14.7318 43.8204 14.8363 43.7646 14.9499 43.742C15.0636 43.7194 15.1814 43.731 15.2885 43.7753C15.3955 43.8197 15.487 43.8948 15.5514 43.9911C15.6158 44.0875 15.6502 44.2008 15.6502 44.3167C15.65 44.472 15.5883 44.621 15.4784 44.7308C15.3686 44.8407 15.2196 44.9025 15.0642 44.9026Z" fill="white"/>
<path d="M22.7925 39.3362C22.3521 39.3362 21.9216 39.4668 21.5555 39.7114C21.1893 39.9561 20.9039 40.3038 20.7354 40.7107C20.5669 41.1175 20.5228 41.5652 20.6087 41.9971C20.6946 42.429 20.9067 42.8258 21.2181 43.1372C21.5295 43.4486 21.9262 43.6606 22.3581 43.7465C22.79 43.8324 23.2377 43.7883 23.6446 43.6198C24.0514 43.4513 24.3992 43.1659 24.6438 42.7998C24.8885 42.4336 25.0191 42.0031 25.0191 41.5627C25.0186 40.9724 24.7838 40.4063 24.3664 39.9889C23.9489 39.5714 23.3829 39.3367 22.7925 39.3362ZM22.7925 42.1487C22.6766 42.1487 22.5633 42.1143 22.467 42.0499C22.3706 41.9856 22.2955 41.894 22.2512 41.787C22.2068 41.6799 22.1952 41.5621 22.2178 41.4484C22.2404 41.3348 22.2962 41.2304 22.3782 41.1484C22.4601 41.0665 22.5645 41.0107 22.6782 40.9881C22.7919 40.9655 22.9097 40.9771 23.0167 41.0214C23.1238 41.0658 23.2153 41.1409 23.2797 41.2372C23.3441 41.3336 23.3784 41.4469 23.3784 41.5627C23.3783 41.7181 23.3165 41.8671 23.2067 41.9769C23.0968 42.0868 22.9479 42.1486 22.7925 42.1487Z" fill="white"/>
<path d="M14.2439 31.5881C14.2439 32.0285 14.3745 32.459 14.6192 32.8252C14.8638 33.1913 15.2116 33.4767 15.6184 33.6452C16.0253 33.8137 16.4729 33.8578 16.9049 33.7719C17.3368 33.686 17.7335 33.474 18.0449 33.1626C18.3563 32.8512 18.5683 32.4544 18.6543 32.0225C18.7402 31.5906 18.6961 31.1429 18.5276 30.7361C18.359 30.3292 18.0736 29.9815 17.7075 29.7368C17.3413 29.4922 16.9109 29.3616 16.4705 29.3616C15.8802 29.3623 15.3143 29.5971 14.8969 30.0145C14.4795 30.4319 14.2447 30.9978 14.2439 31.5881ZM16.4705 31.0022C16.5864 31.0022 16.6997 31.0366 16.796 31.1009C16.8924 31.1653 16.9675 31.2568 17.0118 31.3639C17.0562 31.471 17.0678 31.5888 17.0452 31.7025C17.0225 31.8161 16.9667 31.9205 16.8848 32.0025C16.8029 32.0844 16.6984 32.1402 16.5848 32.1628C16.4711 32.1854 16.3533 32.1738 16.2462 32.1295C16.1392 32.0851 16.0477 32.01 15.9833 31.9137C15.9189 31.8173 15.8845 31.704 15.8845 31.5881C15.8847 31.4328 15.9464 31.2838 16.0563 31.174C16.1662 31.0641 16.3151 31.0023 16.4705 31.0022Z" fill="white"/>
</svg>
