<svg width="187" height="56" viewBox="0 0 187 56" fill="none" xmlns="http://www.w3.org/2000/svg">
<path d="M72.8407 37.0967L72.3294 35.1535H68.5368L67.9829 37.0967H65L69.3891 23.8184H71.605L75.9515 37.0967H72.926H72.8407ZM70.4118 27.936L69.2613 32.4701H71.5623L70.4118 27.936ZM84.1757 37.0967L83.6643 35.1535H79.8718L79.3178 37.0967H76.335L80.7241 23.8184H82.9399L87.2864 37.0967H84.2609H84.1757ZM81.7468 27.936L80.5962 32.4701H82.8973L81.7468 27.936ZM90.738 37.0967H88.0534V23.8184H91.5051C92.4425 23.8184 93.1243 23.8646 93.5931 24.0034C94.0618 24.1422 94.488 24.3736 94.8289 24.7437C95.7237 25.669 96.1925 26.8719 96.1925 28.3987C96.1925 29.5091 95.9368 30.4344 95.468 31.1747C94.9567 31.9149 94.3175 32.3776 93.4652 32.5626L96.4481 37.0967H93.2522L90.6954 32.794V37.0967H90.738ZM90.738 26.8257V30.4807H91.7181C92.9113 30.4807 93.5505 29.8792 93.5505 28.63C93.5505 27.4271 92.9539 26.8257 91.7607 26.8257H90.738ZM103.735 37.0967H97.6839V23.8184H103.735V26.8257H100.326V28.8614H103.607V31.8686H100.326V34.0894H103.735V37.0967ZM108.167 37.0967H105.397V23.8184H108.167V28.8151H111.746V23.8184H114.516V37.0967H111.746V31.8224H108.167V37.0967ZM123.294 37.0967L122.783 35.1535H118.99L118.436 37.0967H115.453L119.842 23.8184H122.058L126.405 37.0967H123.379H123.294ZM120.865 27.936L119.715 32.4701H122.016L120.865 27.936ZM137.356 37.0967H131.305V23.8184H137.356V26.8257H133.947V28.8614H137.228V31.8686H133.947V34.0894H137.356V37.0967ZM144.984 37.0967H138.976V23.8184H141.745V34.0894H144.984V37.0967ZM153.464 37.0967L152.952 35.1535H149.16L148.606 37.0967H145.623L150.012 23.8184H152.228L156.575 37.0967H153.549H153.464ZM151.035 27.936L149.884 32.4701H152.185L151.035 27.936ZM163.648 25.0676C163.904 25.4377 164.074 25.8078 164.202 26.1779C164.287 26.5481 164.373 27.0107 164.415 27.6584H161.645C161.56 26.8257 161.219 26.363 160.665 26.363C160.41 26.363 160.197 26.4555 159.984 26.6406C159.813 26.8257 159.685 27.057 159.685 27.3346C159.685 27.8435 159.984 28.3062 160.623 28.63L161.986 29.3703C162.924 29.8792 163.563 30.4344 163.947 30.9896C164.33 31.5911 164.543 32.285 164.543 33.1641C164.543 34.4595 164.202 35.4311 163.52 36.1714C162.839 36.8654 161.901 37.2355 160.708 37.2355C159.472 37.2355 158.535 36.8654 157.81 36.0788C157.086 35.3386 156.745 34.3207 156.745 33.0253V32.6089H159.557C159.557 33.1641 159.643 33.5805 159.856 33.9043C160.069 34.2282 160.324 34.4133 160.708 34.4133C161.006 34.4133 161.262 34.2745 161.475 34.0431C161.688 33.8118 161.773 33.488 161.773 33.1178C161.773 32.5626 161.39 32.0537 160.623 31.6836L159.344 31.0359C158.833 30.7583 158.364 30.4344 158.023 30.1105C157.299 29.4166 156.915 28.4912 156.915 27.3808C156.915 26.2705 157.299 25.3451 158.023 24.6049C158.748 23.8646 159.685 23.4482 160.751 23.4482C162.029 23.4482 163.009 23.9572 163.691 24.975L163.648 25.0676ZM169.955 37.0967H167.185V26.8257H165.012V23.8184H172.128V26.8257H169.955V37.0967ZM175.963 37.0967H173.194V23.8184H175.963V37.0967ZM180.48 37.0967H177.796V23.8184H180.182L184.443 32.1925L184.315 23.8184H187V37.0967H184.571L180.352 29.0464L180.48 37.0967Z" fill="#0F2D4F"/>
<path d="M69.1026 43.2398C69.1026 43.3567 69.1026 43.4736 69.1026 43.5321C69.1026 43.5905 69.1026 43.649 69.044 43.7075C69.044 43.7659 68.9853 43.7659 68.9853 43.8244C68.9853 43.8244 68.9267 43.8828 68.8681 43.8828H66.5238V45.8119H68.6923C68.7509 45.8119 68.7509 45.8119 68.8095 45.8119C68.8095 45.8119 68.8681 45.8703 68.8681 45.9288C68.8681 45.9872 68.9267 46.0457 68.9267 46.1041C68.9267 46.1626 68.9267 46.2795 68.9267 46.3964C68.9267 46.5133 68.9267 46.5718 68.9267 46.6887C68.9267 46.7472 68.9267 46.8056 68.8681 46.8641C68.8681 46.9225 68.8095 46.9225 68.8095 46.981C68.8095 46.981 68.7509 47.0394 68.6923 47.0394H66.5238V49.7284C66.5238 49.7869 66.5238 49.7869 66.4652 49.8453C66.4652 49.8453 66.4066 49.9038 66.348 49.9038C66.2894 49.9038 66.2308 49.9622 66.1136 49.9622C65.9963 49.9622 65.8791 49.9622 65.7619 49.9622C65.6447 49.9622 65.5275 49.9622 65.4103 49.9622C65.293 49.9622 65.2344 49.9622 65.1758 49.9038C65.1172 49.9038 65.0586 49.8453 65.0586 49.8453C65.0586 49.7869 65 49.7869 65 49.7284V43.1813C65 43.006 65.0586 42.8891 65.1172 42.8306C65.1758 42.7722 65.293 42.7137 65.4103 42.7137H68.7509C68.8095 42.7137 68.8095 42.7137 68.8681 42.7722C68.8681 42.7722 68.9267 42.8306 68.9267 42.8891C68.9267 42.9475 68.9853 43.006 68.9853 43.0644C68.9853 43.1229 68.9853 43.2398 68.9853 43.3567L69.1026 43.2398ZM71.7399 49.67C71.7399 49.7284 71.7399 49.7284 71.6813 49.7869C71.6813 49.7869 71.6227 49.8453 71.5641 49.8453C71.5055 49.8453 71.4469 49.9038 71.3297 49.9038C71.2125 49.9038 71.0952 49.9038 70.978 49.9038C70.8608 49.9038 70.7436 49.9038 70.6264 49.9038C70.5092 49.9038 70.4505 49.9038 70.3919 49.8453C70.3333 49.8453 70.2747 49.7869 70.2747 49.7869C70.2747 49.7284 70.2161 49.7284 70.2161 49.67V42.8306C70.2161 42.7722 70.2161 42.7722 70.2747 42.7137C70.2747 42.7137 70.3333 42.6552 70.3919 42.6552C70.4505 42.6552 70.5092 42.5968 70.6264 42.5968C70.7436 42.5968 70.8608 42.5968 70.978 42.5968C71.0952 42.5968 71.2125 42.5968 71.3297 42.5968C71.4469 42.5968 71.5055 42.5968 71.5641 42.6552C71.6227 42.6552 71.6813 42.7137 71.6813 42.7137C71.6813 42.7722 71.7399 42.7722 71.7399 42.8306V49.67ZM78.4799 47.6825C78.4799 47.9163 78.4212 48.1501 78.3626 48.3839C78.304 48.6178 78.1868 48.7931 78.0696 48.91C77.9524 49.0854 77.7766 49.2023 77.6007 49.3192C77.4249 49.4361 77.2491 49.5531 77.0147 49.6115C76.7802 49.67 76.6044 49.7284 76.37 49.7869C76.1355 49.8453 75.9011 49.8453 75.6081 49.8453H73.7326C73.6154 49.8453 73.4982 49.7869 73.4396 49.7284C73.381 49.67 73.3223 49.5531 73.3223 49.3777V43.0644C73.3223 42.8891 73.381 42.7722 73.4396 42.7137C73.4982 42.6552 73.6154 42.5968 73.7326 42.5968H75.5495C75.9597 42.5968 76.37 42.6552 76.663 42.7137C76.956 42.7722 77.2491 42.8891 77.4249 43.0644C77.6593 43.2398 77.7766 43.4152 77.8938 43.649C78.011 43.8828 78.0696 44.1751 78.0696 44.4674C78.0696 44.6427 78.0696 44.8181 78.011 44.935C77.9524 45.1104 77.8938 45.2273 77.8352 45.3442C77.7766 45.4611 77.6593 45.578 77.5421 45.695C77.4249 45.8119 77.3077 45.8703 77.1319 45.9288C77.3077 45.9872 77.5421 46.0457 77.7179 46.1041C77.8938 46.2211 78.011 46.338 78.1868 46.4549C78.304 46.6302 78.4212 46.7472 78.4799 46.981C78.5385 47.1564 78.5971 47.3902 78.5971 47.624L78.4799 47.6825ZM76.6044 44.6427C76.6044 44.5258 76.6044 44.3505 76.5458 44.2336C76.4872 44.1166 76.4286 43.9997 76.37 43.9413C76.2527 43.8828 76.1941 43.8244 76.0183 43.7659C75.9011 43.7075 75.7253 43.7075 75.4908 43.7075H74.7875V45.578H75.6081C75.8425 45.578 75.9597 45.578 76.1355 45.5196C76.2527 45.4611 76.37 45.4027 76.4286 45.2858C76.4872 45.2273 76.5458 45.1104 76.6044 44.9935C76.663 44.8766 76.663 44.7597 76.663 44.6427H76.6044ZM76.956 47.7409C76.956 47.5655 76.956 47.4486 76.8974 47.2733C76.8388 47.1564 76.7802 47.0394 76.663 46.9225C76.5458 46.8056 76.4286 46.7472 76.2527 46.6887C76.0769 46.6302 75.9011 46.6302 75.6081 46.6302H74.7289V48.6762H75.7839C75.9597 48.6762 76.1355 48.6762 76.3114 48.6178C76.4286 48.5593 76.5458 48.5008 76.663 48.4424C76.7802 48.3839 76.8388 48.267 76.8974 48.1501C76.956 48.0332 76.956 47.8578 76.956 47.7409ZM84.5751 48.7347C84.5751 48.8516 84.5751 48.91 84.5751 48.9685C84.5751 49.0269 84.5751 49.0854 84.5751 49.1439C84.5751 49.2023 84.5751 49.2023 84.5165 49.2608C84.5165 49.3192 84.4579 49.3192 84.3993 49.3777C84.3407 49.4361 84.2821 49.4946 84.1648 49.5531C84.0476 49.6115 83.9304 49.67 83.7546 49.7284C83.5788 49.7869 83.4029 49.8453 83.1685 49.9038C82.9341 49.9622 82.6996 49.9622 82.4652 49.9622C81.9963 49.9622 81.5275 49.9038 81.1172 49.7284C80.707 49.5531 80.4139 49.3192 80.1209 49.0269C79.8278 48.7347 79.652 48.3255 79.4762 47.9163C79.359 47.4486 79.2418 46.9225 79.2418 46.338C79.2418 45.7534 79.3004 45.1689 79.4762 44.7012C79.652 44.2336 79.8864 43.8244 80.1795 43.5321C80.4725 43.1813 80.8242 42.9475 81.2344 42.7722C81.6447 42.5968 82.1136 42.5383 82.5824 42.5383C82.7582 42.5383 82.9927 42.5383 83.1685 42.5968C83.3443 42.6552 83.5201 42.6552 83.696 42.7137C83.8718 42.7722 83.989 42.8306 84.1062 42.8891C84.2234 42.9475 84.3407 43.006 84.3407 43.0644C84.3993 43.1229 84.3993 43.1813 84.4579 43.1813C84.4579 43.2398 84.5165 43.2398 84.5165 43.2983C84.5165 43.3567 84.5165 43.4152 84.5165 43.4736C84.5165 43.5321 84.5165 43.649 84.5165 43.7075C84.5165 43.8244 84.5165 43.9413 84.5165 43.9997C84.5165 44.0582 84.5165 44.1166 84.4579 44.1751C84.4579 44.2336 84.3993 44.2336 84.3993 44.292C84.3993 44.292 84.3407 44.3505 84.2821 44.3505C84.2234 44.3505 84.1648 44.292 84.0476 44.2336C83.989 44.1751 83.8718 44.1166 83.696 43.9997C83.5788 43.9413 83.4029 43.8244 83.2271 43.7659C83.0513 43.7075 82.8169 43.649 82.5824 43.649C82.2894 43.649 82.0549 43.7075 81.8205 43.8244C81.5861 43.9413 81.4103 44.1166 81.2344 44.3505C81.0586 44.5843 80.9414 44.8181 80.8828 45.1689C80.8242 45.4611 80.7656 45.8119 80.7656 46.2211C80.7656 46.6302 80.8242 47.0394 80.8828 47.3317C80.9414 47.624 81.1172 47.9163 81.2344 48.0917C81.4103 48.267 81.5861 48.4424 81.8205 48.5593C82.0549 48.6762 82.2894 48.7347 82.5824 48.7347C82.8169 48.7347 83.0513 48.6762 83.2271 48.6178C83.4029 48.5593 83.5788 48.5008 83.696 48.4424C83.8132 48.3839 83.9304 48.3255 84.0476 48.267C84.1062 48.2086 84.2234 48.1501 84.2234 48.1501C84.2821 48.1501 84.2821 48.1501 84.2821 48.1501C84.2821 48.1501 84.3407 48.2086 84.3407 48.267C84.3407 48.3255 84.3407 48.3839 84.3993 48.4424C84.3993 48.5008 84.3993 48.6178 84.3993 48.7931L84.5751 48.7347ZM93.0733 44.8181C93.0733 45.2273 93.0147 45.578 92.8974 45.8703C92.7802 46.1626 92.6044 46.4549 92.37 46.6887C92.1355 46.9225 91.8425 47.0394 91.4908 47.1564C91.1392 47.2733 90.7289 47.3317 90.2601 47.3317H89.674V49.6115C89.674 49.67 89.674 49.67 89.6154 49.7284C89.6154 49.7284 89.5568 49.7869 89.4982 49.7869C89.4396 49.7869 89.381 49.8453 89.2637 49.8453C89.1465 49.8453 89.0293 49.8453 88.9121 49.8453C88.7949 49.8453 88.6777 49.8453 88.5604 49.8453C88.4432 49.8453 88.3846 49.8453 88.326 49.7869C88.2674 49.7869 88.2088 49.7284 88.2088 49.7284C88.2088 49.67 88.1502 49.67 88.1502 49.6115V43.1229C88.1502 42.9475 88.2088 42.8306 88.2674 42.7137C88.3846 42.6552 88.5018 42.5968 88.619 42.5968H90.3187C90.4945 42.5968 90.6703 42.5968 90.7875 42.5968C90.9634 42.5968 91.1392 42.6552 91.315 42.6552C91.5494 42.7137 91.7253 42.7722 91.9597 42.8891C92.1941 43.006 92.37 43.1229 92.5458 43.2983C92.7216 43.4736 92.8388 43.7075 92.8974 43.9413C92.956 44.1751 93.0147 44.4674 93.0147 44.7597L93.0733 44.8181ZM91.5494 44.935C91.5494 44.7012 91.4908 44.4674 91.4322 44.292C91.315 44.1166 91.2564 43.9997 91.0806 43.9413C90.9634 43.8828 90.7875 43.8244 90.6703 43.7659C90.5531 43.7659 90.3773 43.7075 90.2015 43.7075H89.5568V46.1626H90.2015C90.4359 46.1626 90.6117 46.1041 90.7875 46.0457C90.9634 45.9872 91.0806 45.8703 91.1978 45.7534C91.315 45.6365 91.3736 45.5196 91.4322 45.3442C91.4908 45.1689 91.4908 44.9935 91.4908 44.8181L91.5494 44.935ZM97.7033 49.6115C97.7033 49.67 97.6447 49.7284 97.6447 49.7869C97.5861 49.8453 97.5861 49.8453 97.5275 49.9038C97.4689 49.9038 97.3517 49.9622 97.2344 49.9622C97.1172 49.9622 97 49.9622 96.7656 49.9622C96.5897 49.9622 96.4725 49.9622 96.4139 49.9622C96.2967 49.9622 96.2381 49.9622 96.1209 49.9622C96.0623 49.9622 96.0037 49.9622 95.9451 49.9038C95.8864 49.9038 95.8864 49.8453 95.8278 49.8453C95.7692 49.8453 95.7692 49.7869 95.7692 49.7869C95.7692 49.7284 95.7106 49.7284 95.7106 49.67L93.6007 43.2983C93.5421 43.1813 93.5421 43.0644 93.5421 43.006C93.5421 42.9475 93.5421 42.8891 93.6007 42.8306C93.6593 42.7722 93.7179 42.7722 93.8352 42.7722C93.9524 42.7722 94.1282 42.7722 94.304 42.7722C94.4799 42.7722 94.5971 42.7722 94.7143 42.7722C94.8315 42.7722 94.8901 42.7722 94.9487 42.8306C95.0073 42.8306 95.0659 42.8891 95.0659 42.8891C95.0659 42.9475 95.1245 42.9475 95.1245 43.006L96.8828 48.5593L98.5824 43.006C98.5824 42.9475 98.641 42.8891 98.641 42.8306C98.641 42.7722 98.6996 42.7722 98.7582 42.7137C98.8168 42.7137 98.8755 42.6552 98.9927 42.6552C99.1099 42.6552 99.2271 42.6552 99.4029 42.6552C99.5788 42.6552 99.696 42.6552 99.8132 42.6552C99.9304 42.6552 99.989 42.7137 99.989 42.7137C100.048 42.7722 100.048 42.8306 100.048 42.8891C100.048 42.9475 99.989 43.0644 99.989 43.1813L97.8791 49.5531L97.7033 49.6115ZM105.557 43.2398C105.557 43.3567 105.557 43.4152 105.557 43.5321C105.557 43.5905 105.557 43.649 105.498 43.7075C105.498 43.7659 105.44 43.7659 105.44 43.8244C105.44 43.8244 105.381 43.8828 105.322 43.8828H103.564V49.67C103.564 49.7284 103.564 49.7284 103.505 49.7869C103.505 49.7869 103.447 49.8453 103.388 49.8453C103.33 49.8453 103.271 49.9038 103.154 49.9038C103.037 49.9038 102.919 49.9038 102.802 49.9038C102.685 49.9038 102.568 49.9038 102.451 49.9038C102.333 49.9038 102.275 49.9038 102.216 49.8453C102.158 49.8453 102.099 49.7869 102.099 49.7869C102.099 49.7284 102.04 49.7284 102.04 49.67V43.8828H100.282C100.223 43.8828 100.223 43.8828 100.165 43.8244C100.165 43.8244 100.106 43.7659 100.106 43.7075C100.106 43.649 100.048 43.5905 100.048 43.5321C100.048 43.4736 100.048 43.3567 100.048 43.2398C100.048 43.1229 100.048 43.006 100.048 42.9475C100.048 42.8891 100.048 42.8306 100.106 42.7722C100.106 42.7137 100.165 42.7137 100.165 42.6552C100.165 42.6552 100.223 42.5968 100.282 42.5968H105.322C105.381 42.5968 105.381 42.5968 105.44 42.6552C105.44 42.6552 105.498 42.7137 105.498 42.7722C105.498 42.8306 105.557 42.8891 105.557 42.9475C105.557 43.006 105.557 43.1229 105.557 43.2398ZM107.022 49.0269C107.022 49.3777 106.963 49.6115 106.846 49.7284C106.729 49.8453 106.495 49.9038 106.201 49.9038C105.908 49.9038 105.674 49.8453 105.557 49.7284C105.44 49.6115 105.381 49.3777 105.381 49.0854C105.381 48.7347 105.44 48.5008 105.557 48.3839C105.674 48.267 105.908 48.2086 106.201 48.2086C106.495 48.2086 106.729 48.267 106.846 48.3839C106.963 48.5008 107.022 48.7347 107.022 49.0854V49.0269ZM114.993 49.2023C114.993 49.3192 114.993 49.4361 114.993 49.4946C114.993 49.5531 114.993 49.6115 114.934 49.67C114.934 49.7284 114.875 49.7284 114.875 49.7869C114.875 49.7869 114.817 49.8453 114.758 49.8453H111.476C111.359 49.8453 111.242 49.7869 111.183 49.7284C111.125 49.67 111.066 49.5531 111.066 49.3777V42.8306C111.066 42.7722 111.066 42.7722 111.125 42.7137C111.125 42.7137 111.183 42.6552 111.242 42.6552C111.3 42.6552 111.359 42.5968 111.476 42.5968C111.593 42.5968 111.711 42.5968 111.828 42.5968C111.945 42.5968 112.062 42.5968 112.179 42.5968C112.297 42.5968 112.355 42.5968 112.414 42.6552C112.473 42.6552 112.531 42.7137 112.531 42.7137C112.531 42.7722 112.59 42.7722 112.59 42.8306V48.6178H114.817C114.875 48.6178 114.875 48.6178 114.934 48.6762C114.934 48.6762 114.993 48.7347 114.993 48.7931C114.993 48.8516 115.051 48.91 115.051 48.9685C115.051 49.0269 115.051 49.1439 115.051 49.2608L114.993 49.2023ZM119.74 43.1813C119.74 43.2983 119.74 43.3567 119.74 43.4736C119.74 43.5321 119.74 43.5905 119.681 43.649C119.681 43.7075 119.623 43.7075 119.623 43.7659C119.623 43.7659 119.564 43.8244 119.505 43.8244H117.747V49.6115C117.747 49.67 117.747 49.67 117.689 49.7284C117.689 49.7284 117.63 49.7869 117.571 49.7869C117.513 49.7869 117.454 49.8453 117.337 49.8453C117.22 49.8453 117.103 49.8453 116.985 49.8453C116.868 49.8453 116.751 49.8453 116.634 49.8453C116.516 49.8453 116.458 49.8453 116.399 49.7869C116.341 49.7869 116.282 49.7284 116.282 49.7284C116.282 49.67 116.223 49.67 116.223 49.6115V43.8244H114.465C114.407 43.8244 114.407 43.8244 114.348 43.7659C114.348 43.7659 114.289 43.7075 114.289 43.649C114.289 43.5905 114.231 43.5321 114.231 43.4736C114.231 43.4152 114.231 43.2983 114.231 43.1813C114.231 43.0644 114.231 42.9475 114.231 42.8891C114.231 42.8306 114.231 42.7722 114.289 42.7137C114.289 42.6552 114.348 42.6552 114.348 42.5968C114.348 42.5968 114.407 42.5383 114.465 42.5383H119.505C119.564 42.5383 119.564 42.5383 119.623 42.5968C119.623 42.5968 119.681 42.6552 119.681 42.7137C119.681 42.7722 119.74 42.8306 119.74 42.8891C119.74 42.9475 119.74 43.0644 119.74 43.1813ZM126.538 46.1041C126.538 46.7472 126.48 47.3317 126.304 47.7994C126.128 48.267 125.894 48.6762 125.542 48.9685C125.249 49.2608 124.839 49.4946 124.37 49.6115C123.901 49.7284 123.374 49.8453 122.729 49.8453H121.029C120.912 49.8453 120.795 49.7869 120.736 49.7284C120.678 49.67 120.619 49.5531 120.619 49.3777V43.0644C120.619 42.8891 120.678 42.7722 120.736 42.7137C120.795 42.6552 120.912 42.5968 121.029 42.5968H122.846C123.491 42.5968 124.018 42.6552 124.487 42.8306C124.956 43.006 125.308 43.1813 125.601 43.4736C125.894 43.7659 126.128 44.1166 126.304 44.5843C126.48 44.9935 126.538 45.5196 126.538 46.1041ZM125.015 46.1626C125.015 45.8119 124.956 45.5196 124.897 45.2273C124.839 44.935 124.663 44.7012 124.546 44.4674C124.37 44.2336 124.136 44.0582 123.901 43.9413C123.608 43.8244 123.256 43.7659 122.846 43.7659H122.084V48.6762H122.846C123.256 48.6762 123.608 48.6178 123.842 48.5008C124.136 48.3839 124.37 48.267 124.546 48.0332C124.722 47.7994 124.839 47.5655 124.956 47.2733C125.073 46.981 125.073 46.5718 125.073 46.1626H125.015ZM129 49.0269C129 49.3777 128.941 49.6115 128.824 49.7284C128.707 49.8453 128.473 49.9038 128.179 49.9038C127.886 49.9038 127.652 49.8453 127.535 49.7284C127.418 49.6115 127.359 49.3777 127.359 49.0854C127.359 48.7347 127.418 48.5008 127.535 48.3839C127.652 48.267 127.886 48.2086 128.179 48.2086C128.473 48.2086 128.707 48.267 128.824 48.3839C128.941 48.5008 129 48.7347 129 49.0854V49.0269Z" fill="#0F2D4F"/>
<path fill-rule="evenodd" clip-rule="evenodd" d="M10.7971 13.2134L51.7477 13.4779L55.2169 54.6739H18.3792C19.166 52.7463 19.4164 50.8188 18.4507 48.7401H7.68553C6.25494 47.9465 5.39659 46.5859 7.68553 45.5276L24.8884 45.3764C26.0328 44.4694 26.0328 43.3355 24.8884 42.3529L13.3006 42.3151C11.8342 41.2568 11.7985 40.1986 13.3006 39.1026L18.6295 39.0648C20.0244 37.553 19.5594 36.8727 18.6295 35.7011L8.57965 35.7389C7.47094 35.4743 6.54106 33.5846 8.57965 32.9421L21.1688 32.6775C22.5637 31.9594 23.2432 30.1831 21.1688 29.5028L4.0733 29.465C2.60694 28.7847 2.32082 27.0083 4.0733 26.3658L25.2818 26.1013C26.7124 25.2698 26.9627 23.6824 25.2818 22.662L13.1933 22.7754C11.9058 22.2462 11.5124 20.6589 13.1933 19.903L23.1001 19.8274C24.3519 19.3361 24.7811 17.5975 23.1001 16.5393L10.8328 16.4637C9.5453 15.7078 9.04459 14.3472 10.8328 13.2134H10.7971Z" fill="#0F75BD"/>
<path fill-rule="evenodd" clip-rule="evenodd" d="M0.997591 19.9856C2.64277 19.9856 4.32372 19.9856 5.9689 19.9856C7.43525 21.2328 7.00607 22.3288 5.9689 22.8958H0.997591C0.0319421 21.8753 -0.576059 21.384 0.997591 19.9856Z" fill="#35B8E4"/>
<path fill-rule="evenodd" clip-rule="evenodd" d="M2.75018 39.2153C4.39535 39.2153 6.07629 39.2153 7.72146 39.2153C9.18781 40.4625 8.75864 41.5586 7.72146 42.1255H2.75018C1.78454 41.105 1.17654 40.6137 2.75018 39.2153Z" fill="#1E97C6"/>
<path fill-rule="evenodd" clip-rule="evenodd" d="M1.78451 51.7642C5.2537 51.7642 8.75864 51.7642 12.2278 51.7642C15.1605 53.087 13.265 54.8255 12.2278 55.1279H1.78451C0.532747 54.3342 -0.862079 53.2381 1.78451 51.7642Z" fill="#1E97C6"/>
<path d="M46.3472 19.5703C47.2755 19.5703 48.0281 18.775 48.0281 17.7939C48.0281 16.8129 47.2755 16.0176 46.3472 16.0176C45.4188 16.0176 44.6662 16.8129 44.6662 17.7939C44.6662 18.775 45.4188 19.5703 46.3472 19.5703Z" fill="#FFF8FD"/>
<path d="M29.073 19.5248C30.0014 19.5248 30.7539 18.7295 30.7539 17.7485C30.7539 16.7675 30.0014 15.9722 29.073 15.9722C28.1446 15.9722 27.3921 16.7675 27.3921 17.7485C27.3921 18.7295 28.1446 19.5248 29.073 19.5248Z" fill="#FFF8FD"/>
<path fill-rule="evenodd" clip-rule="evenodd" d="M47.1341 17.7523C46.8479 17.9791 46.3472 18.0547 45.9181 17.7523C45.8108 0.0645319 31.183 -5.60463 29.8955 17.6011C29.4305 17.9035 29.0013 17.9413 28.4649 17.6011C27.8926 -2.77005 46.4545 -7.38097 47.1341 17.7523Z" fill="#0F2D4F"/>
</svg>
