<svg width="60" height="60" viewBox="0 0 60 60" fill="none" xmlns="http://www.w3.org/2000/svg">
<g clip-path="url(#clip0)">
<path d="M12.539 22.2657C12.539 31.9584 20.4245 39.8438 30.1172 39.8438C39.8099 39.8438 47.6953 31.9584 47.6953 22.2657C47.6953 12.5729 39.8099 4.6875 30.1172 4.6875C20.4245 4.6875 12.539 12.5729 12.539 22.2657ZM30.1172 7.03125C38.5176 7.03125 45.3516 13.8652 45.3516 22.2657C45.3516 30.6661 38.5176 37.5 30.1172 37.5C21.7168 37.5 14.8828 30.6661 14.8828 22.2657C14.8828 13.8652 21.7168 7.03125 30.1172 7.03125Z" fill="white"/>
<path d="M19.2645 20.1764L23.8069 24.652L22.7618 30.9421C22.6891 31.3802 22.8699 31.8215 23.2292 32.0824C23.5881 32.3433 24.0637 32.3786 24.4579 32.1744L30.1172 29.2356L35.7761 32.1744C36.167 32.3772 36.6426 32.3456 37.0047 32.0824C37.3641 31.8215 37.5449 31.3802 37.4721 30.9421L36.427 24.652L40.9694 20.1764C41.2857 19.8651 41.3988 19.4019 41.2615 18.9794C41.1242 18.5573 40.7602 18.2492 40.3212 18.1828L34.0174 17.2339L31.165 11.5297C30.9668 11.1328 30.5608 10.882 30.1172 10.882C29.6732 10.882 29.2676 11.1328 29.0689 11.5297L26.2166 17.2339L19.9127 18.1828C19.4737 18.2488 19.1098 18.5573 18.9725 18.9794C18.8351 19.4019 18.9487 19.8651 19.2645 20.1764ZM27.1674 19.4609C27.5446 19.4042 27.8705 19.1675 28.0412 18.8265L30.1172 14.6741L32.1932 18.8265C32.3639 19.1675 32.6898 19.4042 33.067 19.4609L37.6552 20.1517L34.3488 23.4087C34.0773 23.6765 33.9528 24.0596 34.0151 24.4359L34.7759 29.014L30.6569 26.8753C30.488 26.7874 30.3026 26.7435 30.1172 26.7435C29.9318 26.7435 29.7464 26.7874 29.577 26.8753L25.4581 29.014L26.2189 24.4359C26.2816 24.0596 26.1571 23.6765 25.8852 23.4087L22.5792 20.1517L27.1674 19.4609Z" fill="white"/>
<path d="M31.2891 1.17188C31.2891 1.81916 30.7645 2.34375 30.1172 2.34375C29.4699 2.34375 28.9453 1.81916 28.9453 1.17188C28.9453 0.524598 29.4699 0 30.1172 0C30.7645 0 31.2891 0.524598 31.2891 1.17188Z" fill="white"/>
<path d="M24.5943 0.690801C14.7363 3.20713 7.85153 12.0791 7.85153 22.2657C7.85153 28.5925 10.5116 34.5539 15.1813 38.7759L8.12116 51.2184C7.8941 51.6189 7.92249 52.1151 8.19348 52.4869C8.46448 52.859 8.92774 53.038 9.37863 52.9442L17.3964 51.2793L20.2144 59.2201C20.3673 59.6522 20.7587 59.9548 21.2155 59.9956C21.6724 60.0363 22.1104 59.806 22.337 59.4073L30.1172 45.7293L37.8969 59.4073C38.1065 59.7758 38.4966 59.9997 38.915 59.9997C38.9493 59.9997 38.9841 59.9983 39.0184 59.9956C39.4753 59.9548 39.8667 59.6518 40.02 59.2201L42.8375 51.2793L50.8553 52.9442C51.3057 53.0375 51.7694 52.8586 52.0404 52.4869C52.3119 52.1151 52.3398 51.6189 52.1128 51.2184L45.0527 38.7759C49.7223 34.5539 52.3824 28.5925 52.3824 22.2657C52.3824 12.0791 45.4976 3.20713 35.6401 0.690801C35.0125 0.530584 34.3749 0.909155 34.2146 1.53629C34.0544 2.16343 34.433 2.80155 35.0601 2.96177C43.8794 5.21306 50.0391 13.1511 50.0391 22.2657C50.0391 33.3587 41.0298 42.1876 30.1172 42.1876C19.1968 42.1876 10.1953 33.3514 10.1953 22.2657C10.1953 13.1511 16.3545 5.21306 25.1738 2.96177C25.8009 2.80155 26.1795 2.16343 26.0197 1.53629C25.8595 0.909155 25.2219 0.530584 24.5943 0.690801ZM21.5666 56.0222L19.2636 49.5324C19.0677 48.9804 18.4946 48.6576 17.921 48.7767L11.4377 50.123L17.0251 40.2755C20.283 42.644 24.1406 44.0869 28.152 44.4439L21.5666 56.0222ZM42.3129 48.7767C41.7398 48.6576 41.1662 48.9804 40.9703 49.5324L38.6678 56.0222L32.0819 44.4439C36.0938 44.0869 39.9509 42.644 43.2092 40.2755L48.7967 50.123L42.3129 48.7767Z" fill="white"/>
</g>
<defs>
<clipPath id="clip0">
<rect width="60" height="60" fill="white"/>
</clipPath>
</defs>
</svg>
