<?xml version="1.0" encoding="utf-8"?>
<!-- Generator: Adobe Illustrator 24.2.3, SVG Export Plug-In . SVG Version: 6.00 Build 0)  -->
<svg version="1.1" id="Layer_1" xmlns="http://www.w3.org/2000/svg" xmlns:xlink="http://www.w3.org/1999/xlink" x="0px" y="0px"
	 viewBox="0 0 480 480" style="enable-background:new 0 0 480 480;" xml:space="preserve">
<style type="text/css">
	.st0{fill:#0070B9;}
</style>
<path class="st0" d="M480,480v-16H359.1c6.8-6.6,11.8-14.9,14.5-24H456v16h16v-48h-16v16h-31.3l14.7-184H456c4.4,0,8-3.6,8-8v-32
	c0-4.4-3.6-8-8-8h-1.1l7.7-11.6c1.8-2.7,1.8-6.2,0-8.9l-16-24c-0.8-1.2-1.8-2.1-3.1-2.7l-31.4-15.7l-25.4-19l11.8-17.7
	c1.6-2.4,1.8-5.4,0.5-8l-16-32c-0.9-1.8-2.4-3.1-4.2-3.9l-38.5-15.4L309.7,2.3c-2.4-2.4-6.2-3-9.2-1.5L270.1,16H200
	c-1.2,0-2.5,0.3-3.6,0.8l-32,16c-1.5,0.7-2.7,1.9-3.4,3.3l-16.9,30.8L121,64.1c-3.1-0.4-6.2,1.1-7.8,3.8l-24,40
	c-0.3,0.5-0.6,1-0.7,1.6l-5.7,17L58,120.2c-2.1-0.5-4.4-0.2-6.2,1c-1.8,1.2-3.1,3-3.6,5.2l-7.8,38.9L27.1,192H24c-4.4,0-8,3.6-8,8
	v32c0,4.4,3.6,8,8,8h16.6l14.7,184H24v-16H8v48h16v-16h82.4c2.7,9.1,7.7,17.4,14.5,24H0v16H480z M199.1,464
	c6.8-6.6,11.8-14.9,14.5-24h52.8c2.7,9.1,7.7,17.4,14.5,24H199.1z M114.1,392h-13.2l-2.6-32h283.2l-2.6,32h-13.1
	c-10.4-15-27.6-24-45.9-24c-18.3,0-35.4,9-45.9,24h-68.2c-10.4-15-27.6-24-45.9-24C141.7,368,124.6,377,114.1,392z M91.3,272h297.3
	l-1.9,24H93.3L91.3,272z M94.5,312h290.9l-2.6,32H97.1L94.5,312z M264,424h-48c0-5.4-0.8-10.8-2.4-16h52.8
	C264.8,413.2,264,418.6,264,424z M320,464c-22.1,0-40-17.9-40-40c0-22.1,17.9-40,40-40c22.1,0,40,17.9,40,40
	C360,446.1,342.1,464,320,464z M404.4,143.2l30.1,15l11.9,17.8l-10.7,16h-86l-6.2-18.5c-0.5-1.5-1.5-2.9-2.8-3.9l-25.9-19.5
	l24.8-37.2l33,6.6l30.6,22.9C403.6,142.7,404,143,404.4,143.2z M143.8,190.1l-7.6-30.2l7.1-35.5L186.9,88h79.9l29.9,67.2
	c0.1,0.2,0.2,0.4,0.3,0.6c0.1,0.2,0.2,0.4,0.4,0.6c0.1,0.2,0.3,0.4,0.4,0.6c0.2,0.2,0.4,0.3,0.5,0.5c0.3,0.3,0.6,0.6,0.9,0.8
	l30,22.5l3.7,11.1H144C144,191.3,143.9,190.7,143.8,190.1z M302.4,17.7l27.9,27.9c0.8,0.8,1.7,1.4,2.7,1.8l37.2,14.9l12.6,25.1
	l-10.4,15.7l-34.7-6.9c-3.2-0.6-6.4,0.7-8.2,3.4l-23.9,35.9l-26.1-58.7c-1.3-2.9-4.2-4.8-7.3-4.8h-19.1l15.2-9.1
	c1.8-1.1,3.1-2.9,3.6-4.9l7.1-28.4L302.4,17.7z M173.8,46l28.1-14h59.9L257,50.8L221.8,72h-37.3l-23.4-2.9L173.8,46z M124.2,80.6
	l40.5,5.1l-33.8,28.2c-1.4,1.2-2.4,2.8-2.7,4.6l-5.8,28.9l-24.8-14.9l5.7-17.1L124.2,80.6z M55.2,171.6c0.3-0.6,0.5-1.3,0.6-2
	l6.4-31.8l22.7,5.7l18.1,10.8l17.9,10.7l5.4,26.9H44.9L55.2,171.6z M32,208h416v16H32V208z M71.4,424L56.7,240h366.7l-14.7,184H376
	c0-5.4-0.8-10.8-2.4-16h12.8c4.2,0,7.7-3.2,8-7.4l10.9-136c0.2-2.2-0.6-4.4-2.1-6.1s-3.7-2.6-5.9-2.6H82.7c-2.2,0-4.4,0.9-5.9,2.6
	s-2.3,3.8-2.1,6.1l10.9,136c0.3,4.2,3.8,7.4,8,7.4h12.8c-1.6,5.2-2.3,10.6-2.3,16H71.4z M120,424c0-22.1,17.9-40,40-40
	c22.1,0,40,17.9,40,40c0,22.1-17.9,40-40,40C137.9,464,120,446.1,120,424z"/>
<path class="st0" d="M160,400c-13.3,0-24,10.7-24,24c0,13.3,10.7,24,24,24s24-10.7,24-24C184,410.7,173.3,400,160,400z M160,432
	c-4.4,0-8-3.6-8-8c0-4.4,3.6-8,8-8s8,3.6,8,8C168,428.4,164.4,432,160,432z"/>
<path class="st0" d="M320,400c-13.3,0-24,10.7-24,24c0,13.3,10.7,24,24,24s24-10.7,24-24C344,410.7,333.3,400,320,400z M320,432
	c-4.4,0-8-3.6-8-8c0-4.4,3.6-8,8-8s8,3.6,8,8C328,428.4,324.4,432,320,432z"/>
</svg>
